<?xml version="1.0" encoding="UTF-8" standalone="no"?>
<svg
   xmlns:dc="http://purl.org/dc/elements/1.1/"
   xmlns:cc="http://creativecommons.org/ns#"
   xmlns:rdf="http://www.w3.org/1999/02/22-rdf-syntax-ns#"
   xmlns:svg="http://www.w3.org/2000/svg"
   xmlns="http://www.w3.org/2000/svg"
   xmlns:sodipodi="http://sodipodi.sourceforge.net/DTD/sodipodi-0.dtd"
   xmlns:inkscape="http://www.inkscape.org/namespaces/inkscape"
   width="26.458332mm"
   height="26.458332mm"
   viewBox="0 0 26.458332 26.458332"
   version="1.1"
   id="svg6748"
   inkscape:version="1.0.2-2 (e86c870879, 2021-01-15)"
   sodipodi:docname="cert.svg">
  <defs
     id="defs6742" />
  <sodipodi:namedview
     id="base"
     pagecolor="#ffffff"
     bordercolor="#666666"
     borderopacity="1.0"
     inkscape:pageopacity="0.0"
     inkscape:pageshadow="2"
     inkscape:zoom="0.98994949"
     inkscape:cx="86.587635"
     inkscape:cy="88.919324"
     inkscape:document-units="mm"
     inkscape:current-layer="layer1"
     inkscape:document-rotation="0"
     showgrid="false"
     fit-margin-top="0"
     fit-margin-left="0"
     fit-margin-right="0"
     fit-margin-bottom="0"
     inkscape:window-width="1267"
     inkscape:window-height="1198"
     inkscape:window-x="156"
     inkscape:window-y="156"
     inkscape:window-maximized="0" />
  <metadata
     id="metadata6745">
    <rdf:RDF>
      <cc:Work
         rdf:about="">
        <dc:format>image/svg+xml</dc:format>
        <dc:type
           rdf:resource="http://purl.org/dc/dcmitype/StillImage" />
        <dc:title></dc:title>
      </cc:Work>
    </rdf:RDF>
  </metadata>
  <g
     inkscape:label="Layer 1"
     inkscape:groupmode="layer"
     id="layer1"
     transform="translate(-92.263165,-135.76316)">
    <rect
       style="fill:none;stroke:none;stroke-width:1.02273;stroke-linecap:square;stroke-linejoin:round;stroke-opacity:1"
       id="rect7374"
       width="26.458332"
       height="26.458332"
       x="-118.7215"
       y="135.76315"
       ry="4.5620561"
       transform="scale(-1,1)" />
    <g
       id="g7739"
       transform="matrix(0.85324202,0,0,0.85324202,-2.8764021,-10.175169)">
      <path
         d="m 130.02498,198.3335 -0.18591,-1.1677 -0.93698,-0.375 0.53728,-1.0541 -0.53728,-0.85725 1.0541,-0.53763 0.0688,-1.00542 1.16734,0.18909 0.64417,-0.78176 0.83644,0.84032 0.97825,-0.24765 0.18627,1.16734 0.93698,0.37571 -0.53728,1.05728 0.53728,0.85407 -1.0541,0.53375 -0.0692,1.00895 -1.16699,-0.18944 -0.6477,0.7754 -0.83291,-0.83361 -0.9786,0.24765"
         style="fill:#c2ebf9;fill-opacity:1;fill-rule:nonzero;stroke:none;stroke-width:0.0352778"
         id="path3389-3" />
      <path
         d="m 131.00358,197.85654 c 0.06,0 0.11854,0.0236 0.16228,0.067 l 0.65546,0.65617 0.48684,-0.58279 c 0.0522,-0.0617 0.13158,-0.0931 0.21308,-0.0794 l 0.91828,0.14923 0.0522,-0.75812 c 0.005,-0.0804 0.0529,-0.15205 0.12488,-0.18874 l 0.83009,-0.42016 -0.40358,-0.64135 c -0.043,-0.0681 -0.0469,-0.15381 -0.0102,-0.22577 l 0.42368,-0.83397 -0.70449,-0.28187 c -0.0748,-0.03 -0.12806,-0.0974 -0.14111,-0.17674 l -0.14676,-0.92005 -0.73519,0.18627 c -0.0787,0.0198 -0.16157,-0.003 -0.21872,-0.0603 l -0.65793,-0.66111 -0.48295,0.58632 c -0.0522,0.0631 -0.13371,0.0942 -0.21379,0.0804 l -0.91898,-0.14887 -0.0515,0.75459 c -0.006,0.0808 -0.0529,0.1524 -0.12488,0.18874 l -0.83079,0.42368 0.40428,0.64558 c 0.0427,0.0681 0.0466,0.15382 0.01,0.22543 l -0.42334,0.83044 0.70379,0.28187 c 0.0751,0.0296 0.12877,0.097 0.14147,0.17674 l 0.14675,0.91969 0.73519,-0.18556 c 0.0183,-0.005 0.0374,-0.007 0.0561,-0.007 z m 0.83291,1.29223 c -0.0607,0 -0.11924,-0.024 -0.16227,-0.067 l -0.74049,-0.74154 -0.85231,0.2152 c -0.0621,0.0166 -0.12841,0.005 -0.18238,-0.0303 -0.0536,-0.0356 -0.0903,-0.0921 -0.10019,-0.15558 l -0.16581,-1.03893 -0.81597,-0.32702 c -0.06,-0.024 -0.10689,-0.072 -0.12982,-0.1323 -0.0226,-0.0603 -0.0187,-0.12735 0.0106,-0.1845 l 0.47837,-0.93839 -0.46849,-0.74753 c -0.0342,-0.0543 -0.0437,-0.1203 -0.0268,-0.18239 0.0173,-0.0621 0.0596,-0.11395 0.11712,-0.14358 l 0.93839,-0.47837 0.06,-0.87559 c 0.005,-0.0646 0.036,-0.12418 0.0861,-0.16404 0.0508,-0.0399 0.11606,-0.0579 0.17921,-0.0469 l 1.03717,0.16827 0.56056,-0.68015 c 0.0413,-0.0501 0.1016,-0.0804 0.16651,-0.0836 0.0646,-7.1e-4 0.12771,0.0219 0.17321,0.0674 l 0.74401,0.74789 0.85196,-0.21555 c 0.0614,-0.0159 0.12806,-0.005 0.18203,0.0307 0.0536,0.0353 0.0903,0.0917 0.10019,0.15522 l 0.16616,1.03929 0.81633,0.32702 c 0.0596,0.024 0.10654,0.072 0.12947,0.13229 0.0226,0.0603 0.0187,0.127 -0.0106,0.18486 l -0.47837,0.94086 0.46813,0.74436 c 0.0346,0.0543 0.0441,0.121 0.0268,0.18309 -0.0173,0.0621 -0.0596,0.1143 -0.11713,0.14358 l -0.93803,0.47484 -0.0603,0.87912 c -0.005,0.0639 -0.0356,0.12348 -0.0861,0.16334 -0.0512,0.0406 -0.11606,0.0575 -0.17956,0.0469 l -1.03752,-0.16828 -0.56409,0.67522 c -0.0413,0.049 -0.1016,0.079 -0.16581,0.0818 -0.003,0 -0.007,3.6e-4 -0.0102,3.6e-4"
         style="fill:#4a6cbd;fill-opacity:1;fill-rule:nonzero;stroke:none;stroke-width:0.0352778"
         id="path3391-8" />
      <path
         d="m 117.12319,199.89031 v -26.69152 c 0,-0.20709 0.1718,-0.37924 0.38241,-0.37924 h 19.00837 c 0.20603,0 0.37889,0.17215 0.37889,0.37924 v 10.47362 8.27228 4.69442 3.2512 c 0,0.20708 -0.17286,0.37888 -0.37889,0.37888 h -14.097 -4.91137 c -0.21061,0 -0.38241,-0.1718 -0.38241,-0.37888 z m 12.71588,-2.72451 0.18591,1.1677 0.9786,-0.24765 0.83291,0.83361 0.6477,-0.7754 1.16699,0.18944 0.0692,-1.00895 1.0541,-0.53375 -0.53728,-0.85407 0.53728,-1.05728 -0.93698,-0.37571 -0.18627,-1.16734 -0.97825,0.24765 -0.83644,-0.84032 -0.64417,0.78176 -1.16734,-0.18909 -0.0688,1.00542 -1.0541,0.53763 0.53728,0.85725 -0.53728,1.0541 0.93698,0.375"
         style="fill:#f7fcff;fill-opacity:1;fill-rule:nonzero;stroke:none;stroke-width:0.0352778"
         id="path3393-7" />
      <path
         d="m 131.00358,197.85654 c 0.06,0 0.11854,0.0236 0.16228,0.067 l 0.65546,0.65617 0.48684,-0.58279 c 0.0522,-0.0617 0.13158,-0.0931 0.21308,-0.0794 l 0.91828,0.14923 0.0522,-0.75812 c 0.005,-0.0804 0.0529,-0.15205 0.12488,-0.18874 l 0.83009,-0.42016 -0.40358,-0.64135 c -0.043,-0.0681 -0.0469,-0.15381 -0.0102,-0.22577 l 0.42368,-0.83397 -0.70449,-0.28187 c -0.0748,-0.03 -0.12806,-0.0974 -0.14111,-0.17674 l -0.14676,-0.92005 -0.73519,0.18627 c -0.0787,0.0198 -0.16157,-0.003 -0.21872,-0.0603 l -0.65793,-0.66111 -0.48295,0.58632 c -0.0522,0.0631 -0.13371,0.0942 -0.21379,0.0804 l -0.91898,-0.14887 -0.0515,0.75459 c -0.006,0.0808 -0.0529,0.1524 -0.12488,0.18874 l -0.83079,0.42368 0.40428,0.64558 c 0.0427,0.0681 0.0466,0.15382 0.01,0.22543 l -0.42334,0.83044 0.70379,0.28187 c 0.0751,0.0296 0.12877,0.097 0.14147,0.17674 l 0.14675,0.91969 0.73519,-0.18556 c 0.0183,-0.005 0.0374,-0.007 0.0561,-0.007 z m 0.83291,1.29223 c -0.0607,0 -0.11924,-0.024 -0.16227,-0.067 l -0.74049,-0.74154 -0.85231,0.2152 c -0.0621,0.0166 -0.12841,0.005 -0.18238,-0.0303 -0.0536,-0.0356 -0.0903,-0.0921 -0.10019,-0.15558 l -0.16581,-1.03893 -0.81597,-0.32702 c -0.06,-0.024 -0.10689,-0.072 -0.12982,-0.1323 -0.0226,-0.0603 -0.0187,-0.12735 0.0106,-0.1845 l 0.47837,-0.93839 -0.46849,-0.74753 c -0.0342,-0.0543 -0.0437,-0.1203 -0.0268,-0.18239 0.0173,-0.0621 0.0596,-0.11395 0.11712,-0.14358 l 0.93839,-0.47837 0.06,-0.87559 c 0.005,-0.0646 0.036,-0.12418 0.0861,-0.16404 0.0508,-0.0399 0.11606,-0.0579 0.17921,-0.0469 l 1.03717,0.16827 0.56056,-0.68015 c 0.0413,-0.0501 0.1016,-0.0804 0.16651,-0.0836 0.0646,-7.1e-4 0.12771,0.0219 0.17321,0.0674 l 0.74401,0.74789 0.85196,-0.21555 c 0.0614,-0.0159 0.12806,-0.005 0.18203,0.0307 0.0536,0.0353 0.0903,0.0917 0.10019,0.15522 l 0.16616,1.03929 0.81633,0.32702 c 0.0596,0.024 0.10654,0.072 0.12947,0.13229 0.0226,0.0603 0.0187,0.127 -0.0106,0.18486 l -0.47837,0.94086 0.46813,0.74436 c 0.0346,0.0543 0.0441,0.121 0.0268,0.18309 -0.0173,0.0621 -0.0596,0.1143 -0.11713,0.14358 l -0.93803,0.47484 -0.0603,0.87912 c -0.005,0.0639 -0.0356,0.12348 -0.0861,0.16334 -0.0512,0.0406 -0.11606,0.0575 -0.17956,0.0469 l -1.03752,-0.16828 -0.56409,0.67522 c -0.0413,0.049 -0.1016,0.079 -0.16581,0.0818 -0.003,0 -0.007,3.6e-4 -0.0102,3.6e-4 z M 117.5056,173.04921 c -0.0829,0 -0.15275,0.0684 -0.15275,0.14958 v 26.69152 c 0,0.0808 0.0699,0.14957 0.15275,0.14957 h 19.00837 c 0.0797,0 0.14958,-0.0702 0.14958,-0.14957 v -26.69152 c 0,-0.0797 -0.0699,-0.14958 -0.14958,-0.14958 z m 19.00837,27.44929 H 117.5056 c -0.33725,0 -0.61172,-0.2727 -0.61172,-0.60819 v -26.69152 c 0,-0.33585 0.27447,-0.60855 0.61172,-0.60855 h 19.00837 c 0.3355,0 0.60855,0.2727 0.60855,0.60855 v 26.69152 c 0,0.33549 -0.27305,0.60819 -0.60855,0.60819"
         style="fill:#4a6cbd;fill-opacity:1;fill-rule:nonzero;stroke:none;stroke-width:0.0352778"
         id="path3395-8" />
      <path
         d="m 136.89286,196.86841 c -0.12665,0 -0.22931,-0.10266 -0.22931,-0.2293 v -4.69442 c 0,-0.12665 0.10266,-0.2293 0.22931,-0.2293 0.127,0 0.22966,0.10265 0.22966,0.2293 v 4.69442 c 0,0.12664 -0.10266,0.2293 -0.22966,0.2293"
         style="fill:#4a6cbd;fill-opacity:1;fill-rule:nonzero;stroke:none;stroke-width:0.0352778"
         id="path3397-4" />
      <path
         d="m 122.41697,200.4985 h -4.91137 c -0.33725,0 -0.61172,-0.2727 -0.61172,-0.60819 v -26.69152 c 0,-0.33585 0.27447,-0.60855 0.61172,-0.60855 h 19.00837 c 0.3355,0 0.60855,0.2727 0.60855,0.60855 v 18.7459 c 0,0.127 -0.10266,0.22966 -0.22966,0.22966 -0.12665,0 -0.22931,-0.10266 -0.22931,-0.22966 v -18.7459 c 0,-0.0797 -0.0699,-0.14958 -0.14958,-0.14958 H 117.5056 c -0.0829,0 -0.15275,0.0684 -0.15275,0.14958 v 26.69152 c 0,0.0808 0.0699,0.14957 0.15275,0.14957 h 4.91137 c 0.12665,0 0.22931,0.10266 0.22931,0.22931 0,0.12665 -0.10266,0.22931 -0.22931,0.22931"
         style="fill:#4a6cbd;fill-opacity:1;fill-rule:nonzero;stroke:none;stroke-width:0.0352778"
         id="path3399-9" />
      <path
         d="m 136.51397,200.4985 h -14.097 c -0.12664,0 -0.2293,-0.10266 -0.2293,-0.22931 0,-0.12665 0.10266,-0.22931 0.2293,-0.22931 h 14.097 c 0.0797,0 0.14958,-0.0702 0.14958,-0.14957 v -3.2512 c 0,-0.12665 0.10266,-0.22966 0.22931,-0.22966 0.127,0 0.22966,0.10301 0.22966,0.22966 v 3.2512 c 0,0.33549 -0.27305,0.60819 -0.60855,0.60819"
         style="fill:#4a6cbd;fill-opacity:1;fill-rule:nonzero;stroke:none;stroke-width:0.0352778"
         id="path3401-1" />
      <path
         d="m 133.03488,176.76149 h -1.71803 c -0.12665,0 -0.2293,-0.10266 -0.2293,-0.22931 0,-0.127 0.10265,-0.22966 0.2293,-0.22966 h 1.71803 c 0.12665,0 0.22931,0.10266 0.22931,0.22966 0,0.12665 -0.10266,0.22931 -0.22931,0.22931"
         style="fill:#4a6cbd;fill-opacity:1;fill-rule:nonzero;stroke:none;stroke-width:0.0352778"
         id="path3403-1" />
      <path
         d="m 129.70818,176.76149 h -0.81597 c -0.12665,0 -0.22931,-0.10266 -0.22931,-0.22931 0,-0.127 0.10266,-0.22966 0.22931,-0.22966 h 0.81597 c 0.12665,0 0.22931,0.10266 0.22931,0.22966 0,0.12665 -0.10266,0.22931 -0.22931,0.22931"
         style="fill:#4a6cbd;fill-opacity:1;fill-rule:nonzero;stroke:none;stroke-width:0.0352778"
         id="path3405-8" />
      <path
         d="m 126.98051,176.76149 h -5.72806 c -0.12664,0 -0.2293,-0.10266 -0.2293,-0.22931 0,-0.127 0.10266,-0.22966 0.2293,-0.22966 h 5.72806 c 0.127,0 0.22966,0.10266 0.22966,0.22966 0,0.12665 -0.10266,0.22931 -0.22966,0.22931"
         style="fill:#4a6cbd;fill-opacity:1;fill-rule:nonzero;stroke:none;stroke-width:0.0352778"
         id="path3407-1" />
      <path
         d="m 133.70657,180.89463 h -13.88992 c -0.12665,0 -0.22966,-0.10266 -0.22966,-0.2293 0,-0.127 0.10301,-0.22966 0.22966,-0.22966 h 13.88992 c 0.12665,0 0.2293,0.10266 0.2293,0.22966 0,0.12664 -0.10265,0.2293 -0.2293,0.2293"
         style="fill:#4a6cbd;fill-opacity:1;fill-rule:nonzero;stroke:none;stroke-width:0.0352778"
         id="path3409-0" />
      <path
         d="m 134.91519,184.34586 h -3.53378 c -0.12665,0 -0.22931,-0.10266 -0.22931,-0.22931 0,-0.127 0.10266,-0.22966 0.22931,-0.22966 h 3.53378 c 0.12664,0 0.2293,0.10266 0.2293,0.22966 0,0.12665 -0.10266,0.22931 -0.2293,0.22931"
         style="fill:#4a6cbd;fill-opacity:1;fill-rule:nonzero;stroke:none;stroke-width:0.0352778"
         id="path3411-5" />
      <path
         d="m 129.72547,184.34586 h -9.90882 c -0.12665,0 -0.22966,-0.10266 -0.22966,-0.22931 0,-0.127 0.10301,-0.22966 0.22966,-0.22966 h 9.90882 c 0.12665,0 0.22931,0.10266 0.22931,0.22966 0,0.12665 -0.10266,0.22931 -0.22931,0.22931"
         style="fill:#4a6cbd;fill-opacity:1;fill-rule:nonzero;stroke:none;stroke-width:0.0352778"
         id="path3413-9" />
      <path
         d="M 134.91519,187.79991 H 124.2486 c -0.12665,0 -0.22931,-0.10266 -0.22931,-0.22931 0,-0.127 0.10266,-0.22966 0.22931,-0.22966 h 10.66659 c 0.12664,0 0.2293,0.10266 0.2293,0.22966 0,0.12665 -0.10266,0.22931 -0.2293,0.22931"
         style="fill:#4a6cbd;fill-opacity:1;fill-rule:nonzero;stroke:none;stroke-width:0.0352778"
         id="path3415-6" />
      <path
         d="m 122.36864,187.79991 h -2.55199 c -0.12665,0 -0.22966,-0.10266 -0.22966,-0.22931 0,-0.127 0.10301,-0.22966 0.22966,-0.22966 h 2.55199 c 0.127,0 0.22966,0.10266 0.22966,0.22966 0,0.12665 -0.10266,0.22931 -0.22966,0.22931"
         style="fill:#4a6cbd;fill-opacity:1;fill-rule:nonzero;stroke:none;stroke-width:0.0352778"
         id="path3417-7" />
      <path
         d="m 134.91519,191.25466 h -6.59554 c -0.12665,0 -0.2293,-0.10266 -0.2293,-0.22931 0,-0.127 0.10265,-0.22966 0.2293,-0.22966 h 6.59554 c 0.12664,0 0.2293,0.10266 0.2293,0.22966 0,0.12665 -0.10266,0.22931 -0.2293,0.22931"
         style="fill:#4a6cbd;fill-opacity:1;fill-rule:nonzero;stroke:none;stroke-width:0.0352778"
         id="path3419-1" />
      <path
         d="m 126.5293,191.25466 h -6.71265 c -0.12665,0 -0.22966,-0.10266 -0.22966,-0.22931 0,-0.127 0.10301,-0.22966 0.22966,-0.22966 h 6.71265 c 0.127,0 0.22966,0.10266 0.22966,0.22966 0,0.12665 -0.10266,0.22931 -0.22966,0.22931"
         style="fill:#4a6cbd;fill-opacity:1;fill-rule:nonzero;stroke:none;stroke-width:0.0352778"
         id="path3421-2" />
      <path
         d="m 124.13218,195.62169 h -5.32483 c -0.127,0 -0.22966,-0.10265 -0.22966,-0.2293 0,-0.127 0.10266,-0.22966 0.22966,-0.22966 h 5.32483 c 0.127,0 0.22966,0.10266 0.22966,0.22966 0,0.12665 -0.10266,0.2293 -0.22966,0.2293"
         style="fill:#4a6cbd;fill-opacity:1;fill-rule:nonzero;stroke:none;stroke-width:0.0352778"
         id="path3423-5" />
      <path
         d="m 131.00358,197.85654 c 0.06,0 0.11854,0.0236 0.16228,0.067 l 0.65546,0.65617 0.48684,-0.58279 c 0.0522,-0.0617 0.13158,-0.0931 0.21308,-0.0794 l 0.91828,0.14923 0.0522,-0.75812 c 0.005,-0.0804 0.0529,-0.15205 0.12488,-0.18874 l 0.83009,-0.42016 -0.40358,-0.64135 c -0.043,-0.0681 -0.0469,-0.15381 -0.0102,-0.22577 l 0.42368,-0.83397 -0.70449,-0.28187 c -0.0748,-0.03 -0.12806,-0.0974 -0.14111,-0.17674 l -0.14676,-0.92005 -0.73519,0.18627 c -0.0787,0.0198 -0.16157,-0.003 -0.21872,-0.0603 l -0.65793,-0.66111 -0.48295,0.58632 c -0.0522,0.0631 -0.13371,0.0942 -0.21379,0.0804 l -0.91898,-0.14887 -0.0515,0.75459 c -0.006,0.0808 -0.0529,0.1524 -0.12488,0.18874 l -0.83079,0.42368 0.40428,0.64558 c 0.0427,0.0681 0.0466,0.15382 0.01,0.22543 l -0.42334,0.83044 0.70379,0.28187 c 0.0751,0.0296 0.12877,0.097 0.14147,0.17674 l 0.14675,0.91969 0.73519,-0.18556 c 0.0183,-0.005 0.0374,-0.007 0.0561,-0.007 z m 0.83291,1.29223 c -0.0607,0 -0.11924,-0.024 -0.16227,-0.067 l -0.74049,-0.74154 -0.85231,0.2152 c -0.0621,0.0166 -0.12841,0.005 -0.18238,-0.0303 -0.0536,-0.0356 -0.0903,-0.0921 -0.10019,-0.15558 l -0.16581,-1.03893 -0.81597,-0.32702 c -0.06,-0.024 -0.10689,-0.072 -0.12982,-0.1323 -0.0226,-0.0603 -0.0187,-0.12735 0.0106,-0.1845 l 0.47837,-0.93839 -0.46849,-0.74753 c -0.0342,-0.0543 -0.0437,-0.1203 -0.0268,-0.18239 0.0173,-0.0621 0.0596,-0.11395 0.11712,-0.14358 l 0.93839,-0.47837 0.06,-0.87559 c 0.005,-0.0646 0.036,-0.12418 0.0861,-0.16404 0.0508,-0.0399 0.11606,-0.0579 0.17921,-0.0469 l 1.03717,0.16827 0.56056,-0.68015 c 0.0413,-0.0501 0.1016,-0.0804 0.16651,-0.0836 0.0646,-7.1e-4 0.12771,0.0219 0.17321,0.0674 l 0.74401,0.74789 0.85196,-0.21555 c 0.0614,-0.0159 0.12806,-0.005 0.18203,0.0307 0.0536,0.0353 0.0903,0.0917 0.10019,0.15522 l 0.16616,1.03929 0.81633,0.32702 c 0.0596,0.024 0.10654,0.072 0.12947,0.13229 0.0226,0.0603 0.0187,0.127 -0.0106,0.18486 l -0.47837,0.94086 0.46813,0.74436 c 0.0346,0.0543 0.0441,0.121 0.0268,0.18309 -0.0173,0.0621 -0.0596,0.1143 -0.11713,0.14358 l -0.93803,0.47484 -0.0603,0.87912 c -0.005,0.0639 -0.0356,0.12348 -0.0861,0.16334 -0.0512,0.0406 -0.11606,0.0575 -0.17956,0.0469 l -1.03752,-0.16828 -0.56409,0.67522 c -0.0413,0.049 -0.1016,0.079 -0.16581,0.0818 -0.003,0 -0.007,3.6e-4 -0.0102,3.6e-4"
         style="fill:#4a6cbd;fill-opacity:1;fill-rule:nonzero;stroke:none;stroke-width:0.0352778"
         id="path3425-9" />
    </g>
  </g>
</svg>
