<?xml version="1.0" encoding="UTF-8" standalone="no"?>
<svg
   xmlns:dc="http://purl.org/dc/elements/1.1/"
   xmlns:cc="http://creativecommons.org/ns#"
   xmlns:rdf="http://www.w3.org/1999/02/22-rdf-syntax-ns#"
   xmlns:svg="http://www.w3.org/2000/svg"
   xmlns="http://www.w3.org/2000/svg"
   xmlns:sodipodi="http://sodipodi.sourceforge.net/DTD/sodipodi-0.dtd"
   xmlns:inkscape="http://www.inkscape.org/namespaces/inkscape"
   width="44.118568mm"
   height="42.77779mm"
   viewBox="0 0 44.118568 42.77779"
   version="1.1"
   id="svg8"
   inkscape:version="1.0.2-2 (e86c870879, 2021-01-15)"
   sodipodi:docname="unab1.svg">
  <defs
     id="defs2">
    <clipPath
       clipPathUnits="userSpaceOnUse"
       id="clipPath867">
      <path
         d="M 0,708.66 H 708.66 V 0 H 0 Z"
         id="path865" />
    </clipPath>
  </defs>
  <sodipodi:namedview
     id="base"
     pagecolor="#ffffff"
     bordercolor="#666666"
     borderopacity="1.0"
     inkscape:pageopacity="0.0"
     inkscape:pageshadow="2"
     inkscape:zoom="1.4"
     inkscape:cx="176.52087"
     inkscape:cy="82.672096"
     inkscape:document-units="mm"
     inkscape:current-layer="layer1"
     inkscape:document-rotation="0"
     showgrid="false"
     fit-margin-top="0"
     fit-margin-left="0"
     fit-margin-right="0"
     fit-margin-bottom="0"
     inkscape:window-width="1278"
     inkscape:window-height="1368"
     inkscape:window-x="1273"
     inkscape:window-y="0"
     inkscape:window-maximized="0" />
  <metadata
     id="metadata5">
    <rdf:RDF>
      <cc:Work
         rdf:about="">
        <dc:format>image/svg+xml</dc:format>
        <dc:type
           rdf:resource="http://purl.org/dc/dcmitype/StillImage" />
        <dc:title></dc:title>
      </cc:Work>
    </rdf:RDF>
  </metadata>
  <g
     inkscape:label="Layer 1"
     inkscape:groupmode="layer"
     id="layer1"
     transform="translate(-138.95862,-106.36715)">
    <path
       d="m 148.61865,146.70457 c -0.002,0.005 -0.002,0.009 -0.002,0.0134 0,0.0106 0.004,0.0272 0.0113,0.0504 l 0.40252,1.19839 0.41452,-1.20333 c 0.004,-0.0123 0.007,-0.0222 0.007,-0.0293 0.001,-0.008 0.001,-0.018 0.001,-0.0296 h 0.14146 c -0.0155,0.0222 -0.0265,0.0437 -0.0317,0.0639 l -0.47378,1.39206 c -0.003,0.007 -0.005,0.0152 -0.006,0.024 -7e-4,0.008 -0.002,0.0208 -0.005,0.0374 h -0.23424 c -0.004,-0.0123 -0.005,-0.0222 -0.006,-0.0282 -0.001,-0.007 -0.004,-0.0183 -0.0106,-0.0332 l -0.4639,-1.38077 c -0.003,-0.009 -0.006,-0.0176 -0.009,-0.0265 -0.003,-0.009 -0.0106,-0.0247 -0.0226,-0.0487 z"
       style="fill:#009cde;fill-opacity:1;fill-rule:nonzero;stroke:none;stroke-width:0.352778"
       id="path1433" />
    <path
       d="m 149.99011,146.70457 c -0.003,0.0116 -0.005,0.0229 -0.007,0.0328 -0.001,0.01 -0.002,0.0229 -0.002,0.0399 v 1.37195 c 0,0.0166 0.001,0.03 0.002,0.0395 0.002,0.0102 0.004,0.0208 0.007,0.0332 h -0.27093 c 0.006,-0.0254 0.01,-0.0504 0.01,-0.0727 v -1.37195 c 0,-0.0226 -0.004,-0.0469 -0.01,-0.0727 z"
       style="fill:#009cde;fill-opacity:1;fill-rule:nonzero;stroke:none;stroke-width:0.352778"
       id="path1437" />
    <path
       d="m 151.45707,146.95229 c -0.0741,-0.0515 -0.14288,-0.0885 -0.20673,-0.11007 -0.0635,-0.0222 -0.13194,-0.0332 -0.20461,-0.0332 -0.14746,0 -0.26705,0.0508 -0.35948,0.15275 -0.0529,0.0593 -0.0917,0.12947 -0.11712,0.21096 -0.0254,0.0808 -0.0374,0.18133 -0.0374,0.29951 0,0.20779 0.0427,0.36901 0.12806,0.48154 0.0857,0.11325 0.20673,0.16969 0.36301,0.16969 0.0455,0 0.0854,-0.004 0.11924,-0.0134 0.0342,-0.009 0.0727,-0.0258 0.11536,-0.0497 v -0.59372 c 0,-0.0155 -10e-4,-0.0279 -0.002,-0.0381 -0.001,-0.01 -0.004,-0.0212 -0.007,-0.0353 h 0.26353 c -0.003,0.0159 -0.005,0.0279 -0.006,0.0381 -0.002,0.01 -0.002,0.0215 -0.002,0.0353 v 0.58455 c 0,0.0212 7.1e-4,0.0374 0.002,0.0487 0.001,0.0113 0.006,0.025 0.0134,0.0416 -0.0684,0.0226 -0.12594,0.0402 -0.17286,0.0533 -0.0473,0.0141 -0.0889,0.0243 -0.12629,0.0317 -0.037,0.008 -0.0727,0.0123 -0.10725,0.0145 -0.0339,0.002 -0.073,0.003 -0.11676,0.003 -0.11713,0 -0.21732,-0.0148 -0.30163,-0.0452 -0.0843,-0.0303 -0.15804,-0.078 -0.22154,-0.14323 -0.14112,-0.1457 -0.21167,-0.34149 -0.21167,-0.58702 0,-0.12277 0.018,-0.23284 0.0536,-0.32985 0.0349,-0.0967 0.0868,-0.17921 0.15311,-0.2473 0.067,-0.067 0.14781,-0.11924 0.24412,-0.15522 0.0949,-0.0367 0.2032,-0.0547 0.32244,-0.0547 0.0367,0 0.0716,0.001 0.10477,0.004 0.0335,0.003 0.0667,0.008 0.10019,0.0138 0.0332,0.006 0.0677,0.0145 0.10372,0.025 0.0353,0.0109 0.0737,0.0236 0.1143,0.0388 z"
       style="fill:#009cde;fill-opacity:1;fill-rule:nonzero;stroke:none;stroke-width:0.352778"
       id="path1441" />
    <path
       d="m 152.0806,146.70457 c -0.003,0.0116 -0.005,0.0229 -0.007,0.0328 -7e-4,0.01 -0.002,0.0229 -0.002,0.0399 v 1.37195 c 0,0.0166 0.001,0.03 0.002,0.0395 0.002,0.0102 0.005,0.0208 0.007,0.0332 h -0.27093 c 0.006,-0.0254 0.01,-0.0504 0.01,-0.0727 v -1.37195 c 0,-0.0226 -0.004,-0.0469 -0.01,-0.0727 z"
       style="fill:#009cde;fill-opacity:1;fill-rule:nonzero;stroke:none;stroke-width:0.352778"
       id="path1445" />
    <path
       d="m 152.41514,148.22179 c 0.006,-0.0254 0.009,-0.0487 0.009,-0.0691 v -1.37301 c 0,-0.0123 -0.001,-0.0229 -0.002,-0.0335 -0.001,-0.01 -0.004,-0.0226 -0.007,-0.0395 h 0.27094 c -0.007,0.024 -0.01,0.049 -0.01,0.073 v 1.32115 h 0.43039 c 0.0208,0 0.0356,-3.5e-4 0.0441,-0.002 0.008,-0.001 0.0194,-0.004 0.0332,-0.009 v 0.13193 z"
       style="fill:#009cde;fill-opacity:1;fill-rule:nonzero;stroke:none;stroke-width:0.352778"
       id="path1449" />
    <path
       d="m 154.10495,147.63717 -0.24554,-0.68474 -0.23847,0.68474 z m -0.66887,0.52105 c -0.002,0.012 -0.005,0.0226 -0.006,0.0303 -0.001,0.009 -0.002,0.0194 -0.002,0.0332 h -0.14358 c 0.008,-0.0123 0.0141,-0.0226 0.019,-0.0321 0.004,-0.009 0.009,-0.0194 0.0134,-0.0314 l 0.49565,-1.39911 c 0.004,-0.012 0.005,-0.0219 0.007,-0.0286 0.001,-0.007 0.003,-0.0155 0.005,-0.0261 h 0.21837 c 0.001,0.0166 0.005,0.0335 0.0116,0.0501 l 0.51188,1.4037 c 0.004,0.012 0.009,0.0219 0.0134,0.0296 0.005,0.007 0.0123,0.0183 0.0222,0.0339 h -0.29563 c 0,-0.0123 -7e-4,-0.0222 -0.002,-0.031 -0.001,-0.008 -0.004,-0.019 -0.009,-0.0325 l -0.1457,-0.41169 h -0.56409 z"
       style="fill:#009cde;fill-opacity:1;fill-rule:nonzero;stroke:none;stroke-width:0.352778"
       id="path1453" />
    <path
       d="m 155.22428,148.08986 c 0.15592,0 0.27834,-0.0568 0.36759,-0.17004 0.0889,-0.1143 0.133,-0.27129 0.133,-0.47273 0,-0.0956 -0.0123,-0.18097 -0.0378,-0.25646 -0.025,-0.0762 -0.061,-0.14041 -0.1076,-0.19403 -0.0473,-0.054 -0.10407,-0.0952 -0.17145,-0.12383 -0.0663,-0.0289 -0.14146,-0.0434 -0.22472,-0.0434 h -0.16615 v 1.26048 z m -0.002,-1.38536 c 0.11924,0 0.22684,0.0166 0.32279,0.0512 0.0952,0.0339 0.17604,0.0833 0.24342,0.14817 0.0663,0.0639 0.11783,0.14252 0.15346,0.2353 0.0353,0.0921 0.0536,0.19579 0.0536,0.3115 0,0.11324 -0.0173,0.21767 -0.0526,0.31115 -0.0349,0.0945 -0.084,0.17533 -0.14641,0.24412 -0.0635,0.0677 -0.13793,0.12101 -0.22436,0.15875 -0.0864,0.0378 -0.18133,0.0572 -0.28434,0.0572 h -0.53199 c 0.006,-0.0254 0.009,-0.0504 0.009,-0.0727 v -1.37195 c 0,-0.0152 -7.1e-4,-0.0279 -0.002,-0.0378 -10e-4,-0.01 -0.004,-0.0215 -0.006,-0.0349 z"
       style="fill:#009cde;fill-opacity:1;fill-rule:nonzero;stroke:none;stroke-width:0.352778"
       id="path1457" />
    <path
       d="m 156.84896,147.63717 -0.24553,-0.68474 -0.23919,0.68474 z m -0.66922,0.52105 c -0.003,0.012 -0.005,0.0226 -0.007,0.0303 -0.001,0.009 -0.002,0.0194 -0.002,0.0332 h -0.14323 c 0.008,-0.0123 0.0141,-0.0226 0.0187,-0.0321 0.004,-0.009 0.009,-0.0194 0.0134,-0.0314 l 0.49566,-1.39911 c 0.004,-0.012 0.005,-0.0219 0.007,-0.0286 7.1e-4,-0.007 0.002,-0.0155 0.004,-0.0261 h 0.21837 c 0.001,0.0166 0.005,0.0335 0.0117,0.0501 l 0.51188,1.4037 c 0.005,0.012 0.009,0.0219 0.0134,0.0296 0.005,0.007 0.0124,0.0183 0.0229,0.0339 h -0.29598 c 0,-0.0123 -0.001,-0.0222 -0.002,-0.031 -0.001,-0.008 -0.004,-0.019 -0.009,-0.0325 l -0.14569,-0.41169 h -0.5641 z"
       style="fill:#009cde;fill-opacity:1;fill-rule:nonzero;stroke:none;stroke-width:0.352778"
       id="path1461" />
    <path
       d="m 158.15466,148.15565 v 0.009 c 0.001,0.0215 0.002,0.0346 0.002,0.0395 v 0.0176 h -0.13617 c 0.006,-0.0194 0.01,-0.0339 0.0123,-0.0434 0.002,-0.009 0.005,-0.0176 0.008,-0.0272 l 0.21625,-1.38077 v -0.0229 -0.0427 h 0.22754 c 0.001,0.0134 0.003,0.0247 0.003,0.0325 0.001,0.009 0.003,0.0173 0.006,0.0265 l 0.40499,1.17863 0.40675,-1.18569 c 0.005,-0.0102 0.007,-0.0236 0.007,-0.0385 v -0.0134 h 0.23002 v 0.0159 0.0159 0.0201 l 0.20002,1.39912 c 0.001,0.008 0.004,0.0159 0.006,0.0236 0.002,0.009 0.006,0.0229 0.0123,0.0423 h -0.27093 c 0.004,-0.007 0.005,-0.0138 0.005,-0.0176 v -0.0162 -0.0113 c 0,-0.006 -0.001,-0.012 -0.002,-0.0159 l -0.15945,-1.13277 -0.387,1.12783 c -0.007,0.0226 -0.0109,0.0409 -0.0109,0.0543 v 0.0116 h -0.21413 v -0.0138 c 0,-0.0162 -0.002,-0.0307 -0.009,-0.0434 l -0.38205,-1.10949 z"
       style="fill:#009cde;fill-opacity:1;fill-rule:nonzero;stroke:none;stroke-width:0.352778"
       id="path1465" />
    <path
       d="m 160.26755,146.70457 c -0.003,0.0116 -0.005,0.0229 -0.007,0.0328 -3.5e-4,0.01 -0.001,0.0229 -0.001,0.0399 v 1.37195 c 0,0.0166 0.001,0.03 0.001,0.0395 0.002,0.0102 0.005,0.0208 0.007,0.0332 h -0.27093 c 0.006,-0.0254 0.01,-0.0504 0.01,-0.0727 v -1.37195 c 0,-0.0226 -0.004,-0.0469 -0.01,-0.0727 z"
       style="fill:#009cde;fill-opacity:1;fill-rule:nonzero;stroke:none;stroke-width:0.352778"
       id="path1469" />
    <path
       d="m 160.72264,148.14912 c 0,0.0148 7e-4,0.0272 0.002,0.037 0.001,0.0102 0.004,0.0219 0.006,0.0356 h -0.1337 c 0.006,-0.0254 0.009,-0.0504 0.009,-0.0727 v -1.37195 c 0,-0.0138 -0.001,-0.0254 -0.002,-0.0349 -0.002,-0.0106 -0.004,-0.0226 -0.007,-0.0377 h 0.24095 c 0.003,0.0106 0.006,0.0183 0.008,0.024 0.002,0.005 0.009,0.0148 0.019,0.0282 l 0.82832,1.16064 v -1.14018 c 0,-0.0243 -0.003,-0.0483 -0.009,-0.0727 h 0.13441 c -0.003,0.0116 -0.005,0.0226 -0.007,0.0318 -0.002,0.009 -0.002,0.0229 -0.002,0.0409 v 1.37619 c 0,0.018 3.5e-4,0.0314 0.002,0.0385 0.001,0.008 0.005,0.0176 0.008,0.03 h -0.22013 l -0.01,-0.0208 c -0.003,-0.006 -0.006,-0.0113 -0.0106,-0.0162 -0.005,-0.006 -0.01,-0.0123 -0.0138,-0.0201 l -0.84419,-1.18039 z"
       style="fill:#009cde;fill-opacity:1;fill-rule:nonzero;stroke:none;stroke-width:0.352778"
       id="path1473" />
    <path
       d="m 162.92062,146.70457 v 0.12241 c -0.0155,-0.005 -0.0275,-0.009 -0.036,-0.0106 -0.008,-0.002 -0.0201,-0.002 -0.0349,-0.002 h -0.45297 v 0.57926 h 0.44203 c 0.0208,0 0.036,0 0.0448,-3.5e-4 0.01,-3.6e-4 0.0226,-0.003 0.0388,-0.006 v 0.12206 c -0.0155,-0.002 -0.0275,-0.005 -0.0363,-0.005 -0.009,-10e-4 -0.024,-10e-4 -0.0459,-10e-4 h -0.44344 v 0.5976 h 0.43956 c 0.0134,0 0.0258,-3.5e-4 0.0374,-0.002 0.0109,-0.001 0.0279,-0.004 0.0487,-0.009 v 0.13194 h -0.78705 c 0.003,-0.0138 0.005,-0.0254 0.007,-0.0356 0.001,-0.01 0.002,-0.0222 0.002,-0.037 v -1.37195 c 0,-0.0169 -7.1e-4,-0.03 -0.002,-0.0388 -0.002,-0.009 -0.004,-0.0205 -0.007,-0.0339 z"
       style="fill:#009cde;fill-opacity:1;fill-rule:nonzero;stroke:none;stroke-width:0.352778"
       id="path1477" />
    <path
       d="m 163.65958,148.08986 c 0.15593,0 0.27834,-0.0568 0.36689,-0.17004 0.0889,-0.1143 0.1337,-0.27129 0.1337,-0.47273 0,-0.0956 -0.0127,-0.18097 -0.0381,-0.25646 -0.0247,-0.0762 -0.061,-0.14041 -0.10795,-0.19403 -0.0473,-0.054 -0.10407,-0.0952 -0.17039,-0.12383 -0.0667,-0.0289 -0.14252,-0.0434 -0.22542,-0.0434 h -0.16616 v 1.26048 z m -0.002,-1.38536 c 0.11995,0 0.22754,0.0166 0.32315,0.0512 0.0956,0.0339 0.17638,0.0833 0.24341,0.14817 0.066,0.0639 0.11783,0.14252 0.15311,0.2353 0.0363,0.0921 0.0536,0.19579 0.0536,0.3115 0,0.11324 -0.0173,0.21767 -0.0522,0.31115 -0.0353,0.0945 -0.084,0.17533 -0.14676,0.24412 -0.0631,0.0677 -0.13758,0.12101 -0.22436,0.15875 -0.0864,0.0378 -0.18063,0.0572 -0.28399,0.0572 h -0.53234 c 0.006,-0.0254 0.009,-0.0504 0.009,-0.0727 v -1.37195 c 0,-0.0152 -0.001,-0.0279 -0.002,-0.0378 -0.002,-0.01 -0.004,-0.0215 -0.007,-0.0349 z"
       style="fill:#009cde;fill-opacity:1;fill-rule:nonzero;stroke:none;stroke-width:0.352778"
       id="path1481" />
    <path
       d="m 165.88889,146.70665 c -0.003,0.0138 -0.006,0.025 -0.007,0.0346 -0.001,0.009 -0.002,0.0215 -0.002,0.0385 v 0.94157 c 0,0.17004 -0.0522,0.29986 -0.15698,0.38911 -0.10407,0.0892 -0.25612,0.1337 -0.45508,0.1337 -0.11325,0 -0.20885,-0.0148 -0.28681,-0.0444 -0.0766,-0.0296 -0.14182,-0.0776 -0.19297,-0.14393 -0.0346,-0.0441 -0.0614,-0.0931 -0.0797,-0.14781 -0.0176,-0.0543 -0.0268,-0.11289 -0.0268,-0.17533 v -0.95286 c 0,-0.0229 -0.004,-0.0473 -0.009,-0.073 h 0.27058 c -0.003,0.0152 -0.005,0.0279 -0.007,0.0374 -0.001,0.01 -0.002,0.0215 -0.002,0.0356 v 0.9578 c 0,0.12241 0.0353,0.21731 0.10513,0.28504 0.0709,0.0677 0.17039,0.10125 0.29951,0.10125 0.13794,0 0.24412,-0.0356 0.31785,-0.10795 0.073,-0.072 0.11007,-0.17639 0.11007,-0.31256 v -0.92358 c 0,-0.0169 -0.001,-0.0303 -0.002,-0.0402 -0.002,-0.01 -0.004,-0.0205 -0.007,-0.0328 z"
       style="fill:#009cde;fill-opacity:1;fill-rule:nonzero;stroke:none;stroke-width:0.352778"
       id="path1485" />
    <path
       d="m 167.25798,146.95433 c -0.0663,-0.0554 -0.12594,-0.0945 -0.17991,-0.11606 -0.0526,-0.0208 -0.11289,-0.0314 -0.18168,-0.0314 -0.0769,0 -0.14711,0.0148 -0.20885,0.0455 -0.0628,0.0303 -0.115,0.073 -0.15839,0.12912 -0.0434,0.0561 -0.0766,0.12418 -0.10055,0.20426 -0.0229,0.0804 -0.0349,0.17074 -0.0349,0.27022 0,0.0998 0.0127,0.1905 0.0363,0.27023 0.025,0.0804 0.0589,0.14958 0.10265,0.20673 0.0441,0.0579 0.0977,0.10195 0.16052,0.133 0.0628,0.0314 0.13264,0.0466 0.21025,0.0466 0.0681,0 0.12841,-0.0116 0.18063,-0.0342 0.0526,-0.024 0.11077,-0.0649 0.17391,-0.12488 v 0.19967 c -0.0367,0.0169 -0.0691,0.0314 -0.10124,0.0434 -0.0307,0.0127 -0.0617,0.0219 -0.0921,0.0286 -0.0303,0.007 -0.0628,0.0116 -0.0956,0.0152 -0.0328,0.002 -0.0691,0.004 -0.10689,0.004 -0.23989,0 -0.42228,-0.067 -0.54963,-0.20214 -0.12665,-0.13547 -0.18979,-0.33126 -0.18979,-0.58914 0,-0.24871 0.0667,-0.43956 0.20073,-0.57221 0.13335,-0.13264 0.32455,-0.19861 0.57502,-0.19861 0.0702,0 0.13159,0.005 0.18557,0.0148 0.054,0.01 0.11183,0.0272 0.17391,0.0533 z"
       style="fill:#009cde;fill-opacity:1;fill-rule:nonzero;stroke:none;stroke-width:0.352778"
       id="path1489" />
    <path
       d="m 168.18643,147.63717 -0.24624,-0.68474 -0.23848,0.68474 z m -0.66922,0.52105 c -0.002,0.012 -0.005,0.0226 -0.007,0.0303 -0.001,0.009 -0.002,0.0194 -0.002,0.0332 h -0.14287 c 0.007,-0.0123 0.0138,-0.0226 0.0183,-0.0321 0.005,-0.009 0.01,-0.0194 0.0134,-0.0314 l 0.49565,-1.39911 c 0.004,-0.012 0.005,-0.0219 0.007,-0.0286 7.1e-4,-0.007 0.002,-0.0155 0.004,-0.0261 h 0.21837 c 0.002,0.0166 0.005,0.0335 0.012,0.0501 l 0.51153,1.4037 c 0.005,0.012 0.009,0.0219 0.0134,0.0296 0.005,0.007 0.013,0.0183 0.0229,0.0339 h -0.29598 c 0,-0.0123 -7.1e-4,-0.0222 -0.002,-0.031 -10e-4,-0.008 -0.004,-0.019 -0.009,-0.0325 l -0.14605,-0.41169 h -0.56374 z"
       style="fill:#009cde;fill-opacity:1;fill-rule:nonzero;stroke:none;stroke-width:0.352778"
       id="path1493" />
    <path
       d="m 169.84938,146.95433 c -0.067,-0.0554 -0.127,-0.0945 -0.17956,-0.11606 -0.0533,-0.0208 -0.1143,-0.0314 -0.18239,-0.0314 -0.0776,0 -0.1471,0.0148 -0.20919,0.0455 -0.0617,0.0303 -0.11466,0.073 -0.15805,0.12912 -0.0427,0.0561 -0.0765,0.12418 -0.10054,0.20426 -0.0233,0.0804 -0.0349,0.17074 -0.0349,0.27022 0,0.0998 0.0127,0.1905 0.036,0.27023 0.0243,0.0804 0.0582,0.14958 0.10231,0.20673 0.0448,0.0579 0.0977,0.10195 0.16086,0.133 0.0631,0.0314 0.13335,0.0466 0.21061,0.0466 0.0684,0 0.12806,-0.0116 0.18062,-0.0342 0.0526,-0.024 0.11042,-0.0649 0.17427,-0.12488 v 0.19967 c -0.0367,0.0169 -0.0705,0.0314 -0.1016,0.0434 -0.0307,0.0127 -0.0621,0.0219 -0.0921,0.0286 -0.0303,0.007 -0.0621,0.0116 -0.0945,0.0152 -0.0339,0.002 -0.0702,0.004 -0.1076,0.004 -0.24024,0 -0.42298,-0.067 -0.54998,-0.20214 -0.12594,-0.13547 -0.1898,-0.33126 -0.1898,-0.58914 0,-0.24871 0.0674,-0.43956 0.20073,-0.57221 0.133,-0.13264 0.32491,-0.19861 0.57538,-0.19861 0.0699,0 0.13159,0.005 0.18521,0.0148 0.0533,0.01 0.11183,0.0272 0.17427,0.0533 z"
       style="fill:#009cde;fill-opacity:1;fill-rule:nonzero;stroke:none;stroke-width:0.352778"
       id="path1497" />
    <path
       d="m 170.34719,146.70457 c -0.002,0.0116 -0.005,0.0229 -0.007,0.0328 -7.1e-4,0.01 -0.002,0.0229 -0.002,0.0399 v 1.37195 c 0,0.0166 0.001,0.03 0.002,0.0395 0.001,0.0102 0.004,0.0208 0.007,0.0332 h -0.27023 c 0.006,-0.0254 0.009,-0.0504 0.009,-0.0727 v -1.37195 c 0,-0.0226 -0.004,-0.0469 -0.009,-0.0727 z"
       style="fill:#009cde;fill-opacity:1;fill-rule:nonzero;stroke:none;stroke-width:0.352778"
       id="path1501" />
    <path
       d="m 171.38693,146.26568 h 0.19826 l -0.23918,0.35207 h -0.1136 z m -0.37923,0.70202 c -0.0804,0.11042 -0.12136,0.27235 -0.12136,0.48507 0,0.44768 0.15981,0.67099 0.47978,0.67099 0.15522,0 0.27269,-0.0565 0.35277,-0.16757 0.0804,-0.11183 0.12101,-0.27482 0.12101,-0.48966 0,-0.22084 -0.0406,-0.38629 -0.12101,-0.49777 -0.0801,-0.11112 -0.19896,-0.16651 -0.35489,-0.16651 -0.15628,0 -0.27481,0.0554 -0.3563,0.16545 m 0.9091,-0.0833 c 0.12912,0.13476 0.19403,0.32702 0.19403,0.5775 0,0.25329 -0.0649,0.44697 -0.19403,0.58137 -0.12841,0.13406 -0.31467,0.20073 -0.55668,0.20073 -0.24306,0 -0.42757,-0.0677 -0.55386,-0.20284 -0.12665,-0.13617 -0.19015,-0.33373 -0.19015,-0.59302 0,-0.11924 0.0166,-0.22719 0.0505,-0.32315 0.0346,-0.0953 0.0832,-0.17568 0.14711,-0.24059 0.0639,-0.0656 0.14146,-0.11536 0.23424,-0.15028 0.0924,-0.0349 0.19791,-0.0522 0.31609,-0.0522 0.23954,0 0.42439,0.067 0.5528,0.2025"
       style="fill:#009cde;fill-opacity:1;fill-rule:nonzero;stroke:none;stroke-width:0.352778"
       id="path1505" />
    <path
       d="m 172.48075,148.14912 c 0,0.0148 7.1e-4,0.0272 0.003,0.037 0.001,0.0102 0.004,0.0219 0.007,0.0356 h -0.13441 c 0.006,-0.0254 0.009,-0.0504 0.009,-0.0727 v -1.37195 c 0,-0.0138 -0.001,-0.0254 -0.002,-0.0349 -0.002,-0.0106 -0.004,-0.0226 -0.007,-0.0377 h 0.2413 c 0.004,0.0106 0.005,0.0183 0.008,0.024 0.002,0.005 0.009,0.0148 0.019,0.0282 l 0.82832,1.16064 v -1.14018 c 0,-0.0243 -0.003,-0.0483 -0.009,-0.0727 h 0.13406 c -0.002,0.0116 -0.005,0.0226 -0.007,0.0318 -0.001,0.009 -0.002,0.0229 -0.002,0.0409 v 1.37619 c 0,0.018 0.001,0.0314 0.002,0.0385 0.002,0.008 0.005,0.0176 0.01,0.03 h -0.22119 l -0.008,-0.0208 c -0.004,-0.006 -0.007,-0.0113 -0.012,-0.0162 -0.004,-0.006 -0.008,-0.0123 -0.0131,-0.0201 l -0.84455,-1.18039 z"
       style="fill:#009cde;fill-opacity:1;fill-rule:nonzero;stroke:none;stroke-width:0.352778"
       id="path1509" />
    <path
       d="m 173.6185,149.14494 h -25.23914 v -0.12453 h 25.23914 z"
       style="fill:#009cde;fill-opacity:1;fill-rule:nonzero;stroke:none;stroke-width:0.352778"
       id="path1511" />
    <path
       d="m 173.6185,146.04897 h -25.23914 v -0.12418 h 25.23914 z"
       style="fill:#009cde;fill-opacity:1;fill-rule:nonzero;stroke:none;stroke-width:0.352778"
       id="path1513" />
    <path
       d="m 156.35324,136.57014 c -0.0625,-0.0582 -0.13935,-0.0854 -0.23425,-0.0854 -0.13088,0 -0.248,0.0519 -0.35066,0.15769 -0.1016,0.10231 -0.17992,0.24942 -0.23389,0.43921 h 0.92816 c 0.006,-0.0639 0.0109,-0.11536 0.0109,-0.15028 0,-0.037 -0.004,-0.0751 -0.008,-0.11924 -0.0116,-0.10407 -0.0512,-0.1845 -0.11218,-0.24201"
       style="fill:#009cde;fill-opacity:1;fill-rule:nonzero;stroke:none;stroke-width:0.352778"
       id="path1517" />
    <path
       d="m 169.96996,136.57014 c -0.0617,-0.0582 -0.13864,-0.0854 -0.23424,-0.0854 -0.13088,0 -0.24765,0.0519 -0.34925,0.15769 -0.10231,0.10231 -0.18133,0.24942 -0.23495,0.43921 h 0.92781 c 0.006,-0.0639 0.0106,-0.11536 0.0106,-0.15028 0,-0.037 -0.003,-0.0751 -0.007,-0.11924 -0.0138,-0.10407 -0.0508,-0.1845 -0.11289,-0.24201"
       style="fill:#009cde;fill-opacity:1;fill-rule:nonzero;stroke:none;stroke-width:0.352778"
       id="path1521" />
    <path
       d="m 160.50388,137.18094 c -0.0529,0.0191 -0.1076,0.0367 -0.16263,0.0565 -0.0529,0.019 -0.10972,0.0409 -0.16898,0.0632 -0.25083,0.0882 -0.39476,0.23107 -0.4318,0.43285 -0.0187,0.10372 -0.006,0.18733 0.0413,0.25048 0.048,0.0621 0.11748,0.0928 0.21202,0.0928 0.0596,0 0.11818,-0.0116 0.17463,-0.0335 0.0564,-0.0233 0.10795,-0.054 0.15381,-0.0914 0.0455,-0.0413 0.084,-0.0878 0.11571,-0.14217 0.0314,-0.0533 0.0533,-0.109 0.0639,-0.17003 l 0.0945,-0.50483 c -0.0131,0.009 -0.0289,0.018 -0.0448,0.0247 -0.0159,0.007 -0.031,0.0145 -0.0476,0.0215"
       style="fill:#009cde;fill-opacity:1;fill-rule:nonzero;stroke:none;stroke-width:0.352778"
       id="path1525" />
    <path
       d="m 164.90704,137.18094 c -0.0519,0.0191 -0.10583,0.0367 -0.16087,0.0565 -0.0529,0.019 -0.10936,0.0409 -0.16933,0.0632 -0.25047,0.0882 -0.39547,0.23107 -0.43074,0.43285 -0.0205,0.10372 -0.006,0.18733 0.0406,0.25048 0.048,0.0621 0.11641,0.0928 0.21096,0.0928 0.06,0 0.11853,-0.0116 0.17603,-0.0335 0.0565,-0.0233 0.10866,-0.054 0.15276,-0.0914 0.0462,-0.0413 0.085,-0.0878 0.11535,-0.14217 0.0335,-0.0533 0.0561,-0.109 0.0653,-0.17003 l 0.0942,-0.50483 c -0.0138,0.009 -0.0286,0.018 -0.0455,0.0247 -0.0155,0.007 -0.0318,0.0145 -0.0487,0.0215"
       style="fill:#009cde;fill-opacity:1;fill-rule:nonzero;stroke:none;stroke-width:0.352778"
       id="path1529" />
    <path
       d="m 166.83525,136.54016 c -0.0709,0 -0.14428,0.0208 -0.21802,0.0617 -0.073,0.042 -0.13899,0.0991 -0.19861,0.17463 -0.042,0.0487 -0.0762,0.11077 -0.10336,0.1845 -0.0268,0.0762 -0.0515,0.16863 -0.0713,0.28081 -0.0296,0.16299 -0.0494,0.28999 -0.061,0.37642 -0.0127,0.0861 -0.0176,0.14887 -0.0166,0.18309 0.005,0.0903 0.0416,0.16722 0.11113,0.22825 0.0674,0.061 0.15064,0.0914 0.24553,0.0914 0.14641,0 0.26917,-0.0699 0.3683,-0.21026 0.0984,-0.14041 0.17322,-0.34572 0.22155,-0.61666 0.0437,-0.2413 0.042,-0.42686 -0.006,-0.55703 -0.0483,-0.13159 -0.13864,-0.19685 -0.27199,-0.19685"
       style="fill:#009cde;fill-opacity:1;fill-rule:nonzero;stroke:none;stroke-width:0.352778"
       id="path1533" />
    <path
       d="m 152.05376,136.5481 c -0.0688,0 -0.13829,0.0169 -0.20673,0.0519 -0.0677,0.0317 -0.12559,0.0773 -0.17321,0.13441 -0.0275,0.0325 -0.054,0.067 -0.0752,0.1009 -0.0215,0.0384 -0.0399,0.079 -0.0568,0.12417 -0.018,0.0466 -0.0325,0.10019 -0.0483,0.16087 -0.0141,0.0607 -0.03,0.13441 -0.0445,0.21802 -0.0152,0.0871 -0.0279,0.16157 -0.0346,0.22507 -0.006,0.0649 -0.007,0.12171 -0.006,0.17004 0.004,0.0497 0.008,0.0935 0.0205,0.13264 0.01,0.0377 0.0257,0.0755 0.0459,0.11042 0.0607,0.096 0.15099,0.14464 0.27164,0.14464 0.14217,0 0.26282,-0.0674 0.36336,-0.20531 0.10089,-0.13512 0.17357,-0.33691 0.22154,-0.60043 0.0935,-0.51153 0,-0.76729 -0.27763,-0.76729"
       style="fill:#009cde;fill-opacity:1;fill-rule:nonzero;stroke:none;stroke-width:0.352778"
       id="path1537" />
    <path
       d="m 146.91643,136.51194 c -0.14852,0 -0.2727,0.0684 -0.3743,0.20567 -0.10266,0.13864 -0.17639,0.33866 -0.22401,0.5976 -0.0924,0.51188 0.005,0.76835 0.29386,0.76835 0.0727,0 0.14111,-0.018 0.20744,-0.054 0.0684,-0.036 0.12453,-0.084 0.17109,-0.14641 0.0512,-0.0734 0.0963,-0.15557 0.12983,-0.2487 0.0353,-0.0942 0.0642,-0.20885 0.0892,-0.34925 0.0462,-0.25542 0.0452,-0.4498 -0.005,-0.57891 -0.049,-0.12983 -0.1457,-0.19438 -0.28822,-0.19438"
       style="fill:#009cde;fill-opacity:1;fill-rule:nonzero;stroke:none;stroke-width:0.352778"
       id="path1541" />
    <path
       d="m 176.28518,136.67555 c -0.0825,-0.0684 -0.15734,-0.11747 -0.22578,-0.1464 -0.0684,-0.03 -0.1404,-0.0444 -0.21696,-0.0444 -0.10654,0 -0.19861,0.0272 -0.27446,0.0836 -0.0801,0.0568 -0.12453,0.12876 -0.14005,0.2159 -0.008,0.0356 -0.008,0.0691 -0.002,0.0956 0.007,0.0282 0.0233,0.054 0.0476,0.0797 0.0264,0.024 0.0621,0.0494 0.11147,0.0744 0.0497,0.0257 0.1136,0.0529 0.19191,0.0854 0.0949,0.0402 0.17357,0.0804 0.23284,0.11818 0.0624,0.0385 0.11006,0.0822 0.14323,0.12735 0.0342,0.0452 0.0561,0.0974 0.0646,0.15346 0.007,0.0561 0.006,0.11783 -0.007,0.18697 -0.0353,0.1898 -0.12947,0.34079 -0.28257,0.45226 -0.15452,0.11289 -0.34608,0.16898 -0.57433,0.16898 -0.11712,0 -0.22048,-0.0137 -0.31009,-0.037 -0.0885,-0.0247 -0.1845,-0.0684 -0.28575,-0.12735 l 0.1143,-0.26529 c 0.0945,0.0882 0.17886,0.14923 0.2533,0.18592 0.0762,0.0356 0.16369,0.0547 0.26282,0.0547 0.11147,0 0.20778,-0.0318 0.28786,-0.0931 0.0797,-0.0593 0.12912,-0.13899 0.14746,-0.23177 0.006,-0.0406 0.007,-0.0755 0,-0.10725 -0.007,-0.0307 -0.0257,-0.0593 -0.0547,-0.0871 -0.03,-0.0265 -0.073,-0.0564 -0.12841,-0.0864 -0.0557,-0.0289 -0.12982,-0.0653 -0.22154,-0.10266 -0.15593,-0.0653 -0.26423,-0.14147 -0.32491,-0.2286 -0.0572,-0.0882 -0.0755,-0.19332 -0.0522,-0.32174 0.0155,-0.0825 0.0462,-0.16121 0.0914,-0.23248 0.048,-0.0698 0.10442,-0.12982 0.17533,-0.17885 0.0688,-0.0519 0.14781,-0.0896 0.23777,-0.11783 0.0907,-0.03 0.18591,-0.0445 0.28751,-0.0445 0.0942,0 0.18662,0.0116 0.27729,0.0325 0.091,0.0219 0.18415,0.054 0.28046,0.0952 z m -1.64712,1.55329 c -0.0646,0.037 -0.11783,0.0635 -0.16369,0.0762 -0.0437,0.0138 -0.0921,0.0215 -0.14182,0.0215 -0.0942,0 -0.16263,-0.0215 -0.20355,-0.0653 -0.0416,-0.0434 -0.0646,-0.12065 -0.0705,-0.2293 -0.10831,0.10689 -0.21096,0.18415 -0.31115,0.22648 -0.10055,0.0455 -0.21202,0.0681 -0.33761,0.0681 -0.16087,0 -0.28046,-0.0515 -0.35772,-0.15169 -0.078,-0.10054 -0.10195,-0.23319 -0.0691,-0.40428 0.0356,-0.20885 0.14499,-0.36724 0.32208,-0.47237 0.0381,-0.0233 0.0727,-0.0427 0.10478,-0.0565 0.031,-0.0152 0.0691,-0.0307 0.11395,-0.0469 0.0448,-0.0166 0.10124,-0.0353 0.17145,-0.0561 0.0684,-0.0212 0.16227,-0.0476 0.27551,-0.079 0.0963,-0.0272 0.16899,-0.0628 0.21273,-0.10442 0.0462,-0.0402 0.0751,-0.0945 0.0878,-0.16722 0.0152,-0.0818 -0.005,-0.14922 -0.061,-0.20108 -0.0557,-0.0512 -0.13547,-0.0751 -0.23954,-0.0751 -0.0448,0 -0.0889,0.003 -0.12735,0.01 -0.0402,0.004 -0.0822,0.0162 -0.12312,0.0328 -0.0416,0.0159 -0.085,0.0377 -0.13264,0.0624 -0.0466,0.0272 -0.10054,0.0596 -0.1584,0.0998 l -0.0159,-0.24906 c 0.0734,-0.0318 0.13934,-0.055 0.19826,-0.0776 0.0575,-0.0205 0.115,-0.0374 0.16757,-0.0508 0.055,-0.0123 0.10971,-0.0212 0.16333,-0.025 0.0543,-0.006 0.11289,-0.009 0.17463,-0.009 0.20214,0 0.34819,0.0395 0.44273,0.11783 0.0935,0.079 0.12877,0.18803 0.10231,0.33055 l -0.20814,1.1564 c -0.0205,0.10866 0.007,0.16263 0.0861,0.16263 0.0198,0 0.037,-0.003 0.0536,-0.01 0.0159,-0.009 0.0444,-0.0233 0.0815,-0.0473 z m -1.95192,0.0222 c -0.0646,0.0289 -0.12347,0.048 -0.17568,0.0582 -0.0526,0.0102 -0.10901,0.0173 -0.16546,0.0173 -0.12911,0 -0.21766,-0.031 -0.2667,-0.0928 -0.048,-0.06 -0.0607,-0.15592 -0.0363,-0.28786 l 0.25541,-1.41676 h -0.28681 l 0.0321,-0.1778 h 0.28646 l 0.0677,-0.37324 0.39899,-0.0459 c -0.0145,0.0522 -0.0236,0.0871 -0.0265,0.10266 -0.002,0.0148 -0.004,0.0275 -0.006,0.0402 l -0.0515,0.27622 h 0.31009 l -0.0335,0.1778 h -0.30832 l -0.254,1.409 c -0.0215,0.11535 0.0162,0.1725 0.11359,0.1725 0.0251,0 0.0505,-0.005 0.0699,-0.0102 0.0212,-0.007 0.0603,-0.0236 0.11218,-0.0504 z m -0.87947,-1.64641 -0.0632,-0.005 c -0.13476,0 -0.24836,0.0423 -0.33726,0.12347 -0.0441,0.0402 -0.0787,0.0854 -0.10265,0.13653 -0.0247,0.0508 -0.0437,0.11712 -0.0589,0.19967 l -0.20002,1.11407 c -0.005,0.024 -0.007,0.0455 -0.008,0.06 0,0.0173 0,0.0367 0.001,0.0586 h -0.41381 c 0.01,-0.0233 0.0169,-0.0448 0.0222,-0.0617 0.005,-0.0145 0.01,-0.0349 0.0138,-0.0568 l 0.30832,-1.70462 c 0.004,-0.024 0.006,-0.0441 0.006,-0.0607 v -0.0572 h 0.39088 l -0.0448,0.24589 c 0.0533,-0.0998 0.12135,-0.17145 0.20425,-0.21696 0.0819,-0.0441 0.19474,-0.0691 0.33585,-0.0751 z m -1.3522,0.64911 h -1.34585 c -0.0102,0.0607 -0.0187,0.11641 -0.024,0.16228 -0.008,0.048 -0.0106,0.0899 -0.0106,0.12946 0,0.0374 0,0.0755 0.002,0.1076 0.004,0.0349 0.007,0.0692 0.0138,0.10725 0.0452,0.25294 0.21061,0.37853 0.49707,0.37853 0.10372,0 0.20355,-0.0159 0.29598,-0.0501 0.0928,-0.0353 0.19332,-0.0928 0.30268,-0.17286 l 0.0159,0.24624 c -0.0677,0.0307 -0.13124,0.0557 -0.18768,0.0762 -0.0582,0.0219 -0.11465,0.0385 -0.16828,0.0519 -0.0543,0.0148 -0.10971,0.0226 -0.16545,0.0286 -0.0547,0.004 -0.11253,0.008 -0.17568,0.008 -0.3175,0 -0.5454,-0.0857 -0.68298,-0.25682 -0.13794,-0.17286 -0.1785,-0.41804 -0.12065,-0.73907 0.0289,-0.15839 0.0744,-0.30303 0.13935,-0.42721 0.0635,-0.127 0.14217,-0.2353 0.23601,-0.32315 0.0942,-0.0885 0.20179,-0.15628 0.32102,-0.2032 0.12101,-0.048 0.25189,-0.072 0.39406,-0.072 0.25823,0 0.44485,0.0825 0.55668,0.24447 0.11395,0.16263 0.14852,0.39794 0.10654,0.70415 m -1.87854,-1.25307 c -0.0102,0.0536 -0.0381,0.0974 -0.0854,0.13088 -0.048,0.0325 -0.10901,0.0469 -0.18063,0.0469 -0.078,0 -0.13441,-0.0145 -0.16968,-0.0462 -0.0381,-0.03 -0.0515,-0.0741 -0.0409,-0.13159 0.0102,-0.0529 0.0392,-0.0952 0.0882,-0.12735 0.0508,-0.0335 0.11007,-0.048 0.18239,-0.048 0.0741,0 0.13017,0.0145 0.1658,0.0462 0.037,0.0307 0.0505,0.0744 0.0402,0.12912 m -0.12206,0.41169 c -0.006,0.0152 -0.0106,0.0349 -0.0138,0.0568 l -0.30727,1.70462 c -0.005,0.0219 -0.008,0.0423 -0.008,0.0568 -3.6e-4,0.0169 -3.6e-4,0.0384 0,0.0617 h -0.41346 c 0.009,-0.0219 0.0159,-0.0413 0.0222,-0.0586 0.005,-0.0145 0.0106,-0.036 0.0141,-0.06 l 0.30797,-1.70462 c 0.004,-0.024 0.007,-0.0441 0.008,-0.0607 0,-0.0155 0,-0.0356 -0.001,-0.0572 h 0.41345 c -0.009,0.024 -0.0169,0.0445 -0.0226,0.061 m -0.94404,0.87313 c -0.0279,0.16157 -0.073,0.30797 -0.13158,0.43427 -0.06,0.12841 -0.13088,0.23777 -0.2152,0.32632 -0.085,0.0914 -0.17991,0.16051 -0.28645,0.20849 -0.10725,0.0483 -0.22049,0.072 -0.3429,0.072 -0.11713,0 -0.21661,-0.0215 -0.29493,-0.0617 -0.0776,-0.042 -0.15134,-0.11042 -0.22083,-0.20779 l -0.15029,0.23531 h -0.20284 c 0.008,-0.0201 0.0148,-0.0377 0.0205,-0.054 0.005,-0.0166 0.0113,-0.037 0.0162,-0.0646 l 0.43992,-2.44228 c 0.004,-0.0215 0.007,-0.0416 0.007,-0.0579 v -0.0614 h 0.41311 c -0.009,0.0233 -0.0173,0.0416 -0.0219,0.0572 -0.006,0.0169 -0.01,0.0377 -0.0152,0.0621 l -0.16086,0.8883 c 0.11465,-0.11783 0.21555,-0.19968 0.30903,-0.24518 0.0935,-0.0455 0.19756,-0.0695 0.31362,-0.0695 0.21555,0 0.37218,0.0878 0.46567,0.26141 0.0942,0.17321 0.11394,0.41451 0.0579,0.71896 m -2.08421,0.94333 c -0.0635,0.037 -0.11641,0.0635 -0.16298,0.0762 -0.0423,0.0138 -0.0921,0.0215 -0.14252,0.0215 -0.0942,0 -0.16122,-0.0215 -0.20285,-0.0653 -0.042,-0.0434 -0.0649,-0.12065 -0.0692,-0.2293 -0.109,0.10689 -0.21307,0.18415 -0.31256,0.22648 -0.10019,0.0455 -0.21166,0.0681 -0.33902,0.0681 -0.16122,0 -0.2794,-0.0515 -0.35701,-0.15169 -0.0773,-0.10054 -0.10019,-0.23319 -0.0702,-0.40428 0.0388,-0.20885 0.1464,-0.36724 0.32279,-0.47237 0.0381,-0.0233 0.0748,-0.0427 0.10478,-0.0565 0.0317,-0.0152 0.0705,-0.0307 0.11536,-0.0469 0.0455,-0.0166 0.10054,-0.0353 0.17145,-0.0561 0.0684,-0.0212 0.1598,-0.0476 0.27516,-0.079 0.0977,-0.0272 0.16863,-0.0628 0.21379,-0.10442 0.0459,-0.0402 0.0755,-0.0945 0.0885,-0.16722 0.0141,-0.0818 -0.006,-0.14922 -0.061,-0.20108 -0.0593,-0.0512 -0.13829,-0.0751 -0.2413,-0.0751 -0.0455,0 -0.0875,0.003 -0.12876,0.01 -0.0402,0.004 -0.0808,0.0162 -0.12312,0.0328 -0.0409,0.0159 -0.0843,0.0377 -0.13159,0.0624 -0.0459,0.0272 -0.0991,0.0596 -0.15769,0.0998 l -0.0155,-0.24906 c 0.0727,-0.0318 0.13935,-0.055 0.19544,-0.0776 0.06,-0.0205 0.11606,-0.0374 0.17074,-0.0508 0.0547,-0.0123 0.10901,-0.0212 0.16263,-0.025 0.054,-0.006 0.11254,-0.009 0.17427,-0.009 0.20144,0 0.34749,0.0395 0.44274,0.11783 0.0931,0.079 0.12771,0.18803 0.10195,0.33055 l -0.20778,1.1564 c -0.0212,0.10866 0.01,0.16263 0.085,0.16263 0.0208,0 0.0399,-0.003 0.0543,-0.01 0.0159,-0.009 0.0441,-0.0233 0.0833,-0.0473 z m -2.7566,-1.55329 c -0.0836,-0.0684 -0.15734,-0.11747 -0.22578,-0.1464 -0.0681,-0.03 -0.14005,-0.0444 -0.21731,-0.0444 -0.10654,0 -0.19791,0.0272 -0.27517,0.0836 -0.0776,0.0568 -0.12382,0.12876 -0.1404,0.2159 -0.006,0.0356 -0.006,0.0691 0,0.0956 0.007,0.0282 0.0208,0.054 0.0469,0.0797 0.0247,0.024 0.0628,0.0494 0.11078,0.0744 0.0501,0.0257 0.11289,0.0529 0.19261,0.0854 0.0935,0.0402 0.17145,0.0804 0.23248,0.11818 0.0621,0.0385 0.10972,0.0822 0.14358,0.12735 0.0332,0.0452 0.0557,0.0974 0.0635,0.15346 0.009,0.0561 0.007,0.11783 -0.006,0.18697 -0.0346,0.1898 -0.12947,0.34079 -0.28257,0.45226 -0.15417,0.11289 -0.34608,0.16898 -0.57539,0.16898 -0.11676,0 -0.21907,-0.0137 -0.30832,-0.037 -0.091,-0.0247 -0.18592,-0.0684 -0.28858,-0.12735 l 0.11607,-0.26529 c 0.0938,0.0882 0.17956,0.14923 0.254,0.18592 0.0751,0.0356 0.16192,0.0547 0.26176,0.0547 0.11112,0 0.20814,-0.0318 0.28787,-0.0931 0.0808,-0.0593 0.13017,-0.13899 0.1464,-0.23177 0.008,-0.0406 0.008,-0.0755 10e-4,-0.10725 -0.006,-0.0307 -0.0243,-0.0593 -0.055,-0.0871 -0.0296,-0.0265 -0.0727,-0.0564 -0.12805,-0.0864 -0.0557,-0.0289 -0.12947,-0.0653 -0.2219,-0.10266 -0.15734,-0.0653 -0.26423,-0.14147 -0.3235,-0.2286 -0.0593,-0.0882 -0.0765,-0.19332 -0.0536,-0.32174 0.0155,-0.0825 0.0476,-0.16121 0.0921,-0.23248 0.0473,-0.0698 0.10443,-0.12982 0.17392,-0.17885 0.0702,-0.0519 0.14993,-0.0896 0.2406,-0.11783 0.09,-0.03 0.1845,-0.0445 0.2861,-0.0445 0.0945,0 0.18733,0.0116 0.27728,0.0325 0.0893,0.0219 0.18415,0.054 0.28082,0.0952 z m -1.64783,1.55329 c -0.0635,0.037 -0.11712,0.0635 -0.16228,0.0762 -0.0455,0.0138 -0.0917,0.0215 -0.14181,0.0215 -0.0952,0 -0.16404,-0.0215 -0.20567,-0.0653 -0.0406,-0.0434 -0.0635,-0.12065 -0.0695,-0.2293 -0.1076,0.10689 -0.21202,0.18415 -0.31221,0.22648 -0.0991,0.0455 -0.21131,0.0681 -0.3362,0.0681 -0.16227,0 -0.28045,-0.0515 -0.35877,-0.15169 -0.0773,-0.10054 -0.10054,-0.23319 -0.0699,-0.40428 0.0381,-0.20885 0.1457,-0.36724 0.32385,-0.47237 0.0385,-0.0233 0.0734,-0.0427 0.10477,-0.0565 0.0296,-0.0152 0.0688,-0.0307 0.11395,-0.0469 0.0452,-0.0166 0.1016,-0.0353 0.1711,-0.0561 0.0677,-0.0212 0.16122,-0.0476 0.27622,-0.079 0.096,-0.0272 0.16652,-0.0628 0.21238,-0.10442 0.0466,-0.0402 0.0741,-0.0945 0.0875,-0.16722 0.0145,-0.0818 -0.004,-0.14922 -0.0603,-0.20108 -0.0561,-0.0512 -0.13688,-0.0751 -0.24059,-0.0751 -0.0441,0 -0.0878,0.003 -0.12806,0.01 -0.0402,0.004 -0.0815,0.0162 -0.12206,0.0328 -0.0413,0.0159 -0.0854,0.0377 -0.13335,0.0624 -0.0462,0.0272 -0.0991,0.0596 -0.1577,0.0998 l -0.0145,-0.24906 c 0.072,-0.0318 0.13653,-0.055 0.19544,-0.0776 0.0582,-0.0205 0.11536,-0.0374 0.16969,-0.0508 0.0533,-0.0123 0.10759,-0.0212 0.16263,-0.025 0.055,-0.006 0.11183,-0.009 0.17603,-0.009 0.20003,0 0.34714,0.0395 0.44239,0.11783 0.0921,0.079 0.12735,0.18803 0.1023,0.33055 l -0.20955,1.1564 c -0.0201,0.10866 0.008,0.16263 0.0868,0.16263 0.0205,0 0.0367,-0.003 0.0526,-0.01 0.0162,-0.009 0.0448,-0.0233 0.0832,-0.0473 z m -1.95227,0.0222 c -0.0639,0.0289 -0.12136,0.048 -0.17604,0.0582 -0.0511,0.0102 -0.10689,0.0173 -0.16404,0.0173 -0.12947,0 -0.21872,-0.031 -0.2667,-0.0928 -0.0483,-0.06 -0.0607,-0.15592 -0.0374,-0.28786 l 0.25576,-1.41676 h -0.28716 l 0.0328,-0.1778 h 0.28716 l 0.0677,-0.37324 0.39794,-0.0459 c -0.0148,0.0522 -0.0236,0.0871 -0.0258,0.10266 -0.002,0.0148 -0.005,0.0275 -0.008,0.0402 l -0.0501,0.27622 h 0.31079 l -0.0325,0.1778 h -0.30974 l -0.254,1.409 c -0.0215,0.11535 0.0162,0.1725 0.11289,0.1725 0.0268,0 0.0505,-0.005 0.0716,-0.0102 0.0208,-0.007 0.0575,-0.0236 0.11183,-0.0504 z m -0.87806,-1.64641 -0.0635,-0.005 c -0.13582,0 -0.24765,0.0423 -0.33867,0.12347 -0.0441,0.0402 -0.0773,0.0854 -0.1009,0.13653 -0.0247,0.0508 -0.0445,0.11712 -0.0596,0.19967 l -0.20037,1.11407 c -0.006,0.024 -0.008,0.0455 -0.008,0.06 0,0.0173 0,0.0367 0.002,0.0586 h -0.41452 c 0.0102,-0.0233 0.0159,-0.0448 0.0229,-0.0617 0.005,-0.0145 0.0102,-0.0349 0.0141,-0.0568 l 0.30763,-1.70462 c 0.004,-0.024 0.007,-0.0441 0.007,-0.0607 0,-0.0155 0,-0.0356 -0.001,-0.0572 h 0.39159 l -0.0448,0.24589 c 0.0533,-0.0998 0.1203,-0.17145 0.2032,-0.21696 0.0836,-0.0441 0.19474,-0.0691 0.33691,-0.0751 z m -1.35326,0.64911 h -1.34549 c -0.01,0.0607 -0.019,0.11641 -0.0247,0.16228 -0.006,0.048 -0.01,0.0899 -0.0113,0.12946 0,0.0374 0,0.0755 0.004,0.1076 0.003,0.0349 0.007,0.0692 0.0134,0.10725 0.0455,0.25294 0.2106,0.37853 0.49671,0.37853 0.10477,0 0.20179,-0.0159 0.29633,-0.0501 0.0928,-0.0353 0.19438,-0.0928 0.30339,-0.17286 l 0.0138,0.24624 c -0.0663,0.0307 -0.12947,0.0557 -0.18627,0.0762 -0.0568,0.0219 -0.11289,0.0385 -0.16792,0.0519 -0.0561,0.0148 -0.11007,0.0226 -0.16475,0.0286 -0.0557,0.004 -0.11536,0.008 -0.17604,0.008 -0.3182,0 -0.5468,-0.0857 -0.68333,-0.25682 -0.13793,-0.17286 -0.17921,-0.41804 -0.121,-0.73907 0.0289,-0.15839 0.0744,-0.30303 0.14041,-0.42721 0.0631,-0.127 0.14181,-0.2353 0.2353,-0.32315 0.0945,-0.0885 0.20249,-0.15628 0.32138,-0.2032 0.12171,-0.048 0.25153,-0.072 0.39194,-0.072 0.25929,0 0.4452,0.0825 0.55844,0.24447 0.11395,0.16263 0.14958,0.39794 0.10619,0.70415 m -1.97661,-0.85267 c -0.005,0.0155 -0.0109,0.0374 -0.0159,0.0663 l -0.30656,1.70391 c -0.007,0.0377 -0.01,0.0773 -0.007,0.12101 h -0.39123 l 0.048,-0.26917 c -0.1009,0.11183 -0.19932,0.19014 -0.29457,0.2353 -0.0952,0.0455 -0.20743,0.0681 -0.33937,0.0681 -0.19897,0 -0.34361,-0.0515 -0.42933,-0.15522 -0.0875,-0.10336 -0.11289,-0.25082 -0.0773,-0.4452 l 0.22683,-1.25871 c 0.007,-0.0416 0.009,-0.0797 0.006,-0.1196 h 0.41346 c -0.008,0.0215 -0.0155,0.0413 -0.0208,0.0564 -0.006,0.0159 -0.0113,0.037 -0.0159,0.0632 l -0.21943,1.21743 c -0.0219,0.11959 -0.007,0.21026 0.0452,0.2727 0.0515,0.0624 0.13546,0.0924 0.25329,0.0924 0.133,0 0.24659,-0.0367 0.34114,-0.11183 0.0924,-0.0744 0.15099,-0.17357 0.17215,-0.29881 l 0.21308,-1.17192 c 0.004,-0.0261 0.005,-0.0473 0.006,-0.0632 0,-0.0152 0,-0.0349 -7.1e-4,-0.0564 h 0.41346 c -0.007,0.018 -0.0138,0.036 -0.0205,0.0533 m -2.13113,0.89288 c -0.0603,0.33691 -0.17957,0.59761 -0.3609,0.78282 -0.0769,0.0794 -0.16721,0.14111 -0.26846,0.1845 -0.10266,0.0437 -0.20673,0.0653 -0.31362,0.0653 -0.10724,0 -0.19685,-0.0201 -0.27058,-0.0607 -0.0727,-0.0392 -0.13688,-0.10196 -0.19368,-0.18909 l -0.12241,0.67839 c -0.004,0.0236 -0.006,0.0448 -0.007,0.0614 -0.001,0.0152 0,0.0349 0.001,0.0586 h -0.41416 c 0.0162,-0.0409 0.0293,-0.0815 0.0381,-0.11994 l 0.40957,-2.286 c 0.005,-0.0219 0.007,-0.0416 0.008,-0.0568 0,-0.0166 0,-0.037 -0.002,-0.061 h 0.39582 l -0.0494,0.27376 c 0.17145,-0.21273 0.37888,-0.31997 0.62124,-0.31997 0.0938,0 0.18098,0.0205 0.25824,0.06 0.0758,0.0409 0.1397,0.0956 0.18803,0.16828 0.0607,0.0889 0.0967,0.19685 0.11042,0.31644 0.013,0.12241 0.002,0.26952 -0.0293,0.44414 m -3.01908,-0.0402 h -1.34443 c -0.0109,0.0607 -0.0205,0.11641 -0.0258,0.16228 -0.006,0.048 -0.009,0.0899 -0.0102,0.12946 0,0.0374 0,0.0755 0.004,0.1076 10e-4,0.0349 0.006,0.0692 0.0117,0.10725 0.0459,0.25294 0.21096,0.37853 0.49635,0.37853 0.10513,0 0.20356,-0.0159 0.29634,-0.0501 0.0935,-0.0353 0.19438,-0.0928 0.30409,-0.17286 l 0.0155,0.24624 c -0.0691,0.0307 -0.13088,0.0557 -0.18803,0.0762 -0.0575,0.0219 -0.11359,0.0385 -0.16686,0.0519 -0.0557,0.0148 -0.10971,0.0226 -0.16686,0.0286 -0.0557,0.004 -0.11289,0.008 -0.17533,0.008 -0.31786,0 -0.54575,-0.0857 -0.68439,-0.25682 -0.13759,-0.17286 -0.1778,-0.41804 -0.11995,-0.73907 0.03,-0.15839 0.0762,-0.30303 0.1397,-0.42721 0.0628,-0.127 0.14217,-0.2353 0.23777,-0.32315 0.0931,-0.0885 0.20179,-0.15628 0.32068,-0.2032 0.1203,-0.048 0.25188,-0.072 0.39264,-0.072 0.25753,0 0.44415,0.0825 0.55704,0.24447 0.11359,0.16263 0.14887,0.39794 0.10618,0.70415 m -1.85631,-1.52224 -0.44027,2.44228 c -0.005,0.0219 -0.006,0.0423 -0.007,0.0568 0,0.0169 0,0.0384 0.001,0.0617 h -0.39546 l 0.0522,-0.28293 c -0.10619,0.11677 -0.20355,0.19791 -0.29351,0.24518 -0.09,0.0483 -0.19826,0.072 -0.32491,0.072 -0.10936,0 -0.2032,-0.0226 -0.28328,-0.0695 -0.0776,-0.0462 -0.14182,-0.11219 -0.18556,-0.20003 -0.0452,-0.0864 -0.073,-0.19156 -0.0822,-0.31573 -0.01,-0.12418 0,-0.26494 0.0272,-0.42157 0.0579,-0.31927 0.16968,-0.56621 0.33372,-0.74613 0.16369,-0.1778 0.36548,-0.26846 0.60325,-0.26846 0.11642,0 0.21061,0.0205 0.28328,0.06 0.0709,0.0409 0.13159,0.10407 0.18098,0.1905 l 0.14887,-0.82409 c 0.004,-0.0243 0.006,-0.0451 0.006,-0.0621 0.001,-0.0155 0,-0.0339 0,-0.0572 h 0.4124 c -0.0162,0.0413 -0.0286,0.0804 -0.0367,0.11924 m 29.14967,-1.72755 h -30.486 c -1.07914,0 -2.11666,1.31233 -2.30681,2.39077 l -0.23495,1.76636 c -0.18909,1.0788 0.53658,2.00378 1.61431,2.00378 h 30.48741 c 1.07738,0 2.11596,-0.92498 2.30717,-2.00378 l 0.23565,-1.76636 c 0.18838,-1.07844 -0.53798,-2.39077 -1.61678,-2.39077"
       style="fill:#009cde;fill-opacity:1;fill-rule:nonzero;stroke:none;stroke-width:0.352778"
       id="path1545" />
    <path
       d="m 174.11856,137.18094 c -0.0515,0.0191 -0.10654,0.0367 -0.15946,0.0565 -0.0547,0.019 -0.11183,0.0409 -0.17145,0.0632 -0.25012,0.0882 -0.39475,0.23107 -0.43003,0.43285 -0.0205,0.10372 -0.006,0.18733 0.0409,0.25048 0.0459,0.0621 0.11853,0.0928 0.21202,0.0928 0.0586,0 0.11712,-0.0116 0.17321,-0.0335 0.0579,-0.0233 0.10936,-0.054 0.15523,-0.0914 0.0445,-0.0413 0.0847,-0.0878 0.11535,-0.14217 0.0317,-0.0533 0.0536,-0.109 0.0639,-0.17003 l 0.0956,-0.50483 c -0.0152,0.009 -0.0303,0.018 -0.0462,0.0247 -0.0159,0.007 -0.0317,0.0145 -0.049,0.0215"
       style="fill:#009cde;fill-opacity:1;fill-rule:nonzero;stroke:none;stroke-width:0.352778"
       id="path1549" />
    <path
       d="m 149.22533,136.57014 c -0.0596,-0.0582 -0.13759,-0.0854 -0.23178,-0.0854 -0.13194,0 -0.24871,0.0519 -0.35101,0.15769 -0.10196,0.10231 -0.17992,0.24942 -0.23354,0.43921 h 0.92639 c 0.007,-0.0639 0.0109,-0.11536 0.0109,-0.15028 0,-0.037 -0.002,-0.0751 -0.008,-0.11924 -0.0127,-0.10407 -0.0501,-0.1845 -0.11324,-0.24201"
       style="fill:#009cde;fill-opacity:1;fill-rule:nonzero;stroke:none;stroke-width:0.352778"
       id="path1553" />
    <path
       d="m 147.65021,116.1876 0.0646,-0.29881 0.10724,-0.27693 0.13476,-0.26176 0.17286,-0.22331 0.19932,-0.19508 0.21484,-0.15205 0.24801,-0.12347 0.25929,-0.0723 0.27481,-0.0215 0.27376,0.0215 0.26282,0.0723 0.24024,0.12347 0.22895,0.15205 0.19227,0.19508 0.16757,0.22331 0.14075,0.26176 0.10654,0.27693 0.0607,0.29881 0.0289,0.3115 -0.0289,0.31609 -0.0607,0.29774 -0.10654,0.27976 -0.14075,0.25082 -0.16757,0.22825 -0.19227,0.19156 -0.22895,0.16263 -0.24024,0.11465 -0.26282,0.0702 -0.27376,0.0265 -0.27481,-0.0265 -0.25929,-0.0702 -0.24801,-0.11465 -0.21484,-0.16263 -0.19932,-0.19156 -0.17286,-0.22825 -0.13476,-0.25082 -0.10724,-0.27976 -0.0646,-0.29774 -0.0141,-0.31609 z m -1.18004,4.0707 5.13009,0.27905 v -6.39657 L 146.47017,113.8 Z m 3.69358,-4.71911 -1.651,-0.0818 v 2.06445 l 1.66687,0.049 z m 3.09774,5.85682 -6.79132,-0.34572 v 6.16832 h 6.79132 z m -12.0911,5.78838 0.0991,0.0187 0.30233,0.0155 -0.25506,-0.0155 z m 4.25555,-10.6359 -0.0328,0.43991 -0.0818,0.39582 -0.11112,0.35101 -0.16016,0.28046 -0.17533,0.21696 -0.2085,0.13018 -0.23495,0.0402 -0.2293,-0.0624 -0.20144,-0.15663 -0.1718,-0.23354 -0.12665,-0.29704 -0.0914,-0.36407 -0.0363,-0.4071 v -0.4378 l 0.0462,-0.43568 0.0836,-0.38806 0.13194,-0.34748 0.1531,-0.2854 0.1771,-0.21872 0.19579,-0.12877 0.19861,-0.0437 0.20461,0.054 0.19297,0.15135 0.16616,0.236 0.1457,0.30622 0.10795,0.35771 0.0579,0.41311 z m 0.28822,-2.7806 -2.50295,0.41064 v 6.31401 l 2.50295,-0.22154 z m -1.76635,3.07587 0.007,0.48648 v 0.19862 l 1.02553,-0.0409 0.008,-1.9745 -1.04034,0.0677 z m 3.71298,-6.18348 -1.02235,2.37207 6.06249,0.41981 z m -8.43633,15.09536 0.14429,0.24906 0.16898,0.2413 0.19544,0.20426 0.20884,0.19191 0.23143,0.17427 0.25047,0.1337 0.27622,0.11607 0.1263,0.0356 v -6.40292 l 1.62454,-0.14182 v -6.25722 l -1.19627,0.20426 -0.2988,0.18733 -0.40464,-0.65017 6.92503,-4.36669 v 0.009 l 0.007,-0.0169 7.6955,4.28943 -0.40111,0.64487 -0.50976,-0.28469 -1.84291,-0.11818 v 6.38634 l 1.59667,0.09 v 6.54438 l 0.27199,-0.0155 0.29845,-0.0579 0.28116,-0.079 0.26811,-0.11607 0.24624,-0.1337 0.23601,-0.17427 0.21731,-0.19191 0.18627,-0.20426 0.16475,-0.2413 0.14358,-0.24906 0.11465,-0.27094 0.079,-0.27975 0.0603,-0.28822 0.0176,-0.3115 V 108.9781 l -0.0176,-0.30657 -0.0603,-0.28716 -0.079,-0.28822 -0.11465,-0.26458 -0.14358,-0.25224 -0.16475,-0.23424 -0.18627,-0.21131 -0.21731,-0.19333 -0.23601,-0.16933 -0.24624,-0.13406 -0.26811,-0.11571 -0.28116,-0.0882 -0.29845,-0.0515 -0.29845,-0.0145 H 141.5718 l -0.30233,0.0145 -0.28963,0.0515 -0.27976,0.0882 -0.27622,0.11571 -0.25047,0.13406 -0.23143,0.16933 -0.20884,0.19333 -0.19544,0.21131 -0.16898,0.23424 -0.14429,0.25224 -0.115,0.26458 -0.0801,0.28822 -0.0466,0.28716 -0.0236,0.30657 v 15.62735 l 0.0236,0.3115 0.0466,0.28822 0.0801,0.27975 z m 7.46266,-14.65051 -3.75143,2.34703 2.92911,-0.49177 z m -5.11527,16.11348 h 4.14231 v -6.16832 l -4.14231,0.31926 z"
       style="fill:#009cde;fill-opacity:1;fill-rule:nonzero;stroke:none;stroke-width:0.352778"
       id="path1557" />
    <path
       d="m 170.81677,126.87288 v -4.13067 l -0.0406,-0.43956 -0.10371,-0.37218 -0.19086,-0.29422 -0.40252,-0.35489 -0.50941,-0.20285 -0.629,-0.0638 -0.49318,0.0339 -0.43463,0.11642 -0.37218,0.19932 -0.18132,0.1651 -0.1771,0.19932 -0.17956,0.25576 v -0.8315 h -1.20086 l 0.0205,0.11819 0.0215,0.11712 v 5.49098 l -0.0215,0.11501 -0.0205,0.11994 h 1.26118 l -0.0314,-0.11994 -0.0123,-0.12136 v -3.60821 l 0.0339,-0.39334 0.12912,-0.34961 0.20038,-0.29421 0.26635,-0.20814 0.34466,-0.13265 0.41698,-0.0441 0.33902,0.0384 0.27376,0.0931 0.23918,0.14711 0.15381,0.21555 0.10478,0.26352 0.0349,0.31115 v 3.82799 l -0.0134,0.15029 -0.006,0.121 -0.0205,0.10336 h 1.24636 l -0.0215,-0.11994 z m -6.38704,-5.49486 0.0102,-0.12912 0.03,-0.096 h -1.2566 l 0.0208,0.10901 0.0208,0.1263 v 3.73909 l -0.0416,0.3496 -0.12629,0.30798 -0.21202,0.254 -0.28222,0.19473 -0.32703,0.11148 -0.37712,0.0473 -0.3743,-0.0473 -0.2921,-0.11148 -0.23706,-0.2092 -0.12418,-0.21237 -0.0896,-0.25329 -0.018,-0.30692 v -3.87385 l 0.018,-0.11607 0.0279,-0.10901 h -1.24883 l 0.0155,0.11819 0.0131,0.11712 0.0102,0.12806 v 3.8742 l 0.0445,0.51153 0.14393,0.43603 0.23566,0.34043 0.39193,0.2981 0.48754,0.18133 0.59619,0.0603 0.44239,-0.0282 0.39088,-0.0981 0.34113,-0.1651 0.19826,-0.14958 0.20109,-0.21308 0.20778,-0.26811 v 0.81809 h 1.19945 l -0.03,-0.12417 -0.0102,-0.11713 -0.0123,-0.13335 v -5.22322 z m 17.42158,3.25614 -0.0646,0.51117 -0.10654,0.43603 -0.15981,0.35666 -0.26705,0.36619 -0.3369,0.21448 -0.41558,0.0727 -0.28257,-0.0272 -0.26353,-0.0956 -0.254,-0.15346 -0.22754,-0.20249 -0.1531,-0.23284 -0.0981,-0.2667 -0.0452,-0.32773 -0.0222,-0.5715 -0.009,-0.82373 0.031,-0.61666 0.0942,-0.47978 0.17498,-0.3757 0.32632,-0.37395 0.3817,-0.23177 0.43427,-0.0769 0.35066,0.0653 0.28258,0.16405 0.248,0.26282 0.1771,0.34113 0.12911,0.42016 0.0755,0.48401 0.0201,0.57397 z m 1.20579,-1.16911 -0.0847,-0.51294 -0.11536,-0.45438 -0.17957,-0.40816 -0.23495,-0.35419 -0.42262,-0.40005 -0.51083,-0.24659 -0.59266,-0.0741 -0.40182,0.0339 -0.37112,0.10442 -0.33937,0.18239 -0.19509,0.15699 -0.2032,0.2166 -0.23318,0.26529 v -2.72768 l 0.004,-0.13793 0.0166,-0.11183 0.0162,-0.11889 h -1.24848 l 0.0197,0.11889 0.0162,0.12241 0.006,0.12735 v 7.493 l -0.006,0.1397 -0.0162,0.13159 -0.0197,0.10336 h 0.61559 l 0.32668,-0.72178 0.26917,0.27446 0.25929,0.21237 0.26881,0.14923 0.28399,0.11042 0.3175,0.0628 0.3489,0.0166 0.52669,-0.0511 0.48155,-0.15628 0.41239,-0.27587 0.34996,-0.38136 0.23283,-0.36794 0.18627,-0.42686 0.13159,-0.45332 0.0847,-0.5207 0.0194,-0.56551 z m -7.77346,1.64959 -0.0314,0.26423 -0.0847,0.25365 -0.13123,0.25752 -0.29775,0.30904 -0.36054,0.19332 -0.42439,0.0621 -0.27411,-0.0356 -0.2353,-0.0917 -0.19897,-0.16087 -0.14887,-0.22825 -0.0832,-0.23953 -0.0317,-0.29775 0.019,-0.2734 0.0868,-0.2473 0.13758,-0.24588 0.18839,-0.2085 0.2861,-0.19226 0.36054,-0.17533 0.44344,-0.16193 0.2981,-0.11218 0.15169,-0.0547 0.0833,-0.0416 0.10195,-0.0497 0.14534,-0.0755 z m 1.62455,1.31868 -0.1136,0.0212 -0.18556,-0.0621 -0.12383,-0.17216 -0.0384,-0.28927 v -3.5426 l -0.0554,-0.40393 -0.16687,-0.33866 -0.28892,-0.28152 -0.3676,-0.1898 -0.48119,-0.12594 -0.5722,-0.0339 -0.36795,0.0127 -0.33867,0.0332 -0.31115,0.06 -0.31326,0.0871 -0.34784,0.1277 -0.38453,0.16651 0.19085,0.77435 0.29598,-0.23213 0.266,-0.15734 0.24024,-0.11359 0.22401,-0.0769 0.24483,-0.042 0.27446,-0.018 0.30445,0.0282 0.25859,0.0709 0.22436,0.1457 0.16334,0.16298 0.11395,0.20567 0.0314,0.248 -0.0247,0.20532 -0.0653,0.16828 -0.0956,0.1344 -0.14499,0.11889 -0.20249,0.10548 -0.25859,0.0935 -0.58773,0.18238 -0.44697,0.14041 -0.26423,0.0882 -0.20637,0.0907 -0.1965,0.10689 -0.21907,0.12594 -0.4057,0.37536 -0.24412,0.4893 -0.073,0.59266 0.0494,0.50906 0.16969,0.43004 0.28716,0.36195 0.31891,0.22507 0.36054,0.13265 0.43462,0.0441 0.43568,-0.0282 0.38806,-0.10583 0.37712,-0.1711 0.19932,-0.13582 0.21801,-0.20779 0.23672,-0.25435 0.0861,0.30198 0.10089,0.23213 0.14005,0.16721 0.17286,0.12242 0.2212,0.0628 0.26176,0.0166 0.28857,-0.0282 0.28892,-0.0981 0.30516,-0.1651 v -0.6604 l -0.15911,0.10513 z"
       style="fill:#009cde;fill-opacity:1;fill-rule:nonzero;stroke:none;stroke-width:0.352778"
       id="path1561" />
    <path
       d="m 140.34764,130.17467 c -0.008,0.0198 -0.0106,0.0497 -0.0106,0.0804 v 1.07421 c 0,0.13864 -0.0353,0.25224 -0.10265,0.35102 -0.0649,0.0963 -0.15029,0.1591 -0.26035,0.19297 -0.0995,0.0377 -0.21132,0.054 -0.33479,0.054 -0.17462,0 -0.31362,-0.0332 -0.41487,-0.0984 -0.0804,-0.0515 -0.14287,-0.11889 -0.18626,-0.20356 -0.0476,-0.0871 -0.0695,-0.18027 -0.0695,-0.28187 v -1.08832 c 0,-0.0307 -0.003,-0.0568 -0.01,-0.0804 h 0.3101 c -0.008,0.0236 -0.008,0.0497 -0.008,0.078 v 1.0929 c 0,0.10689 0.0226,0.19262 0.0681,0.26211 0.0818,0.11854 0.20884,0.17816 0.39193,0.17816 0.15593,0 0.27517,-0.0406 0.35701,-0.1263 0.0861,-0.0804 0.1263,-0.20002 0.1263,-0.35066 v -1.05375 c 0,-0.0317 -0.004,-0.0607 -0.008,-0.0804 z"
       style="fill:#009cde;fill-opacity:1;fill-rule:nonzero;stroke:none;stroke-width:0.352778"
       id="path1565" />
    <path
       d="m 140.67562,130.5495 h 0.26811 v 0.1905 c 0.0385,-0.0642 0.0801,-0.11042 0.12276,-0.14182 0.0759,-0.0522 0.17428,-0.0808 0.29316,-0.0808 0.15593,0 0.27129,0.048 0.35137,0.14146 0.0469,0.0596 0.0769,0.14358 0.0769,0.24977 v 0.90946 c 0,0.0282 0.002,0.0554 0.006,0.0818 h -0.27834 c 0.004,-0.0201 0.005,-0.049 0.005,-0.0818 v -0.86643 c 0,-0.0772 -0.0219,-0.13793 -0.0663,-0.17991 -0.0455,-0.0427 -0.11007,-0.0624 -0.19121,-0.0624 -0.10124,0 -0.18379,0.0289 -0.23036,0.0843 -0.0582,0.0628 -0.0833,0.14041 -0.0833,0.2353 v 0.78917 c 0,0.0282 0.002,0.0554 0.0109,0.0818 h -0.28504 c 0.005,-0.0247 0.006,-0.0505 0.006,-0.0818 v -1.1871 c 0,-0.0254 -0.001,-0.0554 -0.006,-0.0815"
       style="fill:#009cde;fill-opacity:1;fill-rule:nonzero;stroke:none;stroke-width:0.352778"
       id="path1569" />
    <path
       d="m 142.12324,130.5495 h 0.2861 c -0.009,0.0261 -0.0102,0.0561 -0.0102,0.0889 v 1.17969 c 0,0.0282 0.001,0.0554 0.0102,0.0818 h -0.2861 c 0.0106,-0.0265 0.0106,-0.0536 0.0106,-0.0818 v -1.17969 c 0,-0.037 0,-0.0628 -0.0106,-0.0889 m 0.14958,-0.36372 c 0.0508,0 0.0924,0.0102 0.11712,0.0332 0.0293,0.0233 0.0452,0.0515 0.0452,0.0875 0,0.0385 -0.0159,0.0674 -0.0452,0.0924 -0.0247,0.0215 -0.0663,0.0317 -0.11712,0.0317 -0.11113,0 -0.16934,-0.0402 -0.16934,-0.12171 0,-0.0384 0.0155,-0.0667 0.048,-0.0899 0.0265,-0.0205 0.0684,-0.0332 0.12136,-0.0332"
       style="fill:#009cde;fill-opacity:1;fill-rule:nonzero;stroke:none;stroke-width:0.352778"
       id="path1573" />
    <path
       d="m 143.23188,131.60233 0.36724,-0.97543 c 0.0113,-0.0289 0.019,-0.0547 0.019,-0.0773 h 0.15028 c -0.0159,0.0226 -0.0265,0.0483 -0.0346,0.0773 l -0.45014,1.2005 c -0.0116,0.031 -0.0176,0.0522 -0.0176,0.0674 l 10e-4,0.005 h -0.21484 c 0,-0.025 -0.005,-0.0452 -0.0187,-0.0727 l -0.44027,-1.2005 c -0.003,-0.0194 -0.0138,-0.0469 -0.0307,-0.0773 h 0.30833 c 0,0.0226 0.003,0.0483 0.013,0.0773 z"
       style="fill:#009cde;fill-opacity:1;fill-rule:nonzero;stroke:none;stroke-width:0.352778"
       id="path1577" />
    <path
       d="m 144.09834,131.05901 h 0.64628 c -0.002,-0.0741 -0.0194,-0.13793 -0.0307,-0.18803 -0.0236,-0.0737 -0.0624,-0.12911 -0.11994,-0.17215 -0.042,-0.0367 -0.097,-0.054 -0.16298,-0.054 -0.0903,0 -0.1644,0.0335 -0.22084,0.10619 -0.0596,0.0755 -0.0974,0.17709 -0.11183,0.30797 m 0.86607,0.75283 c -0.0903,0.043 -0.16475,0.072 -0.23037,0.0882 -0.0674,0.0173 -0.14464,0.0236 -0.23354,0.0236 -0.23177,0 -0.40604,-0.0653 -0.52423,-0.20179 -0.10689,-0.11959 -0.16121,-0.27869 -0.16121,-0.49106 0,-0.22825 0.061,-0.40429 0.18344,-0.53199 0.11007,-0.11889 0.26247,-0.18133 0.44521,-0.18133 0.17885,0 0.3242,0.0582 0.42121,0.1718 0.0995,0.11289 0.15558,0.27658 0.16369,0.48684 h -0.93451 c 0,0.15169 0.0145,0.26881 0.0469,0.35595 0.0692,0.1778 0.19615,0.26458 0.39441,0.26458 0.13688,0 0.26423,-0.0515 0.38876,-0.15734 z"
       style="fill:#009cde;fill-opacity:1;fill-rule:nonzero;stroke:none;stroke-width:0.352778"
       id="path1581" />
    <path
       d="m 145.27379,130.5495 h 0.2734 v 0.17251 c 0.0215,-0.0684 0.0582,-0.12065 0.10831,-0.14993 0.0515,-0.0261 0.12453,-0.0473 0.22613,-0.0547 v 0.2099 c -0.0236,0 -0.0325,-0.002 -0.0434,-0.002 -0.19227,0 -0.28787,0.10266 -0.28787,0.31997 v 0.77259 c 0,0.0282 0.002,0.0554 0.01,0.0818 h -0.28646 c 0.008,-0.0265 0.0109,-0.0536 0.0109,-0.0818 v -1.17969 c 0,-0.037 -0.003,-0.0628 -0.0109,-0.0889"
       style="fill:#009cde;fill-opacity:1;fill-rule:nonzero;stroke:none;stroke-width:0.352778"
       id="path1585" />
    <path
       d="m 146.0076,131.81177 0.0476,-0.18626 c 0.0755,0.0639 0.14499,0.10653 0.20108,0.12982 0.0571,0.0258 0.11995,0.0367 0.19015,0.0367 0.0836,0 0.14922,-0.0222 0.19403,-0.0702 0.0441,-0.0416 0.0653,-0.0956 0.0653,-0.15063 0,-0.0579 -0.0187,-0.10337 -0.0607,-0.13759 -0.0445,-0.0349 -0.13088,-0.0776 -0.2674,-0.13123 -0.13617,-0.0543 -0.22296,-0.11254 -0.26741,-0.17745 -0.0445,-0.0642 -0.0663,-0.13158 -0.0663,-0.20637 0,-0.14252 0.0582,-0.24659 0.18168,-0.32032 0.0847,-0.0533 0.18415,-0.0808 0.29951,-0.0808 0.12806,0 0.2607,0.0321 0.40075,0.0935 l -0.0416,0.1651 c -0.12065,-0.0868 -0.23319,-0.12771 -0.33338,-0.12771 -0.0702,0 -0.12806,0.0194 -0.17462,0.0533 -0.0497,0.043 -0.0762,0.0921 -0.0762,0.15487 0,0.0494 0.018,0.0903 0.0547,0.11924 0.0363,0.0279 0.11465,0.0716 0.23213,0.11148 0.14111,0.0557 0.23741,0.11147 0.29174,0.17145 0.0575,0.0575 0.0843,0.13829 0.0843,0.23671 0,0.14005 -0.0554,0.25012 -0.16299,0.33196 -0.0871,0.0667 -0.20637,0.0963 -0.35807,0.0963 -0.14605,0 -0.28892,-0.0374 -0.43427,-0.11183"
       style="fill:#009cde;fill-opacity:1;fill-rule:nonzero;stroke:none;stroke-width:0.352778"
       id="path1589" />
    <path
       d="m 147.191,130.5495 h 0.28539 c -0.007,0.0261 -0.0127,0.0561 -0.0127,0.0889 v 1.17969 c 0,0.0282 0.005,0.0554 0.0127,0.0818 H 147.191 c 0.007,-0.0265 0.009,-0.0536 0.009,-0.0818 v -1.17969 c 0,-0.037 -0.002,-0.0628 -0.009,-0.0889 m 0.14675,-0.36372 c 0.0526,0 0.0924,0.0102 0.12065,0.0332 0.0289,0.0233 0.0413,0.0515 0.0413,0.0875 0,0.0385 -0.0124,0.0674 -0.0413,0.0924 -0.0282,0.0215 -0.0667,0.0317 -0.11677,0.0317 -0.1143,0 -0.17004,-0.0402 -0.17004,-0.12171 0,-0.0384 0.0127,-0.0667 0.0455,-0.0899 0.0307,-0.0205 0.0695,-0.0332 0.12065,-0.0332"
       style="fill:#009cde;fill-opacity:1;fill-rule:nonzero;stroke:none;stroke-width:0.352778"
       id="path1593" />
    <path
       d="m 148.35545,130.66214 c -0.0734,0 -0.13582,0.0272 -0.18451,0.078 -0.0878,0.0882 -0.13052,0.24977 -0.13052,0.48119 0,0.35807 0.1016,0.53411 0.29845,0.53411 0.10618,0 0.1845,-0.0462 0.23777,-0.14111 0.0522,-0.0917 0.0801,-0.23037 0.0801,-0.4124 0,-0.35595 -0.0998,-0.53411 -0.30127,-0.53975 m 0.29033,1.04175 c -0.0448,0.0635 -0.0861,0.10901 -0.12241,0.14006 -0.0702,0.0536 -0.16087,0.0797 -0.27023,0.0797 -0.15487,0 -0.27587,-0.0631 -0.36265,-0.1905 -0.0843,-0.13088 -0.12806,-0.29809 -0.12806,-0.50835 0,-0.21731 0.049,-0.39088 0.14957,-0.52493 0.0833,-0.11995 0.21026,-0.18239 0.37712,-0.18239 0.0783,0 0.14747,0.0138 0.20073,0.0455 0.0565,0.0229 0.10901,0.0681 0.1517,0.13194 v -0.57503 c 0,-0.0293 -0.002,-0.0557 -0.009,-0.0808 h 0.2854 c -0.007,0.025 -0.0102,0.055 -0.0102,0.0808 v 1.69545 c 0,0.0307 0.004,0.0593 0.0102,0.0847 h -0.27235 z"
       style="fill:#009cde;fill-opacity:1;fill-rule:nonzero;stroke:none;stroke-width:0.352778"
       id="path1597" />
    <path
       d="m 149.91331,131.09486 c -0.0321,0.019 -0.0572,0.0321 -0.0713,0.0413 -0.0194,0.006 -0.0822,0.03 -0.20143,0.0759 -0.0928,0.0339 -0.1577,0.0755 -0.19086,0.1277 -0.037,0.0533 -0.0557,0.11219 -0.0557,0.17392 0,0.0681 0.0208,0.13088 0.06,0.17145 0.0377,0.0448 0.0938,0.0639 0.15875,0.0639 0.10724,0 0.18415,-0.0406 0.24659,-0.12877 0.0353,-0.0501 0.054,-0.11112 0.054,-0.17286 z m 0.01,0.62688 c -0.0554,0.0628 -0.1023,0.10725 -0.15028,0.13371 -0.0766,0.0445 -0.16934,0.0684 -0.27023,0.0684 -0.10336,0 -0.18733,-0.0296 -0.24906,-0.0896 -0.0776,-0.0706 -0.11889,-0.17463 -0.11889,-0.29598 0,-0.14535 0.0561,-0.25682 0.16863,-0.32808 0.0487,-0.0342 0.096,-0.0554 0.13935,-0.0734 0.042,-0.0162 0.14146,-0.0494 0.29598,-0.0938 0.0617,-0.0205 0.1076,-0.0438 0.13582,-0.072 0.0275,-0.0282 0.0388,-0.0677 0.0388,-0.11465 0,-0.0593 -0.0243,-0.10548 -0.067,-0.14288 -0.0459,-0.0374 -0.10443,-0.0526 -0.17886,-0.0526 -0.0639,0 -0.11959,0.012 -0.17251,0.0286 -0.0452,0.0226 -0.10866,0.06 -0.17957,0.11288 l -0.0413,-0.17109 c 0.0889,-0.042 0.1711,-0.0684 0.23707,-0.0864 0.0688,-0.0187 0.14287,-0.0275 0.23071,-0.0275 0.13935,0 0.24801,0.0286 0.32456,0.0836 0.0755,0.0533 0.11148,0.13158 0.11148,0.23318 v 0.80116 c 0,0.0737 0.024,0.1136 0.0815,0.1136 0.0173,0 0.049,-0.0134 0.0875,-0.0406 v 0.14993 c -0.0702,0.0441 -0.13864,0.0656 -0.1965,0.0656 -0.0684,0 -0.11959,-0.013 -0.15169,-0.0441 -0.0339,-0.0303 -0.0579,-0.0833 -0.0755,-0.15805"
       style="fill:#009cde;fill-opacity:1;fill-rule:nonzero;stroke:none;stroke-width:0.352778"
       id="path1601" />
    <path
       d="m 151.0543,130.66214 c -0.0713,0 -0.13229,0.0272 -0.1845,0.078 -0.0833,0.0882 -0.12594,0.24977 -0.12594,0.48119 0,0.35807 0.0974,0.53411 0.29492,0.53411 0.10548,0 0.18556,-0.0462 0.24236,-0.14111 0.0497,-0.0917 0.0773,-0.23037 0.0773,-0.4124 0,-0.35595 -0.10231,-0.53411 -0.3041,-0.53975 m 0.28963,1.04175 c -0.0416,0.0635 -0.0836,0.10901 -0.11606,0.14006 -0.0762,0.0536 -0.16263,0.0797 -0.27058,0.0797 -0.15946,0 -0.28258,-0.0631 -0.36583,-0.1905 -0.0847,-0.13088 -0.12841,-0.29809 -0.12841,-0.50835 0,-0.21731 0.0504,-0.39088 0.14393,-0.52493 0.0914,-0.11995 0.21837,-0.18239 0.38135,-0.18239 0.079,0 0.14746,0.0138 0.20602,0.0455 0.0543,0.0229 0.10372,0.0681 0.14923,0.13194 v -0.57503 c 0,-0.0293 -0.003,-0.0557 -0.0106,-0.0808 h 0.2868 c -0.008,0.025 -0.0109,0.055 -0.0109,0.0808 v 1.69545 c 0,0.0307 0.003,0.0593 0.0109,0.0847 h -0.27587 z"
       style="fill:#009cde;fill-opacity:1;fill-rule:nonzero;stroke:none;stroke-width:0.352778"
       id="path1605" />
    <path
       d="m 152.86677,131.23092 h 0.55421 l -0.28293,-0.77752 z m -0.0462,0.12841 -0.16333,0.46955 c -0.008,0.0198 -0.0148,0.0455 -0.0148,0.0709 h -0.16228 c 0.0166,-0.0254 0.03,-0.0487 0.0388,-0.0709 l 0.56515,-1.59244 c 0.007,-0.0226 0.0106,-0.0444 0.0106,-0.0617 h 0.2473 c 0.004,0.0155 0.009,0.0335 0.0159,0.0536 l 0.58525,1.60055 c 0.007,0.0198 0.0215,0.0455 0.0381,0.0709 h -0.33584 c 0,-0.0201 -0.005,-0.0448 -0.0113,-0.0709 l -0.16686,-0.46955 z"
       style="fill:#009cde;fill-opacity:1;fill-rule:nonzero;stroke:none;stroke-width:0.352778"
       id="path1609" />
    <path
       d="m 154.95486,131.89997 v -0.18486 c -0.0473,0.066 -0.0935,0.11395 -0.14111,0.14323 -0.0688,0.0441 -0.15558,0.0653 -0.26317,0.0653 -0.14464,0 -0.25683,-0.0399 -0.33549,-0.12312 -0.0617,-0.0674 -0.0935,-0.16298 -0.0935,-0.29033 v -0.87913 c 0,-0.0254 -0.002,-0.0554 -0.0106,-0.0815 h 0.28328 c -0.006,0.0226 -0.009,0.0519 -0.009,0.0815 v 0.85055 c 0,0.073 0.0169,0.13018 0.0522,0.17216 0.048,0.0561 0.115,0.0818 0.20672,0.0818 0.0878,0 0.16334,-0.0257 0.22049,-0.0783 0.0596,-0.055 0.0864,-0.12065 0.0864,-0.20497 v -0.82127 c 0,-0.0296 -0.004,-0.0554 -0.012,-0.0815 h 0.28539 c -0.005,0.0226 -0.0109,0.0487 -0.0109,0.0815 v 1.18428 c 0,0.031 0.006,0.0564 0.0109,0.0847 z"
       style="fill:#009cde;fill-opacity:1;fill-rule:nonzero;stroke:none;stroke-width:0.352778"
       id="path1613" />
    <path
       d="m 155.59977,130.67593 h -0.19826 v -0.12629 h 0.19826 v -0.25894 l 0.27164,-0.0314 c -0.004,0.0515 -0.004,0.0829 -0.004,0.1009 v 0.18944 h 0.21767 v 0.12629 h -0.21767 v 0.97614 c 0,0.0811 0.03,0.11924 0.0991,0.11924 0.0307,0 0.0674,-0.0127 0.11854,-0.0392 v 0.13723 c -0.0713,0.0367 -0.14641,0.0543 -0.22331,0.0543 -0.0893,0 -0.15523,-0.0212 -0.19685,-0.0632 -0.0416,-0.0455 -0.0653,-0.11148 -0.0653,-0.20108 z"
       style="fill:#009cde;fill-opacity:1;fill-rule:nonzero;stroke:none;stroke-width:0.352778"
       id="path1617" />
    <path
       d="m 156.69635,130.3948 0.17568,-0.39969 h 0.22754 l -0.27199,0.39969 z m 0.13864,0.23637 c -0.0459,0 -0.0921,0.0138 -0.13511,0.0388 -0.0438,0.0265 -0.0797,0.0607 -0.10478,0.10266 -0.0681,0.11007 -0.10301,0.26106 -0.10301,0.4445 0,0.19085 0.0353,0.34325 0.10301,0.45261 0.0286,0.0434 0.061,0.0794 0.10478,0.10337 0.043,0.0272 0.0892,0.0388 0.13511,0.0388 0.048,0 0.0942,-0.0116 0.13758,-0.0388 0.0445,-0.024 0.0776,-0.06 0.10478,-0.10337 0.0688,-0.10936 0.10407,-0.25929 0.10407,-0.44838 0,-0.18767 -0.0353,-0.34043 -0.10407,-0.45049 -0.0575,-0.0924 -0.14041,-0.1397 -0.24236,-0.1397 m -7.1e-4,-0.1136 c 0.20215,0 0.35525,0.0684 0.4699,0.20461 0.10301,0.12736 0.15487,0.29422 0.15487,0.50271 0,0.22013 -0.06,0.39194 -0.17674,0.52176 -0.11606,0.1203 -0.26247,0.17709 -0.44591,0.17709 -0.19509,0 -0.34643,-0.0631 -0.45614,-0.19402 -0.11077,-0.13265 -0.1718,-0.3108 -0.1718,-0.526 0,-0.20002 0.0596,-0.36512 0.16898,-0.49177 0.109,-0.12665 0.26246,-0.18909 0.45684,-0.19438"
       style="fill:#009cde;fill-opacity:1;fill-rule:nonzero;stroke:none;stroke-width:0.352778"
       id="path1621" />
    <path
       d="m 157.71954,130.5495 h 0.27305 v 0.1905 c 0.0377,-0.0642 0.0819,-0.11042 0.12277,-0.14182 0.0762,-0.0522 0.17463,-0.0808 0.29281,-0.0808 0.15698,0 0.27022,0.048 0.35207,0.14146 0.0462,0.0596 0.0741,0.14358 0.0741,0.24977 v 0.90946 c 0,0.0282 0.002,0.0554 0.008,0.0818 h -0.28257 c 0.008,-0.0201 0.0116,-0.049 0.0116,-0.0818 v -0.86643 c 0,-0.0772 -0.0233,-0.13793 -0.0684,-0.17991 -0.0445,-0.0427 -0.10971,-0.0624 -0.1905,-0.0624 -0.10336,0 -0.18239,0.0289 -0.23107,0.0843 -0.0575,0.0628 -0.0836,0.14041 -0.0836,0.2353 v 0.78917 c 0,0.0282 10e-4,0.0554 0.0109,0.0818 h -0.28893 c 0.01,-0.0247 0.0134,-0.0505 0.0134,-0.0818 v -1.1871 c 0,-0.0254 -0.004,-0.0554 -0.0134,-0.0815"
       style="fill:#009cde;fill-opacity:1;fill-rule:nonzero;stroke:none;stroke-width:0.352778"
       id="path1625" />
    <path
       d="m 159.73115,130.63113 c -0.0462,0 -0.0924,0.0138 -0.13511,0.0406 -0.0427,0.0251 -0.0783,0.0596 -0.10407,0.10089 -0.0713,0.11007 -0.10301,0.26106 -0.10301,0.44204 0,0.19332 0.0318,0.34572 0.10301,0.45508 0.0268,0.0434 0.0628,0.0794 0.10407,0.10336 0.0427,0.0272 0.0889,0.0388 0.13511,0.0388 0.0508,0 0.0942,-0.0116 0.13653,-0.0388 0.0437,-0.024 0.0787,-0.06 0.10618,-0.10336 0.0684,-0.10936 0.10231,-0.26176 0.10231,-0.44838 0,-0.18768 -0.0339,-0.34114 -0.10231,-0.44979 -0.0589,-0.0931 -0.13546,-0.14041 -0.24271,-0.14041 m 0,-0.11359 c 0.20109,0 0.35419,0.0684 0.46567,0.20461 0.10583,0.12735 0.15804,0.29421 0.15804,0.50271 0,0.22013 -0.0607,0.39193 -0.17533,0.52175 -0.11747,0.1203 -0.26458,0.1771 -0.44273,0.1771 -0.19932,0 -0.35419,-0.0632 -0.45932,-0.19403 -0.11148,-0.13264 -0.16475,-0.3108 -0.16475,-0.52599 0,-0.20003 0.0533,-0.36513 0.16334,-0.49177 0.10654,-0.12665 0.26141,-0.18909 0.45508,-0.19438"
       style="fill:#009cde;fill-opacity:1;fill-rule:nonzero;stroke:none;stroke-width:0.352778"
       id="path1629" />
    <path
       d="m 160.88766,130.70486 c 0.0974,-0.12488 0.22649,-0.18732 0.38665,-0.18732 0.0875,0 0.16263,0.0138 0.22084,0.0455 0.0568,0.0321 0.1023,0.0766 0.14217,0.14182 0.0677,-0.0663 0.12876,-0.11536 0.19226,-0.14182 0.0624,-0.0317 0.13582,-0.0455 0.21837,-0.0455 0.26282,0 0.39088,0.12735 0.39088,0.38347 v 0.91687 c 0,0.0282 0.002,0.0564 0.01,0.0822 h -0.28187 c 0.004,-0.0257 0.009,-0.054 0.009,-0.0822 v -0.87454 c 0,-0.0723 -0.0106,-0.12488 -0.0367,-0.15769 -0.0377,-0.0533 -0.0959,-0.0762 -0.19191,-0.0762 -0.0914,0 -0.15734,0.0219 -0.20884,0.0667 -0.0494,0.0452 -0.0744,0.1143 -0.0744,0.19685 v 0.84491 c 0,0.0307 0.001,0.0572 0.0106,0.0822 h -0.28258 c 0.006,-0.025 0.006,-0.0515 0.006,-0.0822 v -0.87454 c 0,-0.0723 -0.01,-0.12488 -0.0356,-0.15628 -0.0388,-0.0547 -0.10125,-0.0776 -0.18415,-0.0776 -0.0882,0 -0.15805,0.0219 -0.20708,0.0667 -0.0505,0.0452 -0.0737,0.10407 -0.0737,0.17851 v 0.86325 c 0,0.0282 0,0.0564 0.007,0.0822 h -0.28611 c 0.007,-0.0257 0.0116,-0.054 0.0116,-0.0822 v -1.18675 c 0,-0.0296 -0.005,-0.0554 -0.0116,-0.0815 h 0.26952 z"
       style="fill:#009cde;fill-opacity:1;fill-rule:nonzero;stroke:none;stroke-width:0.352778"
       id="path1633" />
    <path
       d="m 163.44873,131.09486 c -0.0346,0.019 -0.0557,0.0321 -0.0762,0.0413 -0.0145,0.006 -0.0815,0.03 -0.19862,0.0759 -0.0921,0.0339 -0.15593,0.0755 -0.19015,0.1277 -0.0406,0.0533 -0.0561,0.11219 -0.0561,0.17392 0,0.0681 0.0183,0.13088 0.0614,0.17145 0.0406,0.0448 0.0928,0.0639 0.1591,0.0639 0.10689,0 0.18591,-0.0406 0.24483,-0.12877 0.036,-0.0501 0.0557,-0.11112 0.0557,-0.17286 z m 0.008,0.62688 c -0.0543,0.0628 -0.10407,0.10725 -0.1464,0.13371 -0.0794,0.0445 -0.17145,0.0684 -0.27658,0.0684 -0.0998,0 -0.18344,-0.0296 -0.24941,-0.0896 -0.0759,-0.0706 -0.11289,-0.17463 -0.11289,-0.29598 0,-0.14535 0.0536,-0.25682 0.1651,-0.32808 0.0487,-0.0342 0.0931,-0.0554 0.13935,-0.0734 0.0416,-0.0162 0.13899,-0.0494 0.29598,-0.0938 0.066,-0.0205 0.10795,-0.0438 0.13546,-0.072 0.0258,-0.0282 0.0409,-0.0677 0.0409,-0.11465 0,-0.0593 -0.0219,-0.10548 -0.0684,-0.14288 -0.0462,-0.0374 -0.10266,-0.0526 -0.18063,-0.0526 -0.0603,0 -0.11782,0.012 -0.16898,0.0286 -0.0469,0.0226 -0.11147,0.06 -0.17991,0.11288 l -0.0423,-0.17109 c 0.0903,-0.042 0.1711,-0.0684 0.23989,-0.0864 0.067,-0.0187 0.13723,-0.0275 0.22931,-0.0275 0.13793,0 0.24624,0.0286 0.32173,0.0836 0.0744,0.0533 0.11395,0.13158 0.11395,0.23318 v 0.80116 c 0,0.0737 0.0243,0.1136 0.0801,0.1136 0.0205,0 0.048,-0.0134 0.0847,-0.0406 v 0.14993 c -0.0677,0.0441 -0.13406,0.0656 -0.1965,0.0656 -0.0642,0 -0.1143,-0.013 -0.14605,-0.0441 -0.0349,-0.0303 -0.061,-0.0833 -0.0783,-0.15805"
       style="fill:#009cde;fill-opacity:1;fill-rule:nonzero;stroke:none;stroke-width:0.352778"
       id="path1637" />
    <path
       d="m 165.29806,130.66214 c -0.0706,0 -0.13547,0.0272 -0.18733,0.078 -0.0832,0.0882 -0.12488,0.24977 -0.12488,0.48119 0,0.35807 0.0991,0.53411 0.29598,0.53411 0.10336,0 0.18415,-0.0462 0.23319,-0.14111 0.0564,-0.0917 0.0854,-0.23037 0.0854,-0.4124 0,-0.35595 -0.10019,-0.53411 -0.30233,-0.53975 m 0.28892,1.04175 c -0.0437,0.0635 -0.0829,0.10901 -0.11888,0.14006 -0.0727,0.0536 -0.16334,0.0797 -0.272,0.0797 -0.1591,0 -0.27975,-0.0631 -0.36089,-0.1905 -0.0875,-0.13088 -0.13229,-0.29809 -0.13229,-0.50835 0,-0.21731 0.0504,-0.39088 0.14782,-0.52493 0.0899,-0.11995 0.21625,-0.18239 0.37923,-0.18239 0.0808,0 0.14746,0.0138 0.2025,0.0455 0.0575,0.0229 0.10759,0.0681 0.1524,0.13194 v -0.57503 c 0,-0.0293 -0.003,-0.0557 -0.009,-0.0808 h 0.28328 c -0.009,0.025 -0.009,0.055 -0.009,0.0808 v 1.69545 c 0,0.0307 0,0.0593 0.009,0.0847 h -0.27235 z"
       style="fill:#009cde;fill-opacity:1;fill-rule:nonzero;stroke:none;stroke-width:0.352778"
       id="path1641" />
    <path
       d="m 166.4067,131.05901 h 0.6477 c -0.01,-0.0741 -0.0215,-0.13793 -0.0367,-0.18803 -0.0222,-0.0737 -0.0607,-0.12911 -0.11501,-0.17215 -0.0459,-0.0367 -0.1016,-0.054 -0.16616,-0.054 -0.0885,0 -0.16474,0.0335 -0.22648,0.10619 -0.0547,0.0755 -0.0914,0.17709 -0.10336,0.30797 m 0.86289,0.75283 c -0.0875,0.043 -0.16475,0.072 -0.22966,0.0882 -0.0705,0.0173 -0.14675,0.0236 -0.23142,0.0236 -0.23319,0 -0.40957,-0.0653 -0.52634,-0.20179 -0.10619,-0.11959 -0.16158,-0.27869 -0.16158,-0.49106 0,-0.22825 0.0614,-0.40429 0.18168,-0.53199 0.11536,-0.11889 0.26318,-0.18133 0.44909,-0.18133 0.17921,0 0.32032,0.0582 0.42122,0.1718 0.0995,0.11289 0.15381,0.27658 0.16192,0.48684 h -0.94086 c 0,0.15169 0.0205,0.26881 0.0529,0.35595 0.0635,0.1778 0.19861,0.26458 0.39264,0.26458 0.1397,0 0.26635,-0.0515 0.39017,-0.15734 z"
       style="fill:#009cde;fill-opacity:1;fill-rule:nonzero;stroke:none;stroke-width:0.352778"
       id="path1645" />
    <path
       d="m 168.60708,131.76732 h 0.2039 c 0.21308,0 0.31891,-0.11006 0.31891,-0.3309 0,-0.13124 -0.0367,-0.22613 -0.11465,-0.28752 -0.0342,-0.0282 -0.0748,-0.0504 -0.11465,-0.06 -0.043,-0.0127 -0.0963,-0.0198 -0.16475,-0.0198 h -0.12876 z m 0,-0.81844 h 0.12276 c 0.11113,0 0.19156,-0.019 0.254,-0.0582 0.0787,-0.055 0.12065,-0.1524 0.12065,-0.28928 0,-0.20002 -0.10583,-0.29915 -0.31326,-0.29915 h -0.18415 z m -0.30304,-0.77435 h 0.58561 c 0.14217,0 0.25682,0.0275 0.34643,0.0896 0.10231,0.0737 0.15169,0.18344 0.15169,0.33408 0,0.15734 -0.0589,0.2667 -0.18273,0.33866 -0.0363,0.0176 -0.0928,0.0388 -0.1651,0.0596 0.078,0.0166 0.13864,0.0388 0.19297,0.0677 0.12629,0.0744 0.1912,0.19685 0.1912,0.36618 0,0.16686 -0.0632,0.29139 -0.1912,0.38135 -0.0864,0.0557 -0.18768,0.0882 -0.30092,0.0882 h -0.62795 c 0.0109,-0.0205 0.0162,-0.0508 0.0162,-0.0819 v -1.56316 c 0,-0.0342 -0.005,-0.0607 -0.0162,-0.0804"
       style="fill:#009cde;fill-opacity:1;fill-rule:nonzero;stroke:none;stroke-width:0.352778"
       id="path1649" />
    <path
       d="m 170.55011,131.89997 v -0.18486 c -0.0501,0.066 -0.0956,0.11395 -0.14076,0.14323 -0.0706,0.0441 -0.16016,0.0653 -0.26635,0.0653 -0.14534,0 -0.2547,-0.0399 -0.33337,-0.12312 -0.0663,-0.0674 -0.0981,-0.16298 -0.0981,-0.29033 v -0.87913 c 0,-0.0254 -0.003,-0.0554 -0.006,-0.0815 h 0.28116 c -0.008,0.0226 -0.008,0.0519 -0.008,0.0815 v 0.85055 c 0,0.073 0.0162,0.13018 0.0533,0.17216 0.0427,0.0561 0.11112,0.0818 0.2039,0.0818 0.0878,0 0.1651,-0.0257 0.22437,-0.0783 0.0564,-0.055 0.0847,-0.12065 0.0847,-0.20497 v -0.82127 c 0,-0.0296 -0.004,-0.0554 -0.0109,-0.0815 h 0.28293 c -0.005,0.0226 -0.01,0.0487 -0.01,0.0815 v 1.18428 c 0,0.031 0.005,0.0564 0.01,0.0847 z"
       style="fill:#009cde;fill-opacity:1;fill-rule:nonzero;stroke:none;stroke-width:0.352778"
       id="path1653" />
    <path
       d="m 172.07492,131.82899 c -0.0977,0.0384 -0.16863,0.0684 -0.21449,0.0804 -0.0402,0.0102 -0.0938,0.0145 -0.16157,0.0145 -0.19438,0 -0.34396,-0.0572 -0.44838,-0.17709 -0.11289,-0.12665 -0.1644,-0.29422 -0.1644,-0.50447 0,-0.24554 0.0695,-0.43145 0.21061,-0.56656 0.11465,-0.10372 0.26599,-0.1584 0.45332,-0.1584 0.10266,0 0.21131,0.0226 0.32491,0.0582 v 0.20073 c -0.0624,-0.0508 -0.11677,-0.0868 -0.1584,-0.10337 -0.0448,-0.0194 -0.0963,-0.0279 -0.14852,-0.0279 -0.12418,0 -0.21907,0.0515 -0.28751,0.15204 -0.0748,0.10619 -0.11148,0.25012 -0.11148,0.42757 0,0.15205 0.0279,0.27905 0.0833,0.38276 0.0635,0.11889 0.16298,0.17851 0.2988,0.17851 0.0575,0 0.11183,-0.009 0.15981,-0.0307 0.0504,-0.0219 0.10689,-0.0582 0.16404,-0.11078 z"
       style="fill:#009cde;fill-opacity:1;fill-rule:nonzero;stroke:none;stroke-width:0.352778"
       id="path1657" />
    <path
       d="m 172.98131,131.09486 c -0.0293,0.019 -0.0561,0.0321 -0.0737,0.0413 -0.0148,0.006 -0.0818,0.03 -0.19756,0.0759 -0.0956,0.0339 -0.15416,0.0755 -0.19261,0.1277 -0.037,0.0533 -0.0536,0.11219 -0.0536,0.17392 0,0.0681 0.0205,0.13088 0.0614,0.17145 0.0374,0.0448 0.0892,0.0639 0.1591,0.0639 0.10266,0 0.18521,-0.0406 0.24377,-0.12877 0.0356,-0.0501 0.0533,-0.11112 0.0533,-0.17286 z m 0.01,0.62688 c -0.0529,0.0628 -0.10337,0.10725 -0.14923,0.13371 -0.0762,0.0445 -0.16581,0.0684 -0.26564,0.0684 -0.10654,0 -0.18944,-0.0296 -0.25294,-0.0896 -0.079,-0.0706 -0.11642,-0.17463 -0.11642,-0.29598 0,-0.14535 0.0536,-0.25682 0.16686,-0.32808 0.048,-0.0342 0.0928,-0.0554 0.14041,-0.0734 0.042,-0.0162 0.13864,-0.0494 0.29457,-0.0938 0.0621,-0.0205 0.10407,-0.0438 0.13229,-0.072 0.0307,-0.0282 0.0406,-0.0677 0.0406,-0.11465 0,-0.0593 -0.0201,-0.10548 -0.0688,-0.14288 -0.042,-0.0374 -0.1009,-0.0526 -0.17745,-0.0526 -0.0617,0 -0.11888,0.012 -0.16404,0.0286 -0.0536,0.0226 -0.11395,0.06 -0.1845,0.11288 l -0.0444,-0.17109 c 0.0903,-0.042 0.1718,-0.0684 0.23847,-0.0864 0.0663,-0.0187 0.14359,-0.0275 0.23107,-0.0275 0.14041,0 0.24624,0.0286 0.32174,0.0836 0.0758,0.0533 0.11677,0.13158 0.11677,0.23318 v 0.80116 c 0,0.0737 0.0236,0.1136 0.0794,0.1136 0.0212,0 0.048,-0.0134 0.084,-0.0406 v 0.14993 c -0.0653,0.0441 -0.13511,0.0656 -0.1972,0.0656 -0.0667,0 -0.11606,-0.013 -0.14711,-0.0441 -0.0335,-0.0303 -0.06,-0.0833 -0.0783,-0.15805"
       style="fill:#009cde;fill-opacity:1;fill-rule:nonzero;stroke:none;stroke-width:0.352778"
       id="path1661" />
    <path
       d="m 173.59006,130.5495 h 0.27164 v 0.17251 c 0.0243,-0.0684 0.0639,-0.12065 0.11113,-0.14993 0.0508,-0.0261 0.12276,-0.0473 0.22578,-0.0547 v 0.2099 c -0.0183,0 -0.0339,-0.002 -0.0381,-0.002 -0.19968,0 -0.29352,0.10266 -0.29352,0.31997 v 0.77259 c 0,0.0282 0.005,0.0554 0.0102,0.0818 h -0.28716 c 0.012,-0.0265 0.0134,-0.0536 0.0134,-0.0818 v -1.17969 c 0,-0.037 -0.001,-0.0628 -0.0134,-0.0889"
       style="fill:#009cde;fill-opacity:1;fill-rule:nonzero;stroke:none;stroke-width:0.352778"
       id="path1665" />
    <path
       d="m 175.06834,131.09486 c -0.0353,0.019 -0.0586,0.0321 -0.0734,0.0413 -0.0166,0.006 -0.0847,0.03 -0.2032,0.0759 -0.0931,0.0339 -0.15593,0.0755 -0.1898,0.1277 -0.0353,0.0533 -0.0536,0.11219 -0.0536,0.17392 0,0.0681 0.0183,0.13088 0.0575,0.17145 0.0416,0.0448 0.0928,0.0639 0.16122,0.0639 0.10266,0 0.18768,-0.0406 0.24271,-0.12877 0.0399,-0.0501 0.0586,-0.11112 0.0586,-0.17286 z m 0.009,0.62688 c -0.0547,0.0628 -0.10407,0.10725 -0.15028,0.13371 -0.0776,0.0445 -0.16757,0.0684 -0.27023,0.0684 -0.10195,0 -0.18909,-0.0296 -0.25153,-0.0896 -0.078,-0.0706 -0.1143,-0.17463 -0.1143,-0.29598 0,-0.14535 0.0533,-0.25682 0.16581,-0.32808 0.0466,-0.0342 0.0938,-0.0554 0.1397,-0.0734 0.0395,-0.0162 0.1404,-0.0494 0.29421,-0.0938 0.0649,-0.0205 0.1076,-0.0438 0.13618,-0.072 0.0264,-0.0282 0.0416,-0.0677 0.0416,-0.11465 0,-0.0593 -0.025,-0.10548 -0.0702,-0.14288 -0.0427,-0.0374 -0.10442,-0.0526 -0.17462,-0.0526 -0.067,0 -0.12489,0.012 -0.17533,0.0286 -0.0462,0.0226 -0.10478,0.06 -0.18063,0.11288 l -0.0427,-0.17109 c 0.0931,-0.042 0.17392,-0.0684 0.24059,-0.0864 0.0639,-0.0187 0.14252,-0.0275 0.23072,-0.0275 0.1404,0 0.24659,0.0286 0.32067,0.0836 0.079,0.0533 0.1143,0.13158 0.1143,0.23318 v 0.80116 c 0,0.0737 0.0261,0.1136 0.0808,0.1136 0.0162,0 0.0469,-0.0134 0.0847,-0.0406 v 0.14993 c -0.0684,0.0441 -0.13371,0.0656 -0.1958,0.0656 -0.0649,0 -0.11853,-0.013 -0.14922,-0.0441 -0.0314,-0.0303 -0.0607,-0.0833 -0.0744,-0.15805"
       style="fill:#009cde;fill-opacity:1;fill-rule:nonzero;stroke:none;stroke-width:0.352778"
       id="path1669" />
    <path
       d="m 175.94443,130.70486 c 0.10019,-0.12488 0.22578,-0.18732 0.38876,-0.18732 0.084,0 0.16052,0.0138 0.21661,0.0455 0.0593,0.0321 0.10901,0.0766 0.14781,0.14182 0.0639,-0.0663 0.12736,-0.11536 0.19086,-0.14182 0.0607,-0.0317 0.13229,-0.0455 0.21801,-0.0455 0.2607,0 0.3877,0.12735 0.3877,0.38347 v 0.91687 c 0,0.0282 0.007,0.0564 0.0127,0.0822 h -0.28786 c 0.01,-0.0257 0.01,-0.054 0.01,-0.0822 v -0.87454 c 0,-0.0723 -0.01,-0.12488 -0.0335,-0.15769 -0.0339,-0.0533 -0.0981,-0.0762 -0.19261,-0.0762 -0.0893,0 -0.15452,0.0219 -0.21132,0.0667 -0.0466,0.0452 -0.0702,0.1143 -0.0702,0.19685 v 0.84491 c 0,0.0307 0.006,0.0572 0.0102,0.0822 h -0.28469 c 0.006,-0.025 0.0113,-0.0515 0.0113,-0.0822 v -0.87454 c 0,-0.0723 -0.0155,-0.12488 -0.0409,-0.15628 -0.037,-0.0547 -0.10054,-0.0776 -0.18626,-0.0776 -0.0836,0 -0.14993,0.0219 -0.20497,0.0667 -0.0476,0.0452 -0.073,0.10407 -0.073,0.17851 v 0.86325 c 0,0.0282 0.003,0.0564 0.008,0.0822 h -0.28434 c 0.006,-0.0257 0.0109,-0.054 0.0109,-0.0822 v -1.18675 c 0,-0.0296 -0.005,-0.0554 -0.0109,-0.0815 h 0.2674 z"
       style="fill:#009cde;fill-opacity:1;fill-rule:nonzero;stroke:none;stroke-width:0.352778"
       id="path1673" />
    <path
       d="m 178.50348,131.09486 c -0.0317,0.019 -0.0564,0.0321 -0.0713,0.0413 -0.0176,0.006 -0.0843,0.03 -0.20073,0.0759 -0.0953,0.0339 -0.15593,0.0755 -0.19121,0.1277 -0.0374,0.0533 -0.0564,0.11219 -0.0564,0.17392 0,0.0681 0.0212,0.13088 0.0646,0.17145 0.0325,0.0448 0.0878,0.0639 0.15698,0.0639 0.10372,0 0.18592,-0.0406 0.24448,-0.12877 0.0374,-0.0501 0.0536,-0.11112 0.0536,-0.17286 z m 0.0116,0.62688 c -0.0557,0.0628 -0.10301,0.10725 -0.15063,0.13371 -0.0766,0.0445 -0.16651,0.0684 -0.26811,0.0684 -0.10372,0 -0.18909,-0.0296 -0.24977,-0.0896 -0.0808,-0.0706 -0.11642,-0.17463 -0.11642,-0.29598 0,-0.14535 0.0547,-0.25682 0.16369,-0.32808 0.048,-0.0342 0.0963,-0.0554 0.13723,-0.0734 0.0444,-0.0162 0.14535,-0.0494 0.29775,-0.0938 0.0635,-0.0205 0.11006,-0.0438 0.13511,-0.072 0.0311,-0.0282 0.0395,-0.0677 0.0395,-0.11465 0,-0.0593 -0.0212,-0.10548 -0.0646,-0.14288 -0.0476,-0.0374 -0.10583,-0.0526 -0.18062,-0.0526 -0.0603,0 -0.12206,0.012 -0.16651,0.0286 -0.0515,0.0226 -0.11289,0.06 -0.1845,0.11288 l -0.0441,-0.17109 c 0.0956,-0.042 0.17392,-0.0684 0.23883,-0.0864 0.0663,-0.0187 0.14535,-0.0275 0.23107,-0.0275 0.13864,0 0.24906,0.0286 0.32773,0.0836 0.0702,0.0533 0.10971,0.13158 0.10971,0.23318 v 0.80116 c 0,0.0737 0.0272,0.1136 0.0794,0.1136 0.0226,0 0.0536,-0.0134 0.0871,-0.0406 v 0.14993 c -0.0688,0.0441 -0.13265,0.0656 -0.20038,0.0656 -0.0624,0 -0.11219,-0.013 -0.14711,-0.0441 -0.0314,-0.0303 -0.0564,-0.0833 -0.0744,-0.15805"
       style="fill:#009cde;fill-opacity:1;fill-rule:nonzero;stroke:none;stroke-width:0.352778"
       id="path1677" />
    <path
       d="m 179.11393,130.5495 h 0.26882 v 0.1905 c 0.0416,-0.0642 0.0808,-0.11042 0.12523,-0.14182 0.0751,-0.0522 0.17392,-0.0808 0.29492,-0.0808 0.15205,0 0.27094,0.048 0.34925,0.14146 0.0504,0.0596 0.0773,0.14358 0.0773,0.24977 v 0.90946 c 0,0.0282 0,0.0554 0.007,0.0818 h -0.28152 c 0.002,-0.0201 0.007,-0.049 0.007,-0.0818 v -0.86643 c 0,-0.0772 -0.0247,-0.13793 -0.0646,-0.17991 -0.0455,-0.0427 -0.11077,-0.0624 -0.19544,-0.0624 -0.10336,0 -0.18097,0.0289 -0.23283,0.0843 -0.0543,0.0628 -0.0811,0.14041 -0.0811,0.2353 v 0.78917 c 0,0.0282 0.004,0.0554 0.009,0.0818 h -0.28328 c 0.01,-0.0247 0.0109,-0.0505 0.0109,-0.0818 v -1.1871 c 0,-0.0254 -0.001,-0.0554 -0.0109,-0.0815"
       style="fill:#009cde;fill-opacity:1;fill-rule:nonzero;stroke:none;stroke-width:0.352778"
       id="path1681" />
    <path
       d="m 181.11555,130.65872 c -0.11006,0 -0.19261,0.0413 -0.24235,0.12488 -0.0536,0.0797 -0.078,0.18592 -0.078,0.31115 0,0.14746 0.0296,0.25788 0.0794,0.33585 0.0568,0.0794 0.13793,0.11923 0.23918,0.11923 0.11148,0 0.19121,-0.0409 0.24236,-0.12382 0.0536,-0.0861 0.078,-0.19579 0.078,-0.33126 0,-0.13547 -0.0243,-0.24095 -0.0832,-0.32138 -0.0565,-0.0744 -0.13441,-0.11254 -0.23531,-0.11465 m -0.5401,1.36948 -0.066,-0.19403 0.28999,-0.21378 c -0.078,-0.0413 -0.13794,-0.0896 -0.18063,-0.13794 -0.0705,-0.0882 -0.11006,-0.20778 -0.11006,-0.35771 0,-0.1965 0.055,-0.34855 0.16898,-0.45297 0.10548,-0.10195 0.24518,-0.15064 0.42227,-0.15064 0.0286,0 0.0723,0.002 0.13688,0.005 0.0385,-0.0152 0.0681,-0.0434 0.0924,-0.0818 0.0215,-0.0413 0.036,-0.0882 0.0395,-0.14711 h 0.25153 c -0.007,0.0632 -0.0236,0.11218 -0.0519,0.14711 -0.0261,0.0349 -0.0808,0.0769 -0.15875,0.121 0.0797,0.0363 0.13935,0.085 0.18768,0.1397 0.085,0.10795 0.12559,0.23813 0.12559,0.40252 0,0.16475 -0.0427,0.30057 -0.14147,0.40252 -0.0758,0.0815 -0.17956,0.13441 -0.31432,0.15628 -0.0272,0.004 -0.0825,0.0141 -0.16722,0.0187 -0.0519,0.006 -0.0974,0.0191 -0.13441,0.0448 l -0.248,0.14993 c 0.23636,-0.0568 0.41099,-0.0829 0.53305,-0.0829 0.13441,0 0.25506,0.0183 0.36018,0.0614 0.0487,0.0215 0.0893,0.0529 0.11783,0.0921 0.0293,0.037 0.043,0.078 0.043,0.12418 0,0.0899 -0.0455,0.1591 -0.14393,0.20708 -0.0935,0.0501 -0.23178,0.0748 -0.40852,0.0748 -0.18239,0 -0.3997,-0.0399 -0.65864,-0.11606 v -0.0504 c 0.20038,0.0529 0.37677,0.0804 0.52459,0.0804 0.10301,0 0.18767,-0.0169 0.2547,-0.0455 0.0646,-0.0303 0.0942,-0.0716 0.0942,-0.121 0,-0.0508 -0.0314,-0.085 -0.10124,-0.11466 -0.0681,-0.0286 -0.16405,-0.0437 -0.28223,-0.0437 -0.13899,0 -0.29527,0.0303 -0.47519,0.0829"
       style="fill:#009cde;fill-opacity:1;fill-rule:nonzero;stroke:none;stroke-width:0.352778"
       id="path1685" />
    <path
       d="m 182.64481,131.09486 c -0.0332,0.019 -0.0589,0.0321 -0.0727,0.0413 -0.0201,0.006 -0.085,0.03 -0.20426,0.0759 -0.09,0.0339 -0.15346,0.0755 -0.18591,0.1277 -0.0427,0.0533 -0.055,0.11219 -0.055,0.17392 0,0.0681 0.0184,0.13088 0.0561,0.17145 0.0402,0.0448 0.0949,0.0639 0.1651,0.0639 0.10302,0 0.18239,-0.0406 0.24236,-0.12877 0.0356,-0.0501 0.0543,-0.11112 0.0543,-0.17286 z m 0.01,0.62688 c -0.0522,0.0628 -0.10513,0.10725 -0.14958,0.13371 -0.0751,0.0445 -0.16616,0.0684 -0.26847,0.0684 -0.10653,0 -0.18944,-0.0296 -0.25258,-0.0896 -0.0762,-0.0706 -0.11677,-0.17463 -0.11677,-0.29598 0,-0.14535 0.0575,-0.25682 0.16898,-0.32808 0.0466,-0.0342 0.0938,-0.0554 0.13899,-0.0734 0.0395,-0.0162 0.14076,-0.0494 0.2921,-0.0938 0.0635,-0.0205 0.10866,-0.0438 0.13829,-0.072 0.0289,-0.0282 0.0395,-0.0677 0.0395,-0.11465 0,-0.0593 -0.0219,-0.10548 -0.0691,-0.14288 -0.0452,-0.0374 -0.10266,-0.0526 -0.1778,-0.0526 -0.0593,0 -0.11995,0.012 -0.16969,0.0286 -0.0462,0.0226 -0.10866,0.06 -0.18133,0.11288 l -0.0423,-0.17109 c 0.091,-0.042 0.17251,-0.0684 0.23742,-0.0864 0.067,-0.0187 0.14217,-0.0275 0.23107,-0.0275 0.13935,0 0.24624,0.0286 0.32173,0.0836 0.0769,0.0533 0.11642,0.13158 0.11642,0.23318 v 0.80116 c 0,0.0737 0.0254,0.1136 0.078,0.1136 0.0194,0 0.0494,-0.0134 0.0875,-0.0406 v 0.14993 c -0.0691,0.0441 -0.13652,0.0656 -0.19897,0.0656 -0.067,0 -0.11535,-0.013 -0.14887,-0.0441 -0.0332,-0.0303 -0.0582,-0.0833 -0.0744,-0.15805"
       style="fill:#009cde;fill-opacity:1;fill-rule:nonzero;stroke:none;stroke-width:0.352778"
       id="path1689" />
  </g>
</svg>
