<?xml version="1.0" encoding="UTF-8" standalone="no"?>
<svg
   xmlns:dc="http://purl.org/dc/elements/1.1/"
   xmlns:cc="http://creativecommons.org/ns#"
   xmlns:rdf="http://www.w3.org/1999/02/22-rdf-syntax-ns#"
   xmlns:svg="http://www.w3.org/2000/svg"
   xmlns="http://www.w3.org/2000/svg"
   xmlns:sodipodi="http://sodipodi.sourceforge.net/DTD/sodipodi-0.dtd"
   xmlns:inkscape="http://www.inkscape.org/namespaces/inkscape"
   width="26.458332mm"
   height="26.458332mm"
   viewBox="0 0 26.458332 26.458332"
   version="1.1"
   id="svg6748"
   inkscape:version="1.0.2-2 (e86c870879, 2021-01-15)"
   sodipodi:docname="atom.svg">
  <defs
     id="defs6742" />
  <sodipodi:namedview
     id="base"
     pagecolor="#ffffff"
     bordercolor="#666666"
     borderopacity="1.0"
     inkscape:pageopacity="0.0"
     inkscape:pageshadow="2"
     inkscape:zoom="0.98994949"
     inkscape:cx="86.587635"
     inkscape:cy="88.919324"
     inkscape:document-units="mm"
     inkscape:current-layer="layer1"
     inkscape:document-rotation="0"
     showgrid="false"
     fit-margin-top="0"
     fit-margin-left="0"
     fit-margin-right="0"
     fit-margin-bottom="0"
     inkscape:window-width="1267"
     inkscape:window-height="1198"
     inkscape:window-x="156"
     inkscape:window-y="156"
     inkscape:window-maximized="0" />
  <metadata
     id="metadata6745">
    <rdf:RDF>
      <cc:Work
         rdf:about="">
        <dc:format>image/svg+xml</dc:format>
        <dc:type
           rdf:resource="http://purl.org/dc/dcmitype/StillImage" />
        <dc:title></dc:title>
      </cc:Work>
    </rdf:RDF>
  </metadata>
  <g
     inkscape:label="Layer 1"
     inkscape:groupmode="layer"
     id="layer1"
     transform="translate(-92.263165,-135.76316)">
    <rect
       style="fill:none;stroke:none;stroke-width:1.02273;stroke-linecap:square;stroke-linejoin:round;stroke-opacity:1"
       id="rect7374"
       width="26.458332"
       height="26.458332"
       x="-118.7215"
       y="135.76315"
       ry="4.5620561"
       transform="scale(-1,1)" />
    <g
       id="g7626"
       transform="matrix(0.8532414,0,0,0.8532414,16.507535,22.663486)">
      <path
         d="m 104.29004,146.20479 c 1.02306,0 1.84961,0.83044 1.84961,1.85314 0,1.0227 -0.82655,1.84961 -1.84961,1.84961 -1.02306,0 -1.84891,-0.82691 -1.84891,-1.84961 0,-1.0227 0.82585,-1.85314 1.84891,-1.85314"
         style="fill:#ffffff;fill-opacity:1;fill-rule:nonzero;stroke:none;stroke-width:0.0352778"
         id="path3697-8" />
      <path
         d="m 104.29004,146.43409 c -0.89323,0 -1.61925,0.72849 -1.61925,1.62384 0,0.89323 0.72602,1.61995 1.61925,1.61995 0.89323,0 1.61996,-0.72672 1.61996,-1.61995 0,-0.89535 -0.72673,-1.62384 -1.61996,-1.62384 z m 0,3.70276 c -1.14582,0 -2.07821,-0.93275 -2.07821,-2.07892 0,-1.14829 0.93239,-2.0828 2.07821,-2.0828 1.14618,0 2.07892,0.93451 2.07892,2.0828 0,1.14617 -0.93274,2.07892 -2.07892,2.07892"
         style="fill:#4a6cbd;fill-opacity:1;fill-rule:nonzero;stroke:none;stroke-width:0.0352778"
         id="path3699-8" />
      <path
         d="m 98.90418,140.17405 c 0.57856,0.16192 1.00224,0.69603 1.00224,1.32609 0,0.7613 -0.61736,1.3776 -1.37759,1.3776 -0.11395,0 -0.22402,-0.0134 -0.32809,-0.0413 -0.59901,-0.14464 -1.047042,-0.68862 -1.047042,-1.33632 0,-0.76094 0.617362,-1.37795 1.375132,-1.37795 0.13088,0 0.25435,0.0176 0.37535,0.0519"
         style="fill:#ace4f7;fill-opacity:1;fill-rule:nonzero;stroke:none;stroke-width:0.0352778"
         id="path3701-0" />
      <path
         d="m 98.52883,140.35185 c -0.63183,0 -1.14583,0.51506 -1.14583,1.14829 0,0.53164 0.35843,0.98919 0.87172,1.11337 0.0885,0.0236 0.17886,0.0349 0.27411,0.0349 0.63323,0 1.14829,-0.51505 1.14829,-1.14829 0,-0.51329 -0.34326,-0.96767 -0.83503,-1.10525 -0.10301,-0.0293 -0.20531,-0.043 -0.31326,-0.043 z m 0,2.75519 c -0.13582,0 -0.266,-0.0162 -0.38735,-0.049 -0.71403,-0.17251 -1.217088,-0.81386 -1.217088,-1.55787 0,-0.88618 0.719668,-1.60725 1.604438,-1.60725 0.15028,0 0.29351,0.0201 0.43744,0.0603 0.68827,0.19297 1.16946,0.82903 1.16946,1.54693 0,0.88583 -0.72108,1.6069 -1.6069,1.6069"
         style="fill:#4a6cbd;fill-opacity:1;fill-rule:nonzero;stroke:none;stroke-width:0.0352778"
         id="path3703-8" />
      <path
         d="m 112.83502,140.69087 c -0.75741,0 -1.37371,-0.6163 -1.37371,-1.37442 0,-0.0586 0.004,-0.11677 0.01,-0.17604 0.0857,-0.67839 0.66463,-1.20121 1.36384,-1.20121 0.76164,0 1.37795,0.61666 1.37795,1.37725 0,0.10019 -0.0109,0.19261 -0.0314,0.2861 -0.13053,0.61983 -0.68545,1.08832 -1.34656,1.08832"
         style="fill:#ace4f7;fill-opacity:1;fill-rule:nonzero;stroke:none;stroke-width:0.0352778"
         id="path3705-4" />
      <path
         d="m 112.83502,138.16851 c -0.57573,0 -1.06397,0.43003 -1.13629,1.00083 -0.005,0.0469 -0.008,0.097 -0.008,0.14711 0,0.63147 0.51329,1.14476 1.14441,1.14476 0.53975,0 1.01176,-0.381 1.12218,-0.90593 0.018,-0.0822 0.0261,-0.15734 0.0261,-0.23883 0,-0.63289 -0.51505,-1.14794 -1.14829,-1.14794 z m 0,2.75166 c -0.88406,0 -1.60337,-0.71931 -1.60337,-1.60372 0,-0.0667 0.004,-0.13335 0.0116,-0.20109 0.1016,-0.80257 0.78564,-1.40546 1.59173,-1.40546 0.88618,0 1.60726,0.72072 1.60726,1.60655 0,0.1143 -0.012,0.22401 -0.037,0.33549 -0.15452,0.73413 -0.81492,1.26823 -1.57022,1.26823"
         style="fill:#4a6cbd;fill-opacity:1;fill-rule:nonzero;stroke:none;stroke-width:0.0352778"
         id="path3707-0" />
      <path
         d="m 108.78478,152.84124 c 0.14782,0.22084 0.2346,0.48578 0.2346,0.76871 0,0.76058 -0.61983,1.37759 -1.37725,1.37759 -0.48648,0 -0.91298,-0.25188 -1.15781,-0.63041 -0.13759,-0.21343 -0.22014,-0.47202 -0.22014,-0.74718 0,-0.75812 0.61631,-1.37125 1.37795,-1.37125 0.47096,0 0.89112,0.2413 1.14265,0.60254"
         style="fill:#ace4f7;fill-opacity:1;fill-rule:nonzero;stroke:none;stroke-width:0.0352778"
         id="path3709-3" />
      <path
         d="m 107.64213,152.46836 c -0.63323,0 -1.14829,0.51188 -1.14829,1.14159 0,0.22154 0.0631,0.43673 0.18309,0.623 0.21273,0.32879 0.57327,0.52529 0.9652,0.52529 0.63289,0 1.14794,-0.51506 1.14794,-1.14829 0,-0.22825 -0.0677,-0.4498 -0.19579,-0.641 -0.21731,-0.31221 -0.57432,-0.50059 -0.95215,-0.50059 z m 0,2.74884 c -0.54821,0 -1.05304,-0.27517 -1.35043,-0.73554 -0.16792,-0.2607 -0.25682,-0.56198 -0.25682,-0.87171 0,-0.88265 0.72108,-1.60056 1.60726,-1.60056 0.5281,0 1.02552,0.26212 1.33067,0.70097 0.18133,0.27058 0.27588,0.58067 0.27588,0.89959 0,0.88617 -0.72073,1.60725 -1.60655,1.60725"
         style="fill:#4a6cbd;fill-opacity:1;fill-rule:nonzero;stroke:none;stroke-width:0.0352778"
         id="path3711-4" />
      <path
         d="m 114.41617,148.05793 c -0.98142,1.24671 -2.26236,2.49696 -3.78177,3.66395 0.15487,-1.16346 0.23741,-2.39325 0.23741,-3.66395 0,-1.26718 -0.0825,-2.49732 -0.23741,-3.66113 1.51941,1.16734 2.80035,2.41371 3.78177,3.66113"
         style="fill:#f7fcff;fill-opacity:1;fill-rule:nonzero;stroke:none;stroke-width:0.0352778"
         id="path3713-8" />
      <path
         d="m 110.92932,144.91997 c 0.11394,1.02164 0.1718,2.07433 0.1718,3.13796 0,1.06539 -0.0579,2.11913 -0.1718,3.14078 1.24813,-1.00154 2.32022,-2.05599 3.19369,-3.14078 -0.86924,-1.07985 -1.94133,-2.13325 -3.19369,-3.13796 z m -0.29492,7.03157 c -0.0395,0 -0.0794,-0.0106 -0.11466,-0.031 -0.0804,-0.0466 -0.12488,-0.13688 -0.11253,-0.22895 0.15628,-1.17228 0.2353,-2.39501 0.2353,-3.63361 0,-1.23649 -0.079,-2.45816 -0.2353,-3.63079 -0.0124,-0.0921 0.0321,-0.18239 0.11253,-0.22895 0.0797,-0.0469 0.18098,-0.0399 0.25471,0.0166 1.52647,1.17334 2.81234,2.41899 3.82199,3.70099 0.0653,0.0836 0.0653,0.20073 0,0.28398 -1.01494,1.28905 -2.30117,2.53507 -3.82199,3.70417 -0.0413,0.0314 -0.0903,0.0476 -0.14005,0.0476"
         style="fill:#4a6cbd;fill-opacity:1;fill-rule:nonzero;stroke:none;stroke-width:0.0352778"
         id="path3715-2" />
      <path
         d="m 110.6344,151.72188 c -0.25154,1.89759 -0.69251,3.63361 -1.28165,5.10434 -1.57021,-0.22684 -3.29177,-0.71261 -5.06624,-1.44639 0.72708,-0.29598 1.46121,-0.64064 2.19781,-1.0227 0.24483,0.37853 0.67133,0.63041 1.15781,0.63041 0.75742,0 1.37725,-0.61701 1.37725,-1.37759 0,-0.28293 -0.0868,-0.54787 -0.2346,-0.76871 l 0.14782,0.0864 c 0.59654,-0.38911 1.16451,-0.79234 1.7018,-1.20579"
         style="fill:#f7fcff;fill-opacity:1;fill-rule:nonzero;stroke:none;stroke-width:0.0352778"
         id="path3717-3" />
      <path
         d="m 104.88906,155.37454 c 1.49613,0.58173 2.94534,0.9839 4.31729,1.19768 0.5013,-1.29293 0.87806,-2.74743 1.12254,-4.33352 -0.38206,0.28151 -0.77646,0.55562 -1.17792,0.81985 0.0646,0.17604 0.0977,0.36231 0.0977,0.5514 0,0.88617 -0.72072,1.60725 -1.60655,1.60725 -0.47766,0 -0.92216,-0.20884 -1.22555,-0.56727 -0.52246,0.2667 -1.03399,0.50942 -1.52752,0.72461 z m 4.46369,1.68099 c -0.0106,0 -0.0215,-7.1e-4 -0.0328,-0.002 -1.61854,-0.23425 -3.34151,-0.72602 -5.12092,-1.46191 -0.0861,-0.0353 -0.14182,-0.11959 -0.14182,-0.21237 0,-0.0931 0.0568,-0.17675 0.14288,-0.21202 0.69003,-0.28046 1.4231,-0.6216 2.17911,-1.01353 0.10336,-0.0547 0.23389,-0.0205 0.29774,0.0794 0.21273,0.32879 0.57327,0.52529 0.9652,0.52529 0.63289,0 1.14794,-0.51506 1.14794,-1.14829 0,-0.22825 -0.0677,-0.4498 -0.19579,-0.641 -0.0596,-0.0889 -0.0497,-0.20673 0.0233,-0.28469 0.0737,-0.0783 0.18979,-0.096 0.28293,-0.0406 l 0.025,0.0145 c 0.54081,-0.35701 1.06821,-0.73272 1.56915,-1.11795 0.0734,-0.0565 0.17322,-0.0635 0.25436,-0.0166 0.0804,0.0462 0.12488,0.13652 0.11288,0.22824 -0.25294,1.90818 -0.68932,3.64385 -1.2961,5.15973 -0.0353,0.0878 -0.1203,0.14394 -0.21308,0.14394"
         style="fill:#4a6cbd;fill-opacity:1;fill-rule:nonzero;stroke:none;stroke-width:0.0352778"
         id="path3719-6" />
      <path
         d="m 101.00074,153.75776 c 1.09925,0.63359 2.20098,1.17475 3.28577,1.62207 -1.77024,0.73378 -3.49179,1.21955 -5.05918,1.44639 -0.58844,-1.47391 -1.03012,-3.20675 -1.28094,-5.10716 0.93345,0.71966 1.95651,1.40476 3.05435,2.0387"
         style="fill:#f7fcff;fill-opacity:1;fill-rule:nonzero;stroke:none;stroke-width:0.0352778"
         id="path3721-2" />
      <path
         d="m 98.2519,152.23623 c 0.24306,1.58115 0.61947,3.03671 1.12218,4.33599 1.37301,-0.21414 2.82046,-0.61666 4.31236,-1.19839 -0.93839,-0.41028 -1.87819,-0.88617 -2.8,-1.41746 -0.92393,-0.5334 -1.80799,-1.11054 -2.63454,-1.72014 z m 0.97543,4.8193 c -0.0928,0 -0.1778,-0.0565 -0.21273,-0.14429 -0.60889,-1.52435 -1.04457,-3.26143 -1.2954,-5.1622 -0.012,-0.0921 0.0321,-0.18238 0.11289,-0.22895 0.0804,-0.0455 0.18097,-0.0395 0.25435,0.0173 0.93557,0.72107 1.95474,1.40158 3.0293,2.02177 1.0721,0.61806 2.16818,1.15922 3.25826,1.60866 0.0857,0.0353 0.14146,0.11889 0.14182,0.21167 0,0.0928 -0.0557,0.17674 -0.14147,0.21202 -1.77376,0.73519 -3.49426,1.22731 -5.11422,1.46191 -0.0109,0.001 -0.0219,0.002 -0.0328,0.002"
         style="fill:#4a6cbd;fill-opacity:1;fill-rule:nonzero;stroke:none;stroke-width:0.0352778"
         id="path3723-9" />
      <path
         d="m 97.70897,148.05793 c 0,1.26718 0.0826,2.49696 0.23742,3.66113 -1.519062,-1.1677 -2.799998,-2.41442 -3.781779,-3.66113 0.981781,-1.24742 2.262717,-2.49379 3.781779,-3.66113 -0.15487,1.16381 -0.23742,2.38972 -0.23742,3.66113"
         style="fill:#f7fcff;fill-opacity:1;fill-rule:nonzero;stroke:none;stroke-width:0.0352778"
         id="path3725-0" />
      <path
         d="m 94.458123,148.05793 c 0.86995,1.0802 1.941689,2.13325 3.193347,3.1376 -0.11395,-1.02199 -0.17181,-2.07539 -0.17181,-3.1376 0,-1.06257 0.0579,-2.11561 0.17181,-3.13796 -1.252011,1.00471 -2.324103,2.05811 -3.193347,3.13796 z m 3.488267,3.89043 c -0.0494,0 -0.0988,-0.0162 -0.1397,-0.0476 -1.525765,-1.17264 -2.81164,-2.41794 -3.821995,-3.701 -0.06562,-0.0832 -0.06562,-0.20037 0,-0.28398 1.00965,-1.28235 2.295525,-2.52765 3.821995,-3.70099 0.0737,-0.0564 0.17427,-0.0632 0.25435,-0.0166 0.0804,0.0462 0.12489,0.13687 0.11289,0.22895 -0.15628,1.17404 -0.23565,2.39571 -0.23565,3.63079 0,1.21602 0.0769,2.41864 0.22824,3.57575 0.0106,0.0265 0.0162,0.0554 0.0162,0.0854 3.5e-4,0.12805 -0.11571,0.23636 -0.23283,0.2293 -10e-4,0 -0.002,0 -0.004,0"
         style="fill:#4a6cbd;fill-opacity:1;fill-rule:nonzero;stroke:none;stroke-width:0.0352778"
         id="path3727-0" />
      <path
         d="m 104.29004,140.73567 c -1.08479,0.44415 -2.19004,0.98849 -3.2893,1.62172 -1.09784,0.63394 -2.1209,1.32257 -3.05435,2.03941 0.004,-0.0138 0.004,-0.0275 0.007,-0.0416 0.0681,-0.51646 0.15134,-1.0227 0.24694,-1.512 v -0.007 c 0.10407,0.0279 0.21414,0.0413 0.32809,0.0413 0.76023,0 1.37759,-0.6163 1.37759,-1.3776 0,-0.63006 -0.42368,-1.16417 -1.00224,-1.32609 0.0991,-0.30656 0.20955,-0.59902 0.32315,-0.88512 1.57021,0.22754 3.29283,0.71296 5.06271,1.44674"
         style="fill:#f7fcff;fill-opacity:1;fill-rule:nonzero;stroke:none;stroke-width:0.0352778"
         id="path3729-4" />
      <path
         d="m 98.38524,143.10069 c -0.048,0.25788 -0.0921,0.51824 -0.13229,0.77894 0.83856,-0.61736 1.72226,-1.19486 2.63314,-1.7205 0.93098,-0.53693 1.87113,-1.01247 2.80246,-1.41852 -1.49048,-0.58067 -2.93863,-0.98319 -4.31447,-1.19768 -0.0691,0.1778 -0.12876,0.33937 -0.18168,0.49248 0.5655,0.25647 0.94333,0.82832 0.94333,1.46473 0,0.88583 -0.72108,1.6069 -1.6069,1.6069 -0.0487,0 -0.0967,-0.002 -0.14359,-0.006 z m -0.43885,1.52542 c -0.0441,0 -0.0882,-0.0127 -0.127,-0.0385 -0.0794,-0.0529 -0.11748,-0.14887 -0.0967,-0.24165 0.002,-0.0123 0.007,-0.0409 0.009,-0.048 0.0617,-0.48154 0.14534,-0.99307 0.24341,-1.49401 0.01,-0.0572 0.0402,-0.11042 0.0864,-0.14605 0.0568,-0.0434 0.13053,-0.0614 0.19897,-0.043 0.0829,0.0222 0.17322,0.0335 0.26847,0.0335 0.63323,0 1.14829,-0.51505 1.14829,-1.14829 0,-0.51329 -0.34326,-0.96767 -0.83503,-1.10525 -0.06,-0.0169 -0.11077,-0.0575 -0.14005,-0.11218 -0.0296,-0.0554 -0.0353,-0.11995 -0.0162,-0.17922 0.0875,-0.27058 0.19191,-0.55597 0.32844,-0.89923 0.0392,-0.0984 0.14146,-0.15592 0.24588,-0.14217 1.62348,0.23531 3.34539,0.72673 5.11775,1.46156 0.0857,0.0356 0.14146,0.11959 0.14146,0.21237 -3.5e-4,0.0928 -0.0564,0.17675 -0.14252,0.21167 -1.07985,0.44203 -2.17699,0.98319 -3.26143,1.60867 -1.05657,0.60995 -2.0761,1.29046 -3.0293,2.02212 -0.0409,0.0314 -0.0903,0.0476 -0.1397,0.0476"
         style="fill:#4a6cbd;fill-opacity:1;fill-rule:nonzero;stroke:none;stroke-width:0.0352778"
         id="path3731-4" />
      <path
         d="m 109.35275,139.28893 c 0.58914,1.47426 1.03012,3.20675 1.28165,5.10787 -0.9331,-0.71967 -1.95616,-1.40547 -3.05506,-2.03941 -1.0982,-0.63323 -2.20098,-1.17404 -3.2893,-1.62172 1.77094,-0.73378 3.49603,-1.2192 5.06271,-1.44674"
         style="fill:#f7fcff;fill-opacity:1;fill-rule:nonzero;stroke:none;stroke-width:0.0352778"
         id="path3733-5" />
      <path
         d="m 104.89117,140.74132 c 0.94333,0.41169 1.88384,0.88759 2.80282,1.41746 0.92252,0.53234 1.80658,1.10948 2.6349,1.72014 -0.24412,-1.58291 -0.62054,-3.03847 -1.12254,-4.33599 -1.3589,0.21308 -2.83739,0.62406 -4.31518,1.19839 z m 5.74323,3.88479 c -0.0497,0 -0.0988,-0.0162 -0.1397,-0.048 -0.93804,-0.72284 -1.95722,-1.403 -3.03001,-2.02177 -1.06821,-0.6163 -2.16571,-1.15747 -3.26179,-1.60867 -0.0861,-0.0353 -0.14217,-0.11924 -0.14252,-0.21167 0,-0.0931 0.0557,-0.17674 0.14182,-0.21237 1.77235,-0.73413 3.49426,-1.2259 5.11739,-1.46156 0.11042,-0.0127 0.20673,0.0434 0.24624,0.14182 0.60219,1.50636 1.03541,3.2251 1.28835,5.10752 0.0106,0.0265 0.0166,0.055 0.0166,0.0854 0,0.12665 -0.10266,0.22931 -0.22931,0.22931 -0.002,3.5e-4 -0.005,3.5e-4 -0.007,0"
         style="fill:#4a6cbd;fill-opacity:1;fill-rule:nonzero;stroke:none;stroke-width:0.0352778"
         id="path3735-3" />
      <path
         d="m 110.87181,148.05793 c 0,1.2707 -0.0825,2.50049 -0.23741,3.66395 -0.53728,0.41345 -1.10526,0.81668 -1.7018,1.20579 l -0.14782,-0.0864 c -0.25153,-0.36124 -0.67169,-0.60254 -1.14265,-0.60254 -0.76164,0 -1.37795,0.61313 -1.37795,1.37125 0,0.27516 0.0825,0.53375 0.22014,0.74718 -0.7366,0.38206 -1.47073,0.72672 -2.19781,1.0227 -1.08479,-0.44732 -2.18651,-0.98848 -3.28577,-1.62207 -1.09784,-0.63394 -2.1209,-1.31904 -3.05435,-2.0387 -0.15487,-1.16417 -0.23742,-2.39395 -0.23742,-3.66113 0,-1.27141 0.0826,-2.49732 0.23742,-3.66113 0.93345,-0.71684 1.95651,-1.40547 3.05435,-2.03941 1.09926,-0.63323 2.20451,-1.17757 3.2893,-1.62172 1.08832,0.44768 2.1911,0.98849 3.2893,1.62172 1.0989,0.63394 2.12196,1.31974 3.05506,2.03941 0.15487,1.16381 0.23741,2.39395 0.23741,3.66113 z m -4.73216,0 c 0,-1.0227 -0.82656,-1.85314 -1.84961,-1.85314 -1.02306,0 -1.84891,0.83044 -1.84891,1.85314 0,1.0227 0.82585,1.84961 1.84891,1.84961 1.02305,0 1.84961,-0.82691 1.84961,-1.84961"
         style="fill:#f7fcff;fill-opacity:1;fill-rule:nonzero;stroke:none;stroke-width:0.0352778"
         id="path3737-2" />
      <path
         d="m 104.29004,146.43409 c -0.89323,0 -1.61925,0.72849 -1.61925,1.62384 0,0.89323 0.72602,1.61995 1.61925,1.61995 0.89323,0 1.61996,-0.72672 1.61996,-1.61995 0,-0.89535 -0.72673,-1.62384 -1.61996,-1.62384 z m 0,3.70276 c -1.14582,0 -2.07821,-0.93275 -2.07821,-2.07892 0,-1.14829 0.93239,-2.0828 2.07821,-2.0828 1.14618,0 2.07892,0.93451 2.07892,2.0828 0,1.14617 -0.93274,2.07892 -2.07892,2.07892 z m -6.12846,1.45803 c 0.91476,0.69991 1.90818,1.36031 2.95417,1.96427 1.04351,0.60148 2.10996,1.1303 3.17147,1.57233 0.60078,-0.24765 1.23366,-0.54011 1.88489,-0.87172 -0.09,-0.20355 -0.13723,-0.42439 -0.13723,-0.64981 0,-0.88265 0.72108,-1.60056 1.60726,-1.60056 0.50482,0 0.98213,0.23954 1.28975,0.64453 0.51153,-0.33761 1.01106,-0.69251 1.48766,-1.05587 0.14817,-1.1437 0.22296,-2.33433 0.22296,-3.54012 0,-1.20368 -0.0748,-2.39325 -0.22296,-3.5373 -0.91686,-0.70133 -1.91064,-1.36208 -2.95486,-1.96427 -1.03999,-0.59972 -2.1075,-1.12854 -3.175,-1.57269 -1.05163,0.43533 -2.11879,0.96415 -3.1743,1.57269 -1.0287,0.59372 -2.02247,1.25483 -2.95381,1.96462 -0.14816,1.14511 -0.2233,2.33433 -0.2233,3.53695 0,1.20226 0.0751,2.39183 0.2233,3.53695 z m 6.12493,4.01426 c -0.0296,0 -0.0593,-0.006 -0.0875,-0.0176 -1.10843,-0.45685 -2.22285,-1.00683 -3.31258,-1.63513 -1.0922,-0.63076 -2.12831,-1.32221 -3.0801,-2.05599 -0.0476,-0.0367 -0.079,-0.0914 -0.0871,-0.15134 -0.15911,-1.1938 -0.23954,-2.43593 -0.23954,-3.69111 0,-1.25554 0.0804,-2.49732 0.23954,-3.69147 0.008,-0.06 0.0395,-0.11465 0.0875,-0.15169 0.96908,-0.74366 2.00519,-1.43546 3.07939,-2.05564 1.10243,-0.63571 2.21827,-1.18569 3.31717,-1.63583 0.0557,-0.0226 0.11818,-0.0226 0.17392,0 1.11513,0.45932 2.23097,1.00965 3.31682,1.63548 1.09044,0.629 2.12654,1.3208 3.08046,2.05634 0.048,0.037 0.0794,0.0914 0.0875,0.15134 0.15875,1.19274 0.23918,2.43452 0.23918,3.69147 0,1.25906 -0.0804,2.5019 -0.23918,3.69429 -0.008,0.06 -0.0399,0.1143 -0.0875,0.15169 -0.54716,0.42051 -1.12466,0.82974 -1.71662,1.21567 -0.073,0.048 -0.16581,0.0501 -0.24095,0.006 l -0.14781,-0.0864 c -0.0286,-0.0166 -0.0536,-0.0399 -0.0723,-0.067 -0.21978,-0.31538 -0.57679,-0.50376 -0.95462,-0.50376 -0.63324,0 -1.14829,0.51188 -1.14829,1.14159 0,0.22154 0.0631,0.43673 0.18309,0.623 0.0353,0.0543 0.0455,0.12065 0.0289,0.18309 -0.0166,0.0624 -0.0586,0.11501 -0.11606,0.14464 -0.76835,0.39829 -1.51412,0.74542 -2.21686,1.03152 -0.0279,0.0109 -0.0572,0.0169 -0.0864,0.0169"
         style="fill:#4a6cbd;fill-opacity:1;fill-rule:nonzero;stroke:none;stroke-width:0.0352778"
         id="path3739-1" />
      <path
         d="m 114.41617,148.05793 c 2.0179,2.55905 2.77954,5.10046 1.75931,6.86047 -1.016,1.76318 -3.59551,2.37631 -6.82273,1.90782 0.58914,-1.47073 1.03012,-3.20675 1.28165,-5.10434 1.51941,-1.16699 2.80035,-2.41724 3.78177,-3.66395"
         style="fill:#c2ebf9;fill-opacity:1;fill-rule:nonzero;stroke:none;stroke-width:0.0352778"
         id="path3741-8" />
      <path
         d="m 109.67237,156.63819 c 0.57891,0.0734 1.13771,0.11007 1.6637,0.11007 2.27013,0 3.91831,-0.69039 4.6408,-1.94416 0.90593,-1.56351 0.33513,-3.87668 -1.56387,-6.37576 -0.96767,1.18675 -2.165,2.33539 -3.56412,3.41772 -0.23883,1.75754 -0.63429,3.36761 -1.17651,4.79213 z m 1.6637,0.56868 c -0.63465,0 -1.31268,-0.0515 -2.01648,-0.15346 -0.0695,-0.0106 -0.13052,-0.0519 -0.16545,-0.11289 -0.0353,-0.0607 -0.0406,-0.13441 -0.0141,-0.19967 0.59267,-1.4799 1.01918,-3.17888 1.26718,-5.04896 0.008,-0.0603 0.0395,-0.11465 0.0875,-0.15169 1.49119,-1.14547 2.74955,-2.36467 3.74121,-3.62444 0.0434,-0.055 0.11006,-0.0875 0.18027,-0.0875 v 0 c 0.0702,0 0.13617,0.0325 0.18026,0.0875 2.16183,2.74179 2.80988,5.33612 1.77765,7.11764 -0.8075,1.40159 -2.59715,2.17347 -5.03802,2.17347"
         style="fill:#4a6cbd;fill-opacity:1;fill-rule:nonzero;stroke:none;stroke-width:0.0352778"
         id="path3743-6" />
      <path
         d="m 92.404603,141.19393 c 1.016,-1.76318 3.595511,-2.37349 6.822727,-1.905 -0.1136,0.2861 -0.22402,0.57856 -0.32315,0.88512 -0.121,-0.0342 -0.24447,-0.0519 -0.37535,-0.0519 -0.75777,0 -1.375132,0.61701 -1.375132,1.37795 0,0.6477 0.448032,1.19168 1.047042,1.33632 v 0.007 c -0.0956,0.4893 -0.17886,0.99554 -0.24694,1.512 -0.004,0.0141 -0.004,0.0279 -0.007,0.0416 -1.519063,1.16734 -2.799999,2.41371 -3.78178,3.66113 -2.017889,-2.56258 -2.779183,-5.10082 -1.760008,-6.864"
         style="fill:#c2ebf9;fill-opacity:1;fill-rule:nonzero;stroke:none;stroke-width:0.0352778"
         id="path3745-1" />
      <path
         d="m 97.239776,139.36654 c -2.268362,0 -3.915129,0.68933 -4.636559,1.94169 -0.903817,1.56351 -0.33267,3.87809 1.564922,6.37893 0.963789,-1.18181 2.162528,-2.3301 3.566941,-3.41736 0.0536,-0.41275 0.12311,-0.84631 0.20355,-1.276 -0.60643,-0.23706 -1.014238,-0.82373 -1.014238,-1.49366 0,-0.88618 0.719668,-1.60725 1.604438,-1.60725 0.0755,0 0.14922,0.005 0.22225,0.0152 0.0469,-0.13618 0.0988,-0.27799 0.15698,-0.4311 -0.58102,-0.0734 -1.14088,-0.11042 -1.668284,-0.11042 z m -3.075165,8.92069 c -0.0702,0 -0.136525,-0.0325 -0.179916,-0.0875 -2.160411,-2.7432 -2.808817,-5.33893 -1.778353,-7.12082 0.80645,-1.39982 2.593975,-2.17099 5.033434,-2.17099 0.635704,0 1.315504,0.0519 2.020354,0.15416 0.0695,0.0102 0.13053,0.0515 0.16581,0.11219 0.0349,0.0607 0.0406,0.13441 0.0145,0.19932 -0.13264,0.33408 -0.23389,0.61066 -0.3182,0.87101 -0.0381,0.11747 -0.16193,0.18379 -0.28046,0.15028 -0.10266,-0.0293 -0.20497,-0.043 -0.31292,-0.043 -0.63182,0 -1.14582,0.51506 -1.14582,1.14829 0,0.53164 0.35842,0.98919 0.87171,1.11337 0.10301,0.0247 0.17533,0.11712 0.17533,0.22295 0,0.0148 -0.001,0.0363 -0.004,0.0508 -0.0963,0.49319 -0.17885,0.99695 -0.24482,1.49755 -0.006,0.0374 -0.008,0.0536 -0.0127,0.0702 -0.0127,0.049 -0.042,0.0924 -0.0822,0.12347 -1.496132,1.15006 -2.755196,2.36855 -3.74121,3.62126 -0.04339,0.055 -0.109714,0.0875 -0.18027,0.0875"
         style="fill:#4a6cbd;fill-opacity:1;fill-rule:nonzero;stroke:none;stroke-width:0.0352778"
         id="path3747-6" />
      <path
         d="m 97.94639,151.71906 c 0.25082,1.90041 0.6925,3.63325 1.28094,5.10716 -3.227216,0.46849 -5.806727,-0.14464 -6.822727,-1.90782 -1.019175,-1.76001 -0.257881,-4.30142 1.760008,-6.86047 0.981781,1.24671 2.262717,2.49343 3.781779,3.66113"
         style="fill:#7dd5f6;fill-opacity:1;fill-rule:nonzero;stroke:none;stroke-width:0.0352778"
         id="path3749-5" />
      <path
         d="m 94.167786,148.42799 c -1.89865,2.49908 -2.469797,4.8126 -1.564569,6.3754 0.722489,1.25448 2.370667,1.94487 4.640792,1.94487 0.526341,0 1.084791,-0.0367 1.664051,-0.11007 -0.54363,-1.43228 -0.93874,-3.04306 -1.17651,-4.79531 -1.402647,-1.08585 -2.599975,-2.23308 -3.563764,-3.41489 z m 3.076223,8.77888 c -2.441223,0 -4.230159,-0.77188 -5.03802,-2.17417 -1.031522,-1.78118 -0.383469,-4.37515 1.778706,-7.11694 0.04339,-0.055 0.109714,-0.0875 0.179916,-0.0875 h 3.53e-4 c 0.0702,0 0.136525,0.0325 0.179917,0.0875 0.986719,1.25342 2.245431,2.47156 3.741209,3.62126 0.0483,0.037 0.0797,0.0917 0.0878,0.15205 0.24589,1.86337 0.67204,3.56306 1.26647,5.05213 0.0261,0.0653 0.0208,0.13864 -0.0145,0.19967 -0.0353,0.0607 -0.096,0.10196 -0.1658,0.11254 -0.70309,0.10195 -1.38184,0.15346 -2.01613,0.15346"
         style="fill:#4a6cbd;fill-opacity:1;fill-rule:nonzero;stroke:none;stroke-width:0.0352778"
         id="path3751-4" />
      <path
         d="m 111.46131,139.31645 c 0,0.75812 0.6163,1.37442 1.37371,1.37442 0.66111,0 1.21603,-0.46849 1.34656,-1.08832 l 0.0448,0.0102 c 0.86431,0.34078 1.536,0.86466 1.9491,1.58115 1.02023,1.76318 0.25859,4.3053 -1.75931,6.864 -0.98143,-1.24742 -2.26236,-2.49379 -3.78178,-3.66113 -0.25153,-1.90112 -0.6925,-3.63361 -1.28164,-5.10787 0.73448,-0.10689 1.43334,-0.15804 2.08774,-0.15169 l 0.0307,0.003 c -0.006,0.0593 -0.01,0.11748 -0.01,0.17604"
         style="fill:#7dd5f6;fill-opacity:1;fill-rule:nonzero;stroke:none;stroke-width:0.0352778"
         id="path3753-7" />
      <path
         d="m 110.84888,144.27262 c 1.40371,1.08621 2.60103,2.23379 3.56412,3.41454 1.89865,-2.49873 2.4698,-4.8133 1.56422,-6.37858 -0.34784,-0.60254 -0.90135,-1.07421 -1.64783,-1.40441 -0.23777,0.60149 -0.82938,1.016 -1.49437,1.016 -0.86712,0 -1.5755,-0.6925 -1.60231,-1.55363 -0.49283,0.005 -1.01636,0.0413 -1.56034,0.11042 0.54293,1.42946 0.93839,3.04095 1.17651,4.79566 z m 3.56729,4.01461 v 0 c -0.0702,-3.5e-4 -0.13687,-0.0325 -0.18027,-0.0875 -0.98601,-1.25271 -2.24437,-2.4712 -3.7412,-3.62126 -0.048,-0.037 -0.0797,-0.0914 -0.0875,-0.15169 -0.2473,-1.86655 -0.67346,-3.56659 -1.26718,-5.05284 -0.0265,-0.0649 -0.0208,-0.13864 0.0141,-0.19967 0.0349,-0.0607 0.096,-0.10196 0.16545,-0.11219 0.70556,-0.1023 1.38148,-0.15451 2.00942,-0.15451 l 0.11395,3.5e-4 c 0.007,3.5e-4 0.0444,0.004 0.0515,0.005 0.0607,0.006 0.11677,0.036 0.15522,0.0836 0.0381,0.048 0.0561,0.10901 0.0497,0.16969 -0.006,0.0505 -0.009,0.10054 -0.009,0.15064 0,0.63147 0.51329,1.14476 1.14441,1.14476 0.53975,0 1.01177,-0.381 1.12219,-0.90593 0.0127,-0.0603 0.049,-0.11289 0.10089,-0.14605 0.0519,-0.0332 0.1143,-0.0434 0.17498,-0.0303 l 0.0448,0.0102 c 0.97297,0.381 1.66724,0.94615 2.09657,1.6898 1.03152,1.78435 0.38347,4.37939 -1.77801,7.12082 -0.0441,0.055 -0.11007,0.0875 -0.18027,0.0875"
         style="fill:#4a6cbd;fill-opacity:1;fill-rule:nonzero;stroke:none;stroke-width:0.0352778"
         id="path3755-8" />
      <path
         d="m 109.35275,156.82622 c -1.20861,3.02754 -3.02683,4.95618 -5.06271,4.95618 -2.03517,0 -3.85339,-1.92864 -5.06271,-4.95618 1.56739,-0.22684 3.28894,-0.71261 5.05918,-1.44639 1.77447,0.73378 3.49603,1.21955 5.06624,1.44639"
         style="fill:#76d3f6;fill-opacity:1;fill-rule:nonzero;stroke:none;stroke-width:0.0352778"
         id="path3757-0" />
      <path
         d="m 99.55012,157.00861 c 1.21602,2.89277 2.9344,4.54448 4.73992,4.54448 1.80658,0 3.5246,-1.65171 4.74028,-4.54413 -1.50707,-0.24483 -3.10092,-0.70873 -4.74381,-1.38113 -1.63759,0.67205 -3.22862,1.1356 -4.73639,1.38078 z m 4.73992,5.00309 c -2.05811,0 -3.9811,-1.85914 -5.27544,-5.10046 -0.0265,-0.0649 -0.0212,-0.13864 0.0141,-0.19967 0.0353,-0.0607 0.0963,-0.10196 0.16581,-0.11219 1.58221,-0.2293 3.26566,-0.71084 5.00415,-1.43157 0.0557,-0.0233 0.11924,-0.0236 0.17533,0 1.74449,0.72143 3.43076,1.20297 5.01156,1.43157 0.0695,0.01 0.13053,0.0515 0.16581,0.11219 0.0349,0.061 0.0406,0.13441 0.0145,0.19967 -1.29399,3.24132 -3.21663,5.10046 -5.27579,5.10046"
         style="fill:#4a6cbd;fill-opacity:1;fill-rule:nonzero;stroke:none;stroke-width:0.0352778"
         id="path3759-6" />
      <path
         d="m 104.29004,134.33275 c 2.03588,0 3.8541,1.92899 5.06271,4.95618 -1.56668,0.22754 -3.29177,0.71296 -5.06271,1.44674 -1.76989,-0.73378 -3.4925,-1.2192 -5.06271,-1.44674 0.007,-0.0205 0.0169,-0.0413 0.0243,-0.0621 1.20897,-2.99297 3.0166,-4.89409 5.03837,-4.89409"
         style="fill:#76d3f6;fill-opacity:1;fill-rule:nonzero;stroke:none;stroke-width:0.0352778"
         id="path3761-0" />
      <path
         d="m 99.54941,139.10654 c 1.51095,0.24518 3.10409,0.70909 4.74063,1.38113 1.63618,-0.67134 3.22933,-1.13524 4.74028,-1.38077 -1.21568,-2.89278 -2.93406,-4.54449 -4.74028,-4.54449 -1.80481,0 -3.52531,1.65241 -4.74063,4.54413 z m 4.74063,1.85844 c -0.03,0 -0.0596,-0.006 -0.0878,-0.0176 -1.73708,-0.72037 -3.42194,-1.20192 -5.00768,-1.43122 -0.0677,-0.0102 -0.12771,-0.0497 -0.16334,-0.1083 -0.0356,-0.0586 -0.043,-0.12983 -0.0201,-0.19474 10e-4,-0.004 0.0148,-0.0388 0.0166,-0.0427 1.30458,-3.23074 3.21839,-5.06695 5.26239,-5.06695 2.05881,0 3.9818,1.85914 5.27579,5.10046 0.0261,0.0656 0.0205,0.139 -0.0145,0.19967 -0.0349,0.0607 -0.0963,0.10196 -0.16545,0.11254 -1.56386,0.22648 -3.29565,0.72178 -5.00803,1.43122 -0.0282,0.012 -0.0579,0.0176 -0.0878,0.0176"
         style="fill:#4a6cbd;fill-opacity:1;fill-rule:nonzero;stroke:none;stroke-width:0.0352778"
         id="path3763-3" />
      <path
         d="m 104.29004,162.0117 c -2.05811,0 -3.9811,-1.85914 -5.27544,-5.10046 -0.60889,-1.52435 -1.04457,-3.26143 -1.2954,-5.1622 -0.1591,-1.1938 -0.23954,-2.43593 -0.23954,-3.69111 0,-1.25554 0.0804,-2.49732 0.23954,-3.69147 0.006,-0.0363 0.008,-0.0522 0.0123,-0.0684 0.0621,-0.4833 0.14605,-0.9966 0.24448,-1.49895 0.0243,-0.12383 0.14287,-0.20743 0.26881,-0.18062 0.12418,0.024 0.20532,0.14464 0.18098,0.26881 -0.0963,0.49319 -0.17886,0.99695 -0.24483,1.49755 -0.006,0.0374 -0.008,0.0536 -0.0127,0.0702 -0.15064,1.14617 -0.23001,2.36749 -0.23001,3.60292 0,1.23543 0.0794,2.45639 0.23565,3.63079 0.24589,1.86372 0.67205,3.56341 1.26648,5.05248 1.22131,3.05823 2.98873,4.81189 4.84963,4.81189 1.86126,0 3.62938,-1.75366 4.84999,-4.81189 0.59267,-1.48025 1.01918,-3.17923 1.26718,-5.04931 0.15628,-1.17263 0.2353,-2.39536 0.2353,-3.63396 0,-1.23649 -0.079,-2.45816 -0.2353,-3.63079 -0.2473,-1.8669 -0.67345,-3.56694 -1.26718,-5.05319 -1.22096,-3.05823 -2.98873,-4.81154 -4.84999,-4.81154 -1.84749,0 -3.60609,1.73144 -4.826,4.75051 l -0.23671,-0.024 0.21308,0.0847 c -0.13265,0.33408 -0.2339,0.61066 -0.31821,0.87101 -0.005,0.0141 -0.0106,0.0275 -0.0176,0.0402 -0.0378,0.0744 -0.11501,0.12524 -0.20426,0.12524 v 0 c -0.12665,0 -0.2293,-0.10231 -0.2293,-0.22931 0,-0.03 0.007,-0.0614 0.0194,-0.0907 0.0864,-0.26635 0.18979,-0.54822 0.32385,-0.88583 3.5e-4,-0.001 0.013,-0.0328 0.0134,-0.0339 1.30457,-3.23074 3.21839,-5.06695 5.26238,-5.06695 2.05881,0 3.98181,1.85914 5.2758,5.10046 0.60783,1.52118 1.04422,3.25826 1.2961,5.1629 0.15875,1.19239 0.23918,2.43417 0.23918,3.69112 0,1.25906 -0.0804,2.5019 -0.23918,3.69429 -0.25294,1.90782 -0.68933,3.64349 -1.2961,5.15902 -1.29399,3.24132 -3.21663,5.10046 -5.2758,5.10046"
         style="fill:#4a6cbd;fill-opacity:1;fill-rule:nonzero;stroke:none;stroke-width:0.0352778"
         id="path3765-3" />
      <path
         d="m 97.24542,157.20722 c -2.432756,0 -4.222398,-0.756 -5.039431,-2.17452 -1.031522,-1.78118 -0.383469,-4.37515 1.778706,-7.11694 1.00965,-1.28235 2.295525,-2.52765 3.821995,-3.70099 0.96908,-0.74366 2.00519,-1.43546 3.0794,-2.05564 1.10243,-0.63571 2.21826,-1.18569 3.31717,-1.63583 1.77129,-0.73378 3.4932,-1.22555 5.11633,-1.46121 0.7486,-0.109 1.46227,-0.16051 2.12337,-0.15416 0.1263,0.001 0.22825,0.10513 0.22719,0.23178 -0.001,0.12594 -0.10371,0.22718 -0.22966,0.22718 -0.0254,3.6e-4 -0.0734,-7e-4 -0.11042,-7e-4 -0.60677,0 -1.26047,0.0505 -1.94415,0.14993 -1.56387,0.22648 -3.29565,0.72178 -5.00804,1.43122 -1.08091,0.44238 -2.17805,0.98354 -3.26249,1.60902 -1.05657,0.60995 -2.07609,1.29046 -3.0293,2.02212 -1.496131,1.15006 -2.755195,2.36855 -3.741209,3.62126 -2.039761,2.58622 -2.674409,4.99322 -1.741664,6.60365 0.930275,1.61467 3.332692,2.26977 6.591303,1.79599 1.58185,-0.2293 3.26566,-0.71084 5.00415,-1.43157 0.69074,-0.28116 1.42346,-0.62195 2.17876,-1.01353 0.14675,-0.0804 0.3429,0.0335 0.3429,0.19932 0,0.0907 -0.0526,0.16933 -0.12912,0.20638 -7.1e-4,3.5e-4 -0.001,3.5e-4 -0.001,7e-4 v 0 c -0.76835,0.39829 -1.51412,0.74542 -2.21686,1.03152 -1.77235,0.73449 -3.49285,1.22661 -5.1128,1.46121 -0.7105,0.10301 -1.3843,0.15381 -2.014719,0.15381"
         style="fill:#4a6cbd;fill-opacity:1;fill-rule:nonzero;stroke:none;stroke-width:0.0352778"
         id="path3767-5" />
      <path
         d="m 108.93295,153.15733 c -0.0751,0 -0.14852,-0.037 -0.19226,-0.10407 -0.0692,-0.10618 -0.0395,-0.24835 0.0663,-0.3175 0.58243,-0.37994 1.15005,-0.78175 1.68768,-1.19556 1.4912,-1.14547 2.74955,-2.36467 3.74121,-3.62444 2.03977,-2.58586 2.67442,-4.99428 1.74132,-6.60718 -0.37642,-0.65193 -0.99342,-1.15076 -1.83516,-1.48237 -0.11782,-0.0466 -0.17568,-0.17956 -0.12911,-0.29739 0.0462,-0.11783 0.17956,-0.17639 0.29739,-0.12912 0.94051,0.37042 1.63478,0.93557 2.06411,1.67922 1.03152,1.78435 0.38347,4.37939 -1.77801,7.12082 -1.01494,1.28905 -2.30117,2.53507 -3.82235,3.70417 -0.54645,0.42051 -1.1243,0.82974 -1.71626,1.21567 -0.0388,0.0258 -0.0822,0.0378 -0.12488,0.0378"
         style="fill:#4a6cbd;fill-opacity:1;fill-rule:nonzero;stroke:none;stroke-width:0.0352778"
         id="path3769-6" />
      <path
         d="m 97.239776,139.36654 c -2.268362,0 -3.915129,0.68933 -4.636559,1.94169 -0.931333,1.61114 -0.296686,4.01955 1.741664,6.60753 0.986719,1.25342 2.245431,2.47156 3.741209,3.62126 0.93592,0.72143 1.95509,1.40194 3.02966,2.02213 1.07209,0.61806 2.16817,1.15922 3.25825,1.60866 1.74449,0.72143 3.43077,1.20297 5.01156,1.43157 0.68192,0.0991 1.33809,0.14888 1.95051,0.14888 2.27013,0 3.91831,-0.69039 4.6408,-1.94416 0.93345,-1.61114 0.2988,-4.01779 -1.74097,-6.60436 -0.98601,-1.25271 -2.24437,-2.4712 -3.7412,-3.62126 -0.93804,-0.72319 -1.95721,-1.40335 -3.03001,-2.02212 -1.06821,-0.6163 -2.16571,-1.15747 -3.26179,-1.60867 -1.73778,-0.72072 -3.42265,-1.20227 -5.00838,-1.43157 -0.68333,-0.0995 -1.34091,-0.14958 -1.954744,-0.14958 z m 14.096294,17.84033 c -0.63465,0 -1.31268,-0.0515 -2.01648,-0.15346 -1.61819,-0.23425 -3.34116,-0.72602 -5.12057,-1.46191 -1.10843,-0.45685 -2.22285,-1.00683 -3.31258,-1.63513 -1.0922,-0.63076 -2.12831,-1.32221 -3.0801,-2.05599 -1.525415,-1.17228 -2.81129,-2.41758 -3.821645,-3.70064 -2.160411,-2.7432 -2.808817,-5.33893 -1.778353,-7.12082 0.80645,-1.39982 2.593975,-2.17099 5.033434,-2.17099 0.635704,0 1.315504,0.0519 2.020354,0.15416 1.62349,0.23531 3.3454,0.72673 5.11775,1.46156 1.11443,0.45897 2.23026,1.0093 3.31611,1.63513 1.09044,0.629 2.12655,1.3208 3.08046,2.05634 1.52647,1.17299 2.81234,2.41864 3.82199,3.70064 2.16183,2.74179 2.80988,5.33612 1.77765,7.11764 -0.8075,1.40159 -2.59715,2.17347 -5.03802,2.17347"
         style="fill:#4a6cbd;fill-opacity:1;fill-rule:nonzero;stroke:none;stroke-width:0.0352778"
         id="path3771-7" />
      <path
         d="m 104.29004,146.43409 c -0.89323,0 -1.61925,0.72849 -1.61925,1.62384 0,0.89323 0.72602,1.61995 1.61925,1.61995 0.89323,0 1.61996,-0.72672 1.61996,-1.61995 0,-0.89535 -0.72673,-1.62384 -1.61996,-1.62384 z m 0,3.70276 c -1.14582,0 -2.07821,-0.93275 -2.07821,-2.07892 0,-1.14829 0.93239,-2.0828 2.07821,-2.0828 1.14618,0 2.07892,0.93451 2.07892,2.0828 0,1.14617 -0.93274,2.07892 -2.07892,2.07892"
         style="fill:#4a6cbd;fill-opacity:1;fill-rule:nonzero;stroke:none;stroke-width:0.0352778"
         id="path3773-6" />
      <path
         d="m 98.52883,140.35185 c -0.63183,0 -1.14583,0.51506 -1.14583,1.14829 0,0.53164 0.35843,0.98919 0.87172,1.11337 0.0885,0.0236 0.17886,0.0349 0.27411,0.0349 0.63323,0 1.14829,-0.51505 1.14829,-1.14829 0,-0.51329 -0.34326,-0.96767 -0.83503,-1.10525 -0.10301,-0.0293 -0.20531,-0.043 -0.31326,-0.043 z m 0,2.75519 c -0.13582,0 -0.266,-0.0162 -0.38735,-0.049 -0.71403,-0.17251 -1.217088,-0.81386 -1.217088,-1.55787 0,-0.88618 0.719668,-1.60725 1.604438,-1.60725 0.15028,0 0.29351,0.0201 0.43744,0.0603 0.68827,0.19297 1.16946,0.82903 1.16946,1.54693 0,0.88583 -0.72108,1.6069 -1.6069,1.6069"
         style="fill:#4a6cbd;fill-opacity:1;fill-rule:nonzero;stroke:none;stroke-width:0.0352778"
         id="path3775-7" />
      <path
         d="m 107.64213,152.46836 c -0.63323,0 -1.14829,0.51188 -1.14829,1.14159 0,0.22154 0.0631,0.43673 0.18309,0.623 0.21273,0.32879 0.57327,0.52529 0.9652,0.52529 0.63289,0 1.14794,-0.51506 1.14794,-1.14829 0,-0.22825 -0.0677,-0.4498 -0.19579,-0.641 -0.21731,-0.31221 -0.57432,-0.50059 -0.95215,-0.50059 z m 0,2.74884 c -0.54821,0 -1.05304,-0.27517 -1.35043,-0.73554 -0.16792,-0.2607 -0.25682,-0.56198 -0.25682,-0.87171 0,-0.88265 0.72108,-1.60056 1.60726,-1.60056 0.5281,0 1.02552,0.26212 1.33067,0.70097 0.18133,0.27058 0.27588,0.58067 0.27588,0.89959 0,0.88617 -0.72073,1.60725 -1.60655,1.60725"
         style="fill:#4a6cbd;fill-opacity:1;fill-rule:nonzero;stroke:none;stroke-width:0.0352778"
         id="path3777-6" />
      <path
         d="m 112.83502,138.16851 c -0.57573,0 -1.06397,0.43003 -1.13629,1.00083 -0.005,0.0469 -0.008,0.097 -0.008,0.14711 0,0.63147 0.51329,1.14476 1.14441,1.14476 0.53975,0 1.01176,-0.381 1.12218,-0.90593 0.018,-0.0822 0.0261,-0.15734 0.0261,-0.23883 0,-0.63289 -0.51505,-1.14794 -1.14829,-1.14794 z m 0,2.75166 c -0.88406,0 -1.60337,-0.71931 -1.60337,-1.60372 0,-0.0667 0.004,-0.13335 0.0116,-0.20109 0.1016,-0.80257 0.78564,-1.40546 1.59173,-1.40546 0.88618,0 1.60726,0.72072 1.60726,1.60655 0,0.1143 -0.012,0.22401 -0.037,0.33549 -0.15452,0.73413 -0.81492,1.26823 -1.57022,1.26823"
         style="fill:#4a6cbd;fill-opacity:1;fill-rule:nonzero;stroke:none;stroke-width:0.0352778"
         id="path3779-2" />
    </g>
  </g>
</svg>
