<?xml version="1.0" encoding="UTF-8" standalone="no"?>
<svg
   xmlns:dc="http://purl.org/dc/elements/1.1/"
   xmlns:cc="http://creativecommons.org/ns#"
   xmlns:rdf="http://www.w3.org/1999/02/22-rdf-syntax-ns#"
   xmlns:svg="http://www.w3.org/2000/svg"
   xmlns="http://www.w3.org/2000/svg"
   xmlns:sodipodi="http://sodipodi.sourceforge.net/DTD/sodipodi-0.dtd"
   xmlns:inkscape="http://www.inkscape.org/namespaces/inkscape"
   width="26.458332mm"
   height="26.458332mm"
   viewBox="0 0 26.458332 26.458332"
   version="1.1"
   id="svg6748"
   inkscape:version="1.0.2-2 (e86c870879, 2021-01-15)"
   sodipodi:docname="idea.svg">
  <defs
     id="defs6742" />
  <sodipodi:namedview
     id="base"
     pagecolor="#ffffff"
     bordercolor="#666666"
     borderopacity="1.0"
     inkscape:pageopacity="0.0"
     inkscape:pageshadow="2"
     inkscape:zoom="0.98994949"
     inkscape:cx="86.587635"
     inkscape:cy="88.919324"
     inkscape:document-units="mm"
     inkscape:current-layer="layer1"
     inkscape:document-rotation="0"
     showgrid="false"
     fit-margin-top="0"
     fit-margin-left="0"
     fit-margin-right="0"
     fit-margin-bottom="0"
     inkscape:window-width="1267"
     inkscape:window-height="1198"
     inkscape:window-x="156"
     inkscape:window-y="156"
     inkscape:window-maximized="0" />
  <metadata
     id="metadata6745">
    <rdf:RDF>
      <cc:Work
         rdf:about="">
        <dc:format>image/svg+xml</dc:format>
        <dc:type
           rdf:resource="http://purl.org/dc/dcmitype/StillImage" />
        <dc:title></dc:title>
      </cc:Work>
    </rdf:RDF>
  </metadata>
  <g
     inkscape:label="Layer 1"
     inkscape:groupmode="layer"
     id="layer1"
     transform="translate(-92.263165,-135.76316)">
    <g
       id="g7387"
       transform="matrix(1.0386544,0,0,1.0386544,-3.5663804,-5.2478482)">
      <g
         id="g7372"
         transform="matrix(0.85324244,0,0,0.85324244,-13.681962,59.488531)">
        <path
           d="m 137.31794,116.52366 c -1.17122,-0.0614 -2.10432,-1.02623 -2.10432,-2.21086 h 7.7149 c 0,1.18463 -0.9271,2.14206 -2.09762,2.21086 -0.13123,0.86148 -0.86465,1.52259 -1.76036,1.52259 -0.89217,0 -1.6256,-0.66111 -1.7526,-1.52259"
           style="fill:#87d8f6;fill-opacity:1;fill-rule:nonzero;stroke:none;stroke-width:0.0352778"
           id="path3545-7" />
        <path
           d="m 135.45598,114.5421 c 0.11007,0.95003 0.89324,1.7011 1.87396,1.7526 0.10865,0.006 0.19861,0.0875 0.21449,0.1958 0.11359,0.76835 0.75565,1.32644 1.52611,1.32644 0.77188,0 1.41676,-0.55845 1.53353,-1.3275 0.0162,-0.10725 0.10513,-0.18803 0.21308,-0.19438 0.97754,-0.0575 1.75859,-0.80892 1.86866,-1.75296 z m 3.61456,3.73345 c -0.93909,0 -1.73037,-0.63676 -1.94486,-1.53882 -1.21461,-0.1531 -2.14171,-1.18462 -2.14171,-2.42393 0,-0.12665 0.10265,-0.22931 0.22965,-0.22931 h 7.7149 c 0.12665,0 0.22931,0.10266 0.22931,0.22931 0,1.2319 -0.92428,2.26377 -2.13501,2.42288 -0.21837,0.9024 -1.01283,1.53987 -1.95228,1.53987"
           style="fill:#4a6cbd;fill-opacity:1;fill-rule:nonzero;stroke:none;stroke-width:0.0352778"
           id="path3547-6" />
        <path
           d="m 147.47759,99.754364 c -0.16192,0.754596 -1.42205,3.788836 -1.76953,4.443236 -0.94051,1.19168 -1.97344,2.73438 -2.77954,4.07106 v 4.37021 h -3.87844 -3.83646 v -4.44253 c -0.80962,-1.37407 -1.7466,-2.74532 -2.73473,-3.99874 -1.12324,-1.42593 -1.79776,-3.22686 -1.79776,-5.186886 0,-4.64997 3.76767,-8.41411 8.41375,-8.41411 4.64609,0 8.41411,3.76414 8.41411,8.41411 0,0.25118 -0.0106,0.49953 -0.0314,0.74365"
           style="fill:#c2ebf9;fill-opacity:1;fill-rule:nonzero;stroke:none;stroke-width:0.0352778"
           id="path3549-0" />
        <path
           d="m 135.44293,112.40921 h 7.25593 v -4.14055 c 0,-0.0416 0.0116,-0.0825 0.0332,-0.11854 0.87983,-1.45873 1.91912,-2.98132 2.78272,-4.07776 0.33866,-0.64911 1.58079,-3.63114 1.73884,-4.365966 0.0162,-0.21061 0.0261,-0.45438 0.0261,-0.69568 0,-4.51309 -3.67171,-8.18445 -8.1848,-8.18445 -4.51273,0 -8.18444,3.67136 -8.18444,8.18445 0,1.848196 0.60466,3.593036 1.74872,5.045066 0.98707,1.25236 1.93887,2.64407 2.75167,4.02414 0.0212,0.0356 0.0321,0.0755 0.0321,0.11642 z m 7.48559,0.45896 h -7.7149 c -0.127,0 -0.22965,-0.10266 -0.22965,-0.2293 v -4.37974 c -0.79587,-1.34549 -1.72297,-2.69945 -2.68535,-3.91971 -1.20826,-1.53388 -1.84679,-3.37644 -1.84679,-5.328706 0,-4.76603 3.87738,-8.64341 8.64305,-8.64341 4.76568,0 8.64377,3.87738 8.64377,8.64341 0,0.25435 -0.0113,0.51082 -0.0325,0.76306 -0.1711,0.805736 -1.44392,3.869256 -1.79564,4.531426 -0.007,0.012 -0.0141,0.0236 -0.0226,0.0342 -0.84455,1.07068 -1.86231,2.55905 -2.73014,3.99309 v 4.30636 c 0,0.12664 -0.10266,0.2293 -0.22931,0.2293"
           style="fill:#4a6cbd;fill-opacity:1;fill-rule:nonzero;stroke:none;stroke-width:0.0352778"
           id="path3551-2" />
        <path
           d="m 135.45598,114.5421 c 0.11007,0.95003 0.89324,1.7011 1.87396,1.7526 0.10865,0.006 0.19861,0.0875 0.21449,0.1958 0.11359,0.76835 0.75565,1.32644 1.52611,1.32644 0.77188,0 1.41676,-0.55845 1.53353,-1.3275 0.0162,-0.10725 0.10513,-0.18803 0.21308,-0.19438 0.97754,-0.0575 1.75859,-0.80892 1.86866,-1.75296 z m 3.61456,3.73345 c -0.93909,0 -1.73037,-0.63676 -1.94486,-1.53882 -1.21461,-0.1531 -2.14171,-1.18462 -2.14171,-2.42393 0,-0.12665 0.10265,-0.22931 0.22965,-0.22931 h 7.7149 c 0.12665,0 0.22931,0.10266 0.22931,0.22931 0,1.2319 -0.92428,2.26377 -2.13501,2.42288 -0.21837,0.9024 -1.01283,1.53987 -1.95228,1.53987"
           style="fill:#4a6cbd;fill-opacity:1;fill-rule:nonzero;stroke:none;stroke-width:0.0352778"
           id="path3553-6" />
        <path
           d="m 142.92852,112.86817 h -7.7149 c -0.127,0 -0.22965,-0.10266 -0.22965,-0.2293 v -4.37974 c -0.79587,-1.34549 -1.72297,-2.69945 -2.68535,-3.91971 -1.20826,-1.53388 -1.84679,-3.37644 -1.84679,-5.328706 0,-4.76603 3.87738,-8.64341 8.64305,-8.64341 4.76568,0 8.64377,3.87738 8.64377,8.64341 0,0.25435 -0.0113,0.51082 -0.0325,0.76306 -0.0102,0.12594 -0.12277,0.22084 -0.24765,0.20919 -0.12629,-0.0106 -0.21978,-0.1217 -0.2092,-0.24765 0.0205,-0.23953 0.0303,-0.4833 0.0303,-0.7246 0,-4.51309 -3.67171,-8.18445 -8.1848,-8.18445 -4.51273,0 -8.18444,3.67136 -8.18444,8.18445 0,1.848196 0.60466,3.593036 1.74872,5.045066 0.98707,1.25236 1.93887,2.64407 2.75167,4.02414 0.0212,0.0356 0.0321,0.0755 0.0321,0.11642 v 4.21287 h 7.25593 v -4.14055 c 0,-0.0416 0.0116,-0.0825 0.0332,-0.11854 0.88442,-1.46579 1.92935,-2.99684 2.79612,-4.09434 0.0787,-0.0998 0.22331,-0.11606 0.32173,-0.0381 0.0995,0.0783 0.11642,0.22261 0.0381,0.32174 -0.84455,1.07068 -1.86231,2.55905 -2.73014,3.99309 v 4.30636 c 0,0.12664 -0.10266,0.2293 -0.22931,0.2293"
           style="fill:#4a6cbd;fill-opacity:1;fill-rule:nonzero;stroke:none;stroke-width:0.0352778"
           id="path3555-7" />
        <path
           d="m 145.7077,104.42691 c -0.0363,0 -0.073,-0.008 -0.10724,-0.0268 -0.11183,-0.0596 -0.15416,-0.19826 -0.0949,-0.31009 0.32385,-0.60995 1.58856,-3.64207 1.74802,-4.383606 0.0265,-0.12418 0.15028,-0.20179 0.27234,-0.17604 0.12383,0.0265 0.2025,0.14817 0.17604,0.27234 -0.16687,0.776816 -1.43969,3.840336 -1.79141,4.502506 -0.0413,0.0773 -0.12065,0.12171 -0.20285,0.12171"
           style="fill:#4a6cbd;fill-opacity:1;fill-rule:nonzero;stroke:none;stroke-width:0.0352778"
           id="path3557-4" />
        <path
           d="m 139.05008,110.70917 c -0.127,0 -0.22966,-0.10266 -0.22966,-0.2293 v -10.02242 c 0,-0.127 0.10266,-0.22966 0.22966,-0.22966 0.12665,0 0.22931,0.10266 0.22931,0.22966 v 10.02242 c 0,0.12664 -0.10266,0.2293 -0.22931,0.2293"
           style="fill:#4a6cbd;fill-opacity:1;fill-rule:nonzero;stroke:none;stroke-width:0.0352778"
           id="path3559-4" />
        <path
           d="m 139.11887,104.64069 c -0.0568,0 -0.11359,-0.0212 -0.15769,-0.0632 l -0.0691,-0.0653 -3.98921,-3.85551 c -0.091,-0.0882 -0.0935,-0.23319 -0.006,-0.32456 0.0882,-0.091 0.23284,-0.0931 0.32456,-0.006 l 3.89361,3.76343 3.76096,-3.76061 c 0.0896,-0.0896 0.23495,-0.0896 0.32456,0 0.0896,0.0896 0.0896,0.23495 0,0.32456 l -3.91972,3.91936 c -0.0448,0.0444 -0.10372,0.0674 -0.16228,0.0674"
           style="fill:#4a6cbd;fill-opacity:1;fill-rule:nonzero;stroke:none;stroke-width:0.0352778"
           id="path3561-7" />
      </g>
      <rect
         style="fill:none;stroke:none;stroke-width:0.98467;stroke-linecap:square;stroke-linejoin:round;stroke-opacity:1"
         id="rect7374"
         width="25.473663"
         height="25.473663"
         x="-117.73683"
         y="135.76317"
         ry="4.3922753"
         transform="scale(-1,1)" />
    </g>
  </g>
</svg>
