<?xml version="1.0" encoding="UTF-8" standalone="no"?>
<svg
   xmlns:dc="http://purl.org/dc/elements/1.1/"
   xmlns:cc="http://creativecommons.org/ns#"
   xmlns:rdf="http://www.w3.org/1999/02/22-rdf-syntax-ns#"
   xmlns:svg="http://www.w3.org/2000/svg"
   xmlns="http://www.w3.org/2000/svg"
   xmlns:sodipodi="http://sodipodi.sourceforge.net/DTD/sodipodi-0.dtd"
   xmlns:inkscape="http://www.inkscape.org/namespaces/inkscape"
   width="99.448761mm"
   height="62.04303mm"
   viewBox="0 0 99.448761 62.04303"
   version="1.1"
   id="svg4121"
   inkscape:version="1.0.2-2 (e86c870879, 2021-01-15)"
   sodipodi:docname="unab2.svg">
  <defs
     id="defs4115" />
  <sodipodi:namedview
     id="base"
     pagecolor="#ffffff"
     bordercolor="#666666"
     borderopacity="1.0"
     inkscape:pageopacity="0.0"
     inkscape:pageshadow="2"
     inkscape:zoom="0.35"
     inkscape:cx="327.93466"
     inkscape:cy="-117.03902"
     inkscape:document-units="mm"
     inkscape:current-layer="layer1"
     inkscape:document-rotation="0"
     showgrid="false"
     fit-margin-top="0"
     fit-margin-left="0"
     fit-margin-right="0"
     fit-margin-bottom="0"
     inkscape:window-width="1267"
     inkscape:window-height="1198"
     inkscape:window-x="26"
     inkscape:window-y="26"
     inkscape:window-maximized="0" />
  <metadata
     id="metadata4118">
    <rdf:RDF>
      <cc:Work
         rdf:about="">
        <dc:format>image/svg+xml</dc:format>
        <dc:type
           rdf:resource="http://purl.org/dc/dcmitype/StillImage" />
        <dc:title></dc:title>
      </cc:Work>
    </rdf:RDF>
  </metadata>
  <g
     inkscape:label="Layer 1"
     inkscape:groupmode="layer"
     id="layer1"
     transform="translate(-19.067287,-179.13324)">
    <path
       d="M 118.51605,241.17627 H 19.067287 v -62.04303 h 99.448763 z"
       style="fill:#009cde;fill-opacity:1;fill-rule:nonzero;stroke:none;stroke-width:0.352778"
       id="path4702" />
    <path
       d="m 56.392339,229.10326 c -0.0018,0.005 -0.0025,0.009 -0.0025,0.0134 0,0.0106 0.0039,0.0275 0.01129,0.0508 l 0.402519,1.19803 0.414514,-1.20332 c 0.0042,-0.0123 0.0067,-0.0222 0.0074,-0.0293 0.0011,-0.008 0.0014,-0.0176 0.0014,-0.0296 h 0.141464 c -0.01552,0.0222 -0.02646,0.0441 -0.03175,0.0642 l -0.473781,1.39171 c -0.0032,0.007 -0.0049,0.0155 -0.0056,0.024 -7.06e-4,0.008 -0.0025,0.0208 -0.0053,0.0374 H 56.61775 c -0.0035,-0.012 -0.0053,-0.0219 -0.006,-0.0282 -0.0011,-0.007 -0.0042,-0.0183 -0.01058,-0.0332 l -0.463903,-1.38078 c -0.0028,-0.009 -0.0056,-0.0176 -0.0092,-0.0261 -0.0028,-0.009 -0.01058,-0.025 -0.02258,-0.049 z"
       style="fill:#ffffff;fill-opacity:1;fill-rule:nonzero;stroke:none;stroke-width:0.352778"
       id="path5236" />
    <path
       d="m 57.763798,229.10326 c -0.0028,0.012 -0.0053,0.0233 -0.0071,0.0328 -0.0011,0.01 -0.0021,0.0229 -0.0021,0.0402 v 1.3716 c 0,0.0166 0.0011,0.03 0.0021,0.0395 0.0018,0.0102 0.0042,0.0212 0.0071,0.0332 h -0.270933 c 0.006,-0.0254 0.0095,-0.0505 0.0095,-0.0727 v -1.3716 c 0,-0.0229 -0.0035,-0.0473 -0.0095,-0.073 z"
       style="fill:#ffffff;fill-opacity:1;fill-rule:nonzero;stroke:none;stroke-width:0.352778"
       id="path5240" />
    <path
       d="m 59.230754,229.35095 c -0.07408,-0.0515 -0.142875,-0.0882 -0.206728,-0.11007 -0.0635,-0.0222 -0.131939,-0.0332 -0.204611,-0.0332 -0.147461,0 -0.267053,0.0508 -0.35948,0.15275 -0.05292,0.0593 -0.09172,0.12983 -0.117123,0.21096 -0.0254,0.0811 -0.03739,0.18133 -0.03739,0.29951 0,0.20779 0.04269,0.36901 0.128058,0.4819 0.08573,0.11289 0.206728,0.16968 0.363009,0.16968 0.04551,0 0.08537,-0.005 0.119239,-0.0138 0.03422,-0.009 0.07267,-0.0254 0.115358,-0.0497 v -0.59372 c 0,-0.0155 -0.0011,-0.0275 -0.0025,-0.0377 -0.0014,-0.01 -0.0039,-0.0215 -0.0071,-0.0356 h 0.263525 c -0.0028,0.0159 -0.0049,0.0279 -0.006,0.0381 -0.0018,0.01 -0.0025,0.0215 -0.0025,0.0353 v 0.58455 c 0,0.0212 7.06e-4,0.0377 0.0025,0.0487 0.0011,0.0113 0.0056,0.0251 0.0134,0.0416 -0.06844,0.0226 -0.125941,0.0402 -0.172861,0.0536 -0.04727,0.0138 -0.0889,0.0243 -0.126294,0.0314 -0.03704,0.008 -0.07267,0.0123 -0.107245,0.0145 -0.03387,0.002 -0.07303,0.003 -0.116769,0.003 -0.117122,0 -0.217311,-0.0148 -0.301625,-0.0452 -0.08431,-0.0303 -0.158045,-0.078 -0.221545,-0.14322 -0.141111,-0.1457 -0.211666,-0.34114 -0.211666,-0.58703 0,-0.12276 0.01799,-0.23283 0.05362,-0.32984 0.03493,-0.0967 0.08678,-0.17921 0.153105,-0.24695 0.06703,-0.067 0.147814,-0.11924 0.244123,-0.15557 0.0949,-0.0367 0.2032,-0.0547 0.322439,-0.0547 0.03669,0 0.07161,0.001 0.104775,0.004 0.03351,0.004 0.06668,0.008 0.100188,0.0138 0.03316,0.006 0.06773,0.0145 0.103717,0.025 0.03528,0.0113 0.07373,0.024 0.1143,0.0388 z"
       style="fill:#ffffff;fill-opacity:1;fill-rule:nonzero;stroke:none;stroke-width:0.352778"
       id="path5244" />
    <path
       d="m 59.854289,229.10326 c -0.0028,0.012 -0.0053,0.0233 -0.0074,0.0328 -7.05e-4,0.01 -0.0018,0.0229 -0.0018,0.0402 v 1.3716 c 0,0.0166 0.0011,0.03 0.0018,0.0395 0.0021,0.0102 0.0046,0.0212 0.0074,0.0332 h -0.270934 c 0.006,-0.0254 0.0095,-0.0505 0.0095,-0.0727 v -1.3716 c 0,-0.0229 -0.0035,-0.0473 -0.0095,-0.073 z"
       style="fill:#ffffff;fill-opacity:1;fill-rule:nonzero;stroke:none;stroke-width:0.352778"
       id="path5248" />
    <path
       d="m 60.188828,230.62045 c 0.0056,-0.0254 0.0088,-0.0487 0.0088,-0.0691 v -1.37301 c 0,-0.0123 -0.0011,-0.0229 -0.0021,-0.0335 -0.0014,-0.01 -0.0039,-0.0226 -0.0067,-0.0392 h 0.270933 c -0.0067,0.024 -0.0095,0.0487 -0.0095,0.0727 v 1.32115 h 0.430389 c 0.02081,0 0.03563,-3.5e-4 0.0441,-0.002 0.0081,-0.001 0.0194,-0.004 0.03316,-0.009 v 0.13193 z"
       style="fill:#ffffff;fill-opacity:1;fill-rule:nonzero;stroke:none;stroke-width:0.352778"
       id="path5252" />
    <path
       d="m 61.878633,230.03583 -0.245533,-0.68474 -0.238478,0.68474 z m -0.668866,0.52141 c -0.0025,0.0116 -0.0049,0.0222 -0.0063,0.03 -0.0014,0.009 -0.0025,0.0194 -0.0025,0.0332 h -0.14358 c 0.0081,-0.012 0.01411,-0.0226 0.01905,-0.0321 0.0039,-0.009 0.0088,-0.0194 0.0134,-0.031 l 0.495653,-1.39947 c 0.0035,-0.012 0.0053,-0.0219 0.0067,-0.0286 0.0014,-0.007 0.0032,-0.0155 0.0046,-0.0261 h 0.218369 c 0.0014,0.0169 0.0053,0.0335 0.01164,0.0501 l 0.511881,1.40406 c 0.0039,0.0116 0.0088,0.0215 0.0134,0.0293 0.0046,0.007 0.01235,0.0183 0.02222,0.0339 h -0.295628 c 0,-0.012 -7.05e-4,-0.0222 -0.0018,-0.031 -0.0014,-0.008 -0.0042,-0.019 -0.0092,-0.0321 l -0.145697,-0.41205 h -0.564092 z"
       style="fill:#ffffff;fill-opacity:1;fill-rule:nonzero;stroke:none;stroke-width:0.352778"
       id="path5256" />
    <path
       d="m 62.997962,230.48852 c 0.155928,0 0.278342,-0.0568 0.367595,-0.17004 0.0889,-0.11395 0.132997,-0.27129 0.132997,-0.47273 0,-0.0953 -0.01235,-0.18097 -0.03775,-0.25611 -0.02505,-0.0762 -0.06103,-0.14076 -0.107598,-0.19438 -0.04727,-0.054 -0.104069,-0.0949 -0.17145,-0.12383 -0.06632,-0.0289 -0.141464,-0.0434 -0.224719,-0.0434 h -0.166158 v 1.26048 z m -0.0018,-1.38536 c 0.119239,0 0.226836,0.0169 0.322792,0.0512 0.09525,0.0339 0.176036,0.0833 0.243416,0.14817 0.06632,0.0639 0.117828,0.14287 0.153459,0.2353 0.03528,0.0924 0.05362,0.19579 0.05362,0.3115 0,0.1136 -0.01729,0.21767 -0.05256,0.31115 -0.03493,0.0945 -0.08396,0.17533 -0.146403,0.24412 -0.0635,0.0677 -0.137936,0.12101 -0.224366,0.15875 -0.08643,0.0377 -0.181328,0.0572 -0.284339,0.0572 h -0.531989 c 0.0056,-0.0254 0.0088,-0.0504 0.0088,-0.0727 v -1.3716 c 0,-0.0155 -7.05e-4,-0.0282 -0.0025,-0.0381 -0.0014,-0.01 -0.0035,-0.0215 -0.0063,-0.0349 z"
       style="fill:#ffffff;fill-opacity:1;fill-rule:nonzero;stroke:none;stroke-width:0.352778"
       id="path5260" />
    <path
       d="m 64.622645,230.03583 -0.245534,-0.68474 -0.239183,0.68474 z m -0.66922,0.52141 c -0.0028,0.0116 -0.0049,0.0222 -0.0067,0.03 -0.0014,0.009 -0.0025,0.0194 -0.0025,0.0332 h -0.143228 c 0.0078,-0.012 0.01411,-0.0226 0.0187,-0.0321 0.0039,-0.009 0.0088,-0.0194 0.0134,-0.031 l 0.495653,-1.39947 c 0.0035,-0.012 0.0053,-0.0219 0.0074,-0.0286 7.06e-4,-0.007 0.0025,-0.0155 0.0039,-0.0261 h 0.218369 c 0.0014,0.0169 0.0053,0.0335 0.01164,0.0501 l 0.51188,1.40406 c 0.0046,0.0116 0.0088,0.0215 0.01341,0.0293 0.0049,0.007 0.01235,0.0183 0.02293,0.0339 h -0.295981 c 0,-0.012 -0.0011,-0.0222 -0.0021,-0.031 -0.0014,-0.008 -0.0042,-0.019 -0.0092,-0.0321 l -0.145697,-0.41205 h -0.564092 z"
       style="fill:#ffffff;fill-opacity:1;fill-rule:nonzero;stroke:none;stroke-width:0.352778"
       id="path5264" />
    <path
       d="m 65.928346,230.55431 v 0.009 c 0.0011,0.0215 0.0018,0.0346 0.0018,0.0395 v 0.0176 h -0.136172 c 0.0056,-0.0194 0.0099,-0.0339 0.01235,-0.0434 0.0025,-0.009 0.0049,-0.0176 0.0078,-0.0272 l 0.216253,-1.38077 v -0.0229 -0.0427 h 0.227541 c 0.0011,0.0134 0.0028,0.0247 0.0032,0.0325 0.0011,0.009 0.0028,0.0173 0.006,0.0265 l 0.404988,1.17863 0.406753,-1.18569 c 0.0046,-0.0102 0.0071,-0.0236 0.0071,-0.0385 v -0.0134 h 0.230011 v 0.0159 0.0159 0.0201 l 0.200025,1.39912 c 0.0014,0.008 0.0035,0.0159 0.006,0.0236 0.0018,0.009 0.006,0.0229 0.01235,0.0423 h -0.270933 c 0.0035,-0.007 0.0049,-0.0138 0.0049,-0.0176 v -0.0162 -0.0113 c 0,-0.006 -0.0011,-0.012 -0.0025,-0.0159 l -0.159455,-1.13277 -0.386997,1.12783 c -0.0071,0.0226 -0.01094,0.0413 -0.01094,0.0543 v 0.0116 h -0.214137 v -0.0138 c 0,-0.0162 -0.0025,-0.0307 -0.0092,-0.0434 l -0.382058,-1.10949 z"
       style="fill:#ffffff;fill-opacity:1;fill-rule:nonzero;stroke:none;stroke-width:0.352778"
       id="path5268" />
    <path
       d="m 68.041238,229.10326 c -0.0028,0.012 -0.0053,0.0233 -0.0074,0.0328 -3.52e-4,0.01 -0.0014,0.0229 -0.0014,0.0402 v 1.3716 c 0,0.0166 0.0011,0.03 0.0014,0.0395 0.0021,0.0102 0.0046,0.0212 0.0074,0.0332 h -0.270934 c 0.006,-0.0254 0.0095,-0.0505 0.0095,-0.0727 v -1.3716 c 0,-0.0229 -0.0035,-0.0473 -0.0095,-0.073 z"
       style="fill:#ffffff;fill-opacity:1;fill-rule:nonzero;stroke:none;stroke-width:0.352778"
       id="path5272" />
    <path
       d="m 68.496321,230.54778 c 0,0.0148 7.06e-4,0.0272 0.0025,0.037 0.0014,0.0102 0.0039,0.0219 0.0063,0.0356 h -0.133703 c 0.0056,-0.0254 0.0092,-0.0504 0.0092,-0.0727 v -1.3716 c 0,-0.0141 -0.0011,-0.0257 -0.0025,-0.0353 -0.0021,-0.0106 -0.0039,-0.0226 -0.0067,-0.0377 h 0.240947 c 0.0028,0.0106 0.0056,0.0183 0.0078,0.024 0.0021,0.005 0.0092,0.0148 0.01905,0.0282 l 0.828322,1.16064 v -1.13983 c 0,-0.0247 -0.0028,-0.0487 -0.0092,-0.073 h 0.134408 c -0.0032,0.012 -0.0053,0.0226 -0.0067,0.0317 -0.0021,0.009 -0.0025,0.0229 -0.0025,0.0413 v 1.37619 c 0,0.0176 3.53e-4,0.031 0.0025,0.0385 0.0014,0.008 0.0049,0.0176 0.0085,0.0296 h -0.220133 l -0.0095,-0.0208 c -0.0028,-0.006 -0.0063,-0.0113 -0.01058,-0.0162 -0.0049,-0.006 -0.0099,-0.0123 -0.01376,-0.0201 l -0.844197,-1.18039 z"
       style="fill:#ffffff;fill-opacity:1;fill-rule:nonzero;stroke:none;stroke-width:0.352778"
       id="path5276" />
    <path
       d="m 70.694303,229.10326 v 0.12277 c -0.01552,-0.006 -0.02752,-0.009 -0.03598,-0.0109 -0.0081,-0.002 -0.02011,-0.002 -0.03493,-0.002 h -0.452967 v 0.57926 h 0.442031 c 0.02081,0 0.03598,0 0.0448,-3.5e-4 0.0095,-3.5e-4 0.02258,-0.003 0.03881,-0.006 v 0.12241 c -0.01552,-0.003 -0.02752,-0.005 -0.03634,-0.005 -0.0088,-0.001 -0.02399,-0.001 -0.04586,-0.001 h -0.443442 v 0.59761 h 0.439561 c 0.01341,0 0.02575,-3.6e-4 0.0374,-0.002 0.01094,-0.001 0.02787,-0.004 0.04868,-0.009 V 230.621 H 69.90902 c 0.0032,-0.0138 0.0049,-0.0254 0.0071,-0.0356 0.0014,-0.01 0.0021,-0.0222 0.0021,-0.037 v -1.3716 c 0,-0.0173 -7.06e-4,-0.0303 -0.0021,-0.0392 -0.0021,-0.009 -0.0039,-0.0205 -0.0071,-0.0339 z"
       style="fill:#ffffff;fill-opacity:1;fill-rule:nonzero;stroke:none;stroke-width:0.352778"
       id="path5280" />
    <path
       d="m 71.433267,230.48852 c 0.155927,0 0.278341,-0.0568 0.366888,-0.17004 0.0889,-0.11395 0.133703,-0.27129 0.133703,-0.47273 0,-0.0953 -0.0127,-0.18097 -0.0381,-0.25611 -0.02469,-0.0762 -0.06103,-0.14076 -0.10795,-0.19438 -0.04727,-0.054 -0.104069,-0.0949 -0.170391,-0.12383 -0.06668,-0.0289 -0.142523,-0.0434 -0.225425,-0.0434 h -0.166159 v 1.26048 z m -0.0025,-1.38536 c 0.119945,0 0.227542,0.0169 0.323145,0.0512 0.0956,0.0339 0.176388,0.0833 0.243416,0.14817 0.06597,0.0639 0.117828,0.14287 0.153106,0.2353 0.03634,0.0924 0.05362,0.19579 0.05362,0.3115 0,0.1136 -0.01729,0.21767 -0.05221,0.31115 -0.03528,0.0945 -0.08396,0.17533 -0.146756,0.24412 -0.06315,0.0677 -0.137583,0.12101 -0.224366,0.15875 -0.08643,0.0377 -0.180623,0.0572 -0.283986,0.0572 h -0.532342 c 0.006,-0.0254 0.0092,-0.0504 0.0092,-0.0727 v -1.3716 c 0,-0.0155 -0.0011,-0.0282 -0.0021,-0.0381 -0.0021,-0.01 -0.0042,-0.0215 -0.0071,-0.0349 z"
       style="fill:#ffffff;fill-opacity:1;fill-rule:nonzero;stroke:none;stroke-width:0.352778"
       id="path5284" />
    <path
       d="m 73.662575,229.10566 c -0.0032,0.0134 -0.0056,0.0247 -0.0074,0.0342 -0.0014,0.009 -0.0021,0.0219 -0.0021,0.0384 v 0.94157 c 0,0.17004 -0.05221,0.29986 -0.156986,0.38911 -0.104069,0.0896 -0.256117,0.1337 -0.455083,0.1337 -0.113242,0 -0.208845,-0.0148 -0.286809,-0.0441 -0.07655,-0.03 -0.141816,-0.078 -0.192969,-0.14429 -0.03457,-0.0441 -0.06138,-0.0931 -0.07973,-0.14781 -0.01764,-0.0543 -0.02681,-0.11289 -0.02681,-0.17533 v -0.95286 c 0,-0.0229 -0.0035,-0.0473 -0.0092,-0.0727 h 0.27058 c -0.0032,0.0148 -0.0049,0.0275 -0.0071,0.037 -0.0014,0.01 -0.0021,0.0215 -0.0021,0.0356 v 0.9578 c 0,0.12241 0.03528,0.21731 0.105128,0.28539 0.07091,0.0674 0.170392,0.10125 0.299508,0.10125 0.137936,0 0.244123,-0.036 0.317853,-0.1083 0.07303,-0.072 0.110067,-0.17639 0.110067,-0.31256 v -0.92358 c 0,-0.0166 -0.0011,-0.0303 -0.0021,-0.0402 -0.0021,-0.01 -0.0039,-0.0205 -0.0071,-0.0325 z"
       style="fill:#ffffff;fill-opacity:1;fill-rule:nonzero;stroke:none;stroke-width:0.352778"
       id="path5288" />
    <path
       d="m 75.03167,229.35335 c -0.06632,-0.0557 -0.125941,-0.0949 -0.179916,-0.11642 -0.05256,-0.0208 -0.112889,-0.0314 -0.181681,-0.0314 -0.0769,0 -0.147108,0.0148 -0.208844,0.0455 -0.0628,0.0303 -0.115006,0.0734 -0.158397,0.12947 -0.04339,0.0557 -0.07655,0.12418 -0.100542,0.20391 -0.02293,0.0804 -0.03493,0.17109 -0.03493,0.27022 0,0.10019 0.0127,0.1905 0.03634,0.27058 0.02505,0.0801 0.05891,0.14923 0.102658,0.20638 0.0441,0.0582 0.09772,0.10231 0.160514,0.13335 0.06279,0.031 0.132645,0.0462 0.210256,0.0462 0.06809,0 0.128411,-0.0116 0.180622,-0.0342 0.05256,-0.024 0.110772,-0.0649 0.173919,-0.12488 v 0.20003 c -0.03669,0.0166 -0.06914,0.031 -0.101247,0.0434 -0.03069,0.0123 -0.06174,0.0215 -0.09208,0.0282 -0.03034,0.007 -0.06279,0.012 -0.0956,0.0152 -0.03281,0.002 -0.06914,0.004 -0.106891,0.004 -0.239889,0 -0.422275,-0.067 -0.549628,-0.20179 -0.126647,-0.13547 -0.189794,-0.33161 -0.189794,-0.58949 0,-0.24871 0.06667,-0.43956 0.20073,-0.57185 0.13335,-0.133 0.324556,-0.19897 0.575028,-0.19897 0.0702,0 0.131586,0.005 0.185561,0.0148 0.05398,0.01 0.111831,0.0272 0.173919,0.0536 z"
       style="fill:#ffffff;fill-opacity:1;fill-rule:nonzero;stroke:none;stroke-width:0.352778"
       id="path5292" />
    <path
       d="m 75.960111,230.03583 -0.246239,-0.68474 -0.238478,0.68474 z m -0.669219,0.52141 c -0.0025,0.0116 -0.0049,0.0222 -0.0067,0.03 -0.0011,0.009 -0.0025,0.0194 -0.0025,0.0332 h -0.142875 c 0.0071,-0.012 0.01376,-0.0226 0.01834,-0.0321 0.0046,-0.009 0.0095,-0.0194 0.0134,-0.031 l 0.495653,-1.39947 c 0.0035,-0.012 0.0053,-0.0219 0.0074,-0.0286 7.06e-4,-0.007 0.0025,-0.0155 0.0039,-0.0261 h 0.218369 c 0.0021,0.0169 0.0053,0.0335 0.01199,0.0501 l 0.511528,1.40406 c 0.0046,0.0116 0.0088,0.0215 0.01341,0.0293 0.0049,0.007 0.01305,0.0183 0.02293,0.0339 h -0.295981 c 0,-0.012 -7.05e-4,-0.0222 -0.0021,-0.031 -0.0014,-0.008 -0.0039,-0.019 -0.0088,-0.0321 l -0.14605,-0.41205 h -0.563739 z"
       style="fill:#ffffff;fill-opacity:1;fill-rule:nonzero;stroke:none;stroke-width:0.352778"
       id="path5296" />
    <path
       d="m 77.62307,229.35335 c -0.06703,-0.0557 -0.127,-0.0949 -0.179564,-0.11642 -0.05327,-0.0208 -0.1143,-0.0314 -0.182386,-0.0314 -0.07761,0 -0.147108,0.0148 -0.209197,0.0455 -0.06174,0.0303 -0.114653,0.0734 -0.158045,0.12947 -0.04269,0.0557 -0.07655,0.12418 -0.100541,0.20391 -0.02328,0.0804 -0.03492,0.17109 -0.03492,0.27022 0,0.10019 0.0127,0.1905 0.03598,0.27058 0.02434,0.0801 0.05821,0.14923 0.102306,0.20638 0.0448,0.0582 0.09772,0.10231 0.160866,0.13335 0.06315,0.031 0.13335,0.0462 0.210609,0.0462 0.06844,0 0.128058,-0.0116 0.180622,-0.0342 0.05256,-0.024 0.110419,-0.0649 0.174272,-0.12488 v 0.20003 c -0.03669,0.0166 -0.07055,0.031 -0.1016,0.0434 -0.03069,0.0123 -0.06209,0.0215 -0.09207,0.0282 -0.03034,0.007 -0.06209,0.012 -0.09454,0.0152 -0.03387,0.002 -0.0702,0.004 -0.107598,0.004 -0.240241,0 -0.42298,-0.067 -0.54998,-0.20179 -0.125942,-0.13547 -0.189795,-0.33161 -0.189795,-0.58949 0,-0.24871 0.06738,-0.43956 0.200731,-0.57185 0.132997,-0.133 0.324908,-0.19897 0.575381,-0.19897 0.06985,0 0.131586,0.005 0.185208,0.0148 0.05327,0.01 0.11183,0.0272 0.174272,0.0536 z"
       style="fill:#ffffff;fill-opacity:1;fill-rule:nonzero;stroke:none;stroke-width:0.352778"
       id="path5300" />
    <path
       d="m 78.120875,229.10326 c -0.0025,0.012 -0.0053,0.0233 -0.0067,0.0328 -7.06e-4,0.01 -0.0021,0.0229 -0.0021,0.0402 v 1.3716 c 0,0.0166 0.0014,0.03 0.0021,0.0395 0.0014,0.0102 0.0042,0.0212 0.0067,0.0332 h -0.270228 c 0.0056,-0.0254 0.0092,-0.0505 0.0092,-0.0727 v -1.3716 c 0,-0.0229 -0.0035,-0.0473 -0.0092,-0.073 z"
       style="fill:#ffffff;fill-opacity:1;fill-rule:nonzero;stroke:none;stroke-width:0.352778"
       id="path5304" />
    <path
       d="m 79.160617,228.66434 h 0.198261 l -0.239184,0.35242 H 79.0061 Z m -0.379236,0.70202 c -0.08043,0.11042 -0.121356,0.27235 -0.121356,0.48507 0,0.44768 0.159808,0.67134 0.479778,0.67134 0.155222,0 0.272697,-0.0564 0.352778,-0.16792 0.08043,-0.11148 0.121002,-0.27482 0.121002,-0.48966 0,-0.22048 -0.04057,-0.38629 -0.121002,-0.49777 -0.08008,-0.11112 -0.198967,-0.16651 -0.354895,-0.16651 -0.15628,0 -0.274814,0.0554 -0.356305,0.16545 m 0.909108,-0.0832 c 0.129117,0.13511 0.194028,0.32738 0.194028,0.5775 0,0.25329 -0.06491,0.44732 -0.194028,0.58137 -0.128411,0.13441 -0.314678,0.20073 -0.556683,0.20073 -0.243064,0 -0.427567,-0.0677 -0.553861,-0.20284 -0.126648,-0.13618 -0.190148,-0.33373 -0.190148,-0.59302 0,-0.11924 0.01658,-0.22719 0.05045,-0.32279 0.03457,-0.0956 0.08325,-0.17569 0.147108,-0.24095 0.06385,-0.0653 0.141464,-0.11536 0.234244,-0.15028 0.09243,-0.0349 0.197909,-0.0522 0.316089,-0.0522 0.239536,0 0.424392,0.067 0.552803,0.2025"
       style="fill:#ffffff;fill-opacity:1;fill-rule:nonzero;stroke:none;stroke-width:0.352778"
       id="path5308" />
    <path
       d="m 80.254439,230.54778 c 0,0.0148 7.06e-4,0.0272 0.0028,0.037 0.0014,0.0102 0.0035,0.0219 0.0067,0.0356 h -0.134408 c 0.0064,-0.0254 0.0092,-0.0504 0.0092,-0.0727 v -1.3716 c 0,-0.0141 -0.0011,-0.0257 -0.0021,-0.0353 -0.0025,-0.0106 -0.0042,-0.0226 -0.0071,-0.0377 h 0.2413 c 0.0035,0.0106 0.0053,0.0183 0.0078,0.024 0.0021,0.005 0.0088,0.0148 0.01905,0.0282 l 0.828322,1.16064 v -1.13983 c 0,-0.0247 -0.0028,-0.0487 -0.0088,-0.073 h 0.134056 c -0.0025,0.012 -0.0049,0.0226 -0.0071,0.0317 -0.0011,0.009 -0.0021,0.0229 -0.0021,0.0413 v 1.37619 c 0,0.0176 0.0011,0.031 0.0021,0.0385 0.0021,0.008 0.0046,0.0176 0.0095,0.0296 h -0.221192 l -0.0085,-0.0208 c -0.0035,-0.006 -0.0074,-0.0113 -0.01199,-0.0162 -0.0039,-0.006 -0.0085,-0.0123 -0.01305,-0.0201 l -0.84455,-1.18039 z"
       style="fill:#ffffff;fill-opacity:1;fill-rule:nonzero;stroke:none;stroke-width:0.352778"
       id="path5312" />
    <path
       d="M 81.392183,231.54367 H 56.15305 v -0.12453 h 25.239133 z"
       style="fill:#ffffff;fill-opacity:1;fill-rule:nonzero;stroke:none;stroke-width:0.352778"
       id="path5314" />
    <path
       d="M 81.392183,228.4477 H 56.15305 v -0.12418 h 25.239133 z"
       style="fill:#ffffff;fill-opacity:1;fill-rule:nonzero;stroke:none;stroke-width:0.352778"
       id="path5316" />
    <path
       d="m 64.126921,218.96916 c -0.06244,-0.0586 -0.139347,-0.0857 -0.234244,-0.0857 -0.130881,0 -0.248003,0.0519 -0.350661,0.15769 -0.1016,0.10231 -0.179917,0.24942 -0.233892,0.43921 h 0.928159 c 0.006,-0.0639 0.01094,-0.11536 0.01094,-0.15028 0,-0.037 -0.0035,-0.0751 -0.0081,-0.11889 -0.01164,-0.10407 -0.05115,-0.18485 -0.112184,-0.242"
       style="fill:#ffffff;fill-opacity:1;fill-rule:nonzero;stroke:none;stroke-width:0.352778"
       id="path5320" />
    <path
       d="m 77.74365,218.96916 c -0.06174,-0.0586 -0.138642,-0.0857 -0.234245,-0.0857 -0.13088,0 -0.24765,0.0519 -0.34925,0.15769 -0.102305,0.10231 -0.181328,0.24942 -0.23495,0.43921 h 0.927806 c 0.0056,-0.0639 0.01058,-0.11536 0.01058,-0.15028 0,-0.037 -0.0032,-0.0751 -0.0071,-0.11889 -0.01376,-0.10407 -0.0508,-0.18485 -0.112888,-0.242"
       style="fill:#ffffff;fill-opacity:1;fill-rule:nonzero;stroke:none;stroke-width:0.352778"
       id="path5324" />
    <path
       d="m 68.277564,219.57964 c -0.05292,0.019 -0.107598,0.0367 -0.162631,0.0564 -0.05292,0.0191 -0.109714,0.0409 -0.16898,0.0635 -0.250825,0.0882 -0.394759,0.23072 -0.4318,0.43251 -0.0187,0.10372 -0.0056,0.18768 0.04128,0.25047 0.04798,0.0621 0.117475,0.0928 0.212019,0.0928 0.05962,0 0.118181,-0.0116 0.174625,-0.0335 0.05644,-0.0229 0.10795,-0.054 0.153811,-0.0914 0.04551,-0.0413 0.08396,-0.0878 0.115711,-0.14217 0.0314,-0.0529 0.05327,-0.10901 0.06385,-0.16969 l 0.09454,-0.50518 c -0.01305,0.009 -0.02893,0.018 -0.0448,0.0247 -0.01587,0.007 -0.03104,0.0148 -0.04762,0.0215"
       style="fill:#ffffff;fill-opacity:1;fill-rule:nonzero;stroke:none;stroke-width:0.352778"
       id="path5328" />
    <path
       d="m 72.680724,219.57964 c -0.05186,0.019 -0.105833,0.0367 -0.160867,0.0564 -0.05292,0.0191 -0.109361,0.0409 -0.169333,0.0635 -0.250472,0.0882 -0.395464,0.23072 -0.430742,0.43251 -0.02046,0.10372 -0.006,0.18768 0.04057,0.25047 0.04798,0.0621 0.116417,0.0928 0.210961,0.0928 0.05997,0 0.118533,-0.0116 0.176036,-0.0335 0.05645,-0.0229 0.108656,-0.054 0.152753,-0.0914 0.04621,-0.0413 0.08502,-0.0878 0.115358,-0.14217 0.03351,-0.0529 0.05609,-0.10901 0.06526,-0.16969 l 0.09419,-0.50518 c -0.01376,0.009 -0.02858,0.018 -0.04551,0.0247 -0.01552,0.007 -0.03175,0.0148 -0.04868,0.0215"
       style="fill:#ffffff;fill-opacity:1;fill-rule:nonzero;stroke:none;stroke-width:0.352778"
       id="path5332" />
    <path
       d="m 74.608937,218.93885 c -0.07091,0 -0.144286,0.0208 -0.218017,0.0617 -0.07303,0.0423 -0.138994,0.0991 -0.198614,0.17462 -0.04198,0.0487 -0.0762,0.11078 -0.103364,0.18451 -0.02681,0.0762 -0.05151,0.16862 -0.07126,0.28081 -0.02963,0.16298 -0.04939,0.28998 -0.06103,0.37641 -0.0127,0.0864 -0.01764,0.14887 -0.01658,0.18309 0.0049,0.0907 0.04163,0.16757 0.111125,0.22825 0.06738,0.061 0.150636,0.0914 0.245533,0.0914 0.146403,0 0.26917,-0.0699 0.3683,-0.21026 0.09842,-0.1404 0.173214,-0.34572 0.221545,-0.61665 0.04374,-0.2413 0.04198,-0.42686 -0.0056,-0.55704 -0.04833,-0.13158 -0.138641,-0.19685 -0.271991,-0.19685"
       style="fill:#ffffff;fill-opacity:1;fill-rule:nonzero;stroke:none;stroke-width:0.352778"
       id="path5336" />
    <path
       d="m 59.827442,218.94676 c -0.06879,0 -0.138288,0.0169 -0.206727,0.0519 -0.06773,0.0321 -0.125589,0.0773 -0.173214,0.13441 -0.02752,0.0325 -0.05398,0.067 -0.07514,0.1009 -0.02152,0.0388 -0.03986,0.079 -0.0568,0.12453 -0.01799,0.0462 -0.03246,0.0998 -0.04833,0.16051 -0.01411,0.0607 -0.02999,0.13441 -0.04445,0.21802 -0.01517,0.0871 -0.02787,0.16192 -0.03457,0.22542 -0.006,0.0649 -0.0071,0.12136 -0.006,0.16969 0.0035,0.0497 0.0085,0.0938 0.02046,0.133 0.0095,0.0377 0.02575,0.0751 0.04586,0.11006 0.06068,0.096 0.150989,0.14464 0.271639,0.14464 0.142169,0 0.262819,-0.0674 0.363361,-0.20532 0.100895,-0.13511 0.173567,-0.3369 0.221545,-0.60042 0.09349,-0.51153 0,-0.76729 -0.277637,-0.76729"
       style="fill:#ffffff;fill-opacity:1;fill-rule:nonzero;stroke:none;stroke-width:0.352778"
       id="path5340" />
    <path
       d="m 54.690116,218.9106 c -0.148519,0 -0.272697,0.0684 -0.374297,0.20567 -0.102658,0.13864 -0.176389,0.33866 -0.224014,0.5976 -0.09243,0.51223 0.0046,0.76835 0.293864,0.76835 0.07267,0 0.141111,-0.018 0.207433,-0.054 0.06844,-0.036 0.124531,-0.084 0.171097,-0.14641 0.05115,-0.0734 0.09631,-0.15557 0.129823,-0.24871 0.03528,-0.0942 0.06421,-0.20884 0.08925,-0.34889 0.04621,-0.25577 0.04516,-0.45015 -0.0049,-0.57926 -0.04904,-0.12983 -0.145698,-0.19438 -0.28822,-0.19438"
       style="fill:#ffffff;fill-opacity:1;fill-rule:nonzero;stroke:none;stroke-width:0.352778"
       id="path5344" />
    <path
       d="m 84.058865,219.07421 c -0.08255,-0.0684 -0.157338,-0.11712 -0.225777,-0.1464 -0.06844,-0.03 -0.140406,-0.0444 -0.216959,-0.0444 -0.106538,0 -0.198613,0.0272 -0.274461,0.084 -0.08008,0.0565 -0.12453,0.12841 -0.140052,0.21555 -0.0085,0.0356 -0.0085,0.0691 -0.0025,0.0956 0.0074,0.0282 0.02328,0.054 0.04762,0.0801 0.02646,0.0236 0.06209,0.0494 0.111478,0.0741 0.04974,0.0258 0.113594,0.0529 0.191911,0.0854 0.0949,0.0402 0.173567,0.0804 0.232833,0.11818 0.06244,0.0385 0.110067,0.0822 0.143228,0.12735 0.03422,0.0452 0.05609,0.0974 0.06456,0.15346 0.0074,0.0564 0.006,0.11783 -0.0067,0.18697 -0.03528,0.1898 -0.12947,0.34079 -0.282575,0.45262 -0.154517,0.11289 -0.346075,0.16862 -0.574323,0.16862 -0.117122,0 -0.220486,-0.0138 -0.310091,-0.037 -0.08855,-0.0247 -0.184503,-0.0684 -0.28575,-0.12735 l 0.1143,-0.26529 c 0.09454,0.0882 0.178858,0.14923 0.253294,0.18591 0.0762,0.036 0.163689,0.0547 0.26282,0.0547 0.111477,0 0.207786,-0.0314 0.287866,-0.0931 0.07973,-0.0593 0.129117,-0.13899 0.147461,-0.23177 0.006,-0.0406 0.0074,-0.0755 0,-0.10725 -0.0067,-0.0307 -0.02575,-0.0593 -0.05468,-0.0871 -0.02999,-0.0265 -0.07303,-0.0565 -0.128411,-0.0864 -0.05574,-0.0289 -0.129822,-0.0653 -0.221545,-0.10266 -0.155927,-0.0649 -0.26423,-0.14111 -0.324908,-0.2286 -0.05715,-0.0878 -0.07549,-0.19332 -0.05221,-0.32174 0.01552,-0.0825 0.04621,-0.16122 0.09137,-0.23212 0.04798,-0.0702 0.104423,-0.13018 0.175331,-0.17886 0.06879,-0.0522 0.147814,-0.09 0.237772,-0.11818 0.09066,-0.03 0.185914,-0.0445 0.287514,-0.0445 0.09419,0 0.186619,0.0116 0.277283,0.0325 0.09102,0.0219 0.18415,0.054 0.280459,0.0952 z m -1.647119,1.55328 c -0.06456,0.037 -0.117828,0.0635 -0.163689,0.0762 -0.04374,0.0138 -0.09208,0.0215 -0.141816,0.0215 -0.09419,0 -0.162631,-0.0215 -0.203553,-0.0653 -0.04163,-0.0434 -0.06456,-0.1203 -0.07056,-0.22895 -0.108303,0.10654 -0.210961,0.18379 -0.31115,0.22648 -0.100541,0.0452 -0.212019,0.0677 -0.337608,0.0677 -0.160867,0 -0.280458,-0.0515 -0.357717,-0.15169 -0.07796,-0.10054 -0.101953,-0.23319 -0.06914,-0.40428 0.03563,-0.20885 0.144991,-0.36725 0.322086,-0.47202 0.0381,-0.0233 0.07267,-0.043 0.104775,-0.0568 0.03104,-0.0152 0.06914,-0.0303 0.113947,-0.0469 0.0448,-0.0166 0.101247,-0.0353 0.17145,-0.0561 0.06844,-0.0212 0.162278,-0.0476 0.27552,-0.079 0.09631,-0.0272 0.16898,-0.0624 0.212725,-0.10442 0.04621,-0.0402 0.07514,-0.0942 0.08784,-0.16722 0.01517,-0.0818 -0.0053,-0.14922 -0.06103,-0.20073 -0.05574,-0.0515 -0.135467,-0.0755 -0.239536,-0.0755 -0.0448,0 -0.0889,0.003 -0.127353,0.01 -0.04022,0.004 -0.0822,0.0162 -0.12312,0.0328 -0.04163,0.0162 -0.08502,0.0378 -0.132644,0.0624 -0.04657,0.0275 -0.100542,0.0596 -0.158397,0.0998 l -0.01587,-0.24871 c 0.07338,-0.0321 0.139347,-0.0554 0.198261,-0.078 0.0575,-0.0205 0.115005,-0.0374 0.167569,-0.0508 0.05503,-0.0123 0.109714,-0.0212 0.163336,-0.025 0.05433,-0.006 0.112889,-0.009 0.174625,-0.009 0.202142,0 0.348192,0.0395 0.442736,0.11783 0.09349,0.079 0.128764,0.18803 0.102306,0.33055 l -0.208139,1.1564 c -0.02046,0.10866 0.0074,0.16263 0.08608,0.16263 0.01975,0 0.03704,-0.003 0.05362,-0.01 0.01588,-0.008 0.04445,-0.0233 0.08149,-0.0473 z m -1.951919,0.0222 c -0.06456,0.0289 -0.123473,0.048 -0.175684,0.0582 -0.05256,0.0106 -0.109008,0.0173 -0.165452,0.0173 -0.129117,0 -0.217664,-0.031 -0.2667,-0.0924 -0.04798,-0.0603 -0.06068,-0.15628 -0.03634,-0.28822 l 0.255412,-1.41676 h -0.286809 l 0.0321,-0.17745 h 0.286456 l 0.06773,-0.37323 0.398992,-0.0462 c -0.01446,0.0522 -0.02364,0.0871 -0.02646,0.10266 -0.0018,0.0148 -0.0042,0.0275 -0.0056,0.0402 l -0.05151,0.27657 h 0.310092 l -0.03351,0.17745 h -0.308328 l -0.254,1.409 c -0.02152,0.11535 0.01623,0.1725 0.113595,0.1725 0.02505,0 0.05045,-0.005 0.06985,-0.0102 0.02117,-0.007 0.06032,-0.0236 0.112183,-0.0504 z m -0.879475,-1.64641 -0.06315,-0.005 c -0.134761,0 -0.248355,0.0423 -0.337255,0.12347 -0.0441,0.0402 -0.07867,0.0857 -0.102658,0.13653 -0.0247,0.0508 -0.04375,0.11712 -0.05891,0.19967 l -0.200025,1.11407 c -0.0049,0.024 -0.0071,0.0455 -0.0085,0.0603 0,0.0169 0,0.0367 0.0014,0.0582 h -0.413808 c 0.0099,-0.0229 0.01693,-0.0448 0.02223,-0.0617 0.0053,-0.0145 0.0099,-0.0349 0.01376,-0.0568 l 0.308328,-1.70427 c 0.0042,-0.024 0.006,-0.0445 0.006,-0.061 v -0.0568 h 0.390878 l -0.0448,0.24589 c 0.05327,-0.10019 0.121356,-0.1718 0.204258,-0.21696 0.08185,-0.0445 0.194734,-0.0695 0.335845,-0.0755 z m -1.352197,0.64911 h -1.345848 c -0.01023,0.061 -0.0187,0.11641 -0.02399,0.16263 -0.0078,0.0476 -0.01058,0.0896 -0.01058,0.12911 0,0.0374 0,0.0755 0.0021,0.1076 0.0042,0.0349 0.0074,0.0692 0.01376,0.10725 0.04516,0.25294 0.210608,0.37853 0.497064,0.37853 0.103717,0 0.203553,-0.0159 0.295981,-0.0501 0.09278,-0.0353 0.193322,-0.0928 0.302683,-0.17286 l 0.01587,0.24624 c -0.06773,0.031 -0.131233,0.0557 -0.187678,0.0762 -0.05821,0.0219 -0.114653,0.0384 -0.168275,0.0519 -0.05433,0.0148 -0.109714,0.0226 -0.165453,0.0286 -0.05468,0.004 -0.112536,0.008 -0.175683,0.008 -0.3175,0 -0.545394,-0.0857 -0.682978,-0.25682 -0.137936,-0.17286 -0.178505,-0.41804 -0.12065,-0.73907 0.02893,-0.15839 0.07444,-0.30303 0.139347,-0.42721 0.0635,-0.127 0.14217,-0.2353 0.236009,-0.32315 0.09419,-0.0885 0.201789,-0.15628 0.321028,-0.2032 0.121002,-0.048 0.251883,-0.072 0.394052,-0.072 0.258234,0 0.444853,0.0825 0.556684,0.24447 0.113947,0.16263 0.148519,0.39794 0.106539,0.70415 m -1.878542,-1.25307 c -0.01023,0.0536 -0.0381,0.0974 -0.08537,0.13088 -0.04798,0.0328 -0.109009,0.0473 -0.180623,0.0473 -0.07796,0 -0.134408,-0.0145 -0.169686,-0.0466 -0.0381,-0.0296 -0.05151,-0.0741 -0.04092,-0.13159 0.01023,-0.0529 0.03916,-0.0952 0.0882,-0.12735 0.0508,-0.0335 0.110066,-0.0476 0.182386,-0.0476 0.07408,0 0.130175,0.0141 0.165805,0.0459 0.03704,0.031 0.05045,0.0744 0.04022,0.12912 m -0.122061,0.41169 c -0.0063,0.0155 -0.01058,0.0349 -0.01376,0.0572 l -0.307269,1.70427 c -0.0046,0.0219 -0.0078,0.0423 -0.0078,0.0568 -3.53e-4,0.0169 -3.53e-4,0.0388 0,0.0617 h -0.413456 c 0.0092,-0.0215 0.01587,-0.0413 0.02222,-0.0582 0.0049,-0.0148 0.01058,-0.0363 0.01411,-0.0603 l 0.307975,-1.70427 c 0.0039,-0.024 0.0071,-0.0445 0.0081,-0.061 0,-0.0152 0,-0.0356 -0.0011,-0.0568 h 0.413456 c -0.0092,0.0236 -0.01693,0.0441 -0.02258,0.0607 m -0.944034,0.87313 c -0.02787,0.16157 -0.07303,0.30797 -0.131586,0.43427 -0.05997,0.12841 -0.13088,0.23812 -0.215194,0.32632 -0.08502,0.0914 -0.179917,0.16051 -0.286456,0.20849 -0.107244,0.0483 -0.220486,0.072 -0.3429,0.072 -0.117122,0 -0.216605,-0.0215 -0.294922,-0.0617 -0.07761,-0.042 -0.151342,-0.11042 -0.220839,-0.20779 l -0.150283,0.2353 h -0.202847 c 0.0078,-0.0201 0.01482,-0.0377 0.02046,-0.054 0.0053,-0.0162 0.01129,-0.037 0.01623,-0.0646 l 0.439913,-2.44228 c 0.0039,-0.0215 0.0071,-0.0413 0.0071,-0.0579 v -0.0614 h 0.413103 c -0.0088,0.0233 -0.01729,0.0416 -0.02187,0.0572 -0.006,0.0169 -0.0099,0.0377 -0.01517,0.0621 l -0.160867,0.88865 c 0.114653,-0.11818 0.215548,-0.19967 0.309034,-0.24554 0.09349,-0.0455 0.197555,-0.0695 0.313619,-0.0695 0.215547,0 0.372181,0.0882 0.465667,0.26141 0.09419,0.17321 0.113947,0.41451 0.05786,0.71896 m -2.084211,0.94332 c -0.0635,0.037 -0.116416,0.0635 -0.162983,0.0762 -0.04233,0.0138 -0.09207,0.0215 -0.142522,0.0215 -0.09419,0 -0.16122,-0.0215 -0.202847,-0.0653 -0.04198,-0.0434 -0.06491,-0.1203 -0.06915,-0.22895 -0.109008,0.10654 -0.213078,0.18379 -0.312561,0.22648 -0.100189,0.0452 -0.211667,0.0677 -0.339019,0.0677 -0.16122,0 -0.2794,-0.0515 -0.357011,-0.15169 -0.07726,-0.10054 -0.100189,-0.23319 -0.0702,-0.40428 0.03881,-0.20885 0.146403,-0.36725 0.322791,-0.47202 0.0381,-0.0233 0.07479,-0.043 0.104775,-0.0568 0.03175,-0.0152 0.07056,-0.0303 0.115359,-0.0469 0.04551,-0.0166 0.100541,-0.0353 0.17145,-0.0561 0.06844,-0.0212 0.159808,-0.0476 0.275166,-0.079 0.09772,-0.0272 0.168628,-0.0624 0.213784,-0.10442 0.04586,-0.0402 0.07549,-0.0942 0.08855,-0.16722 0.01411,-0.0818 -0.0064,-0.14922 -0.06103,-0.20073 -0.05927,-0.0515 -0.138288,-0.0755 -0.2413,-0.0755 -0.04551,0 -0.08749,0.003 -0.128763,0.01 -0.04022,0.004 -0.08079,0.0162 -0.12312,0.0328 -0.04092,0.0162 -0.08431,0.0378 -0.131586,0.0624 -0.04586,0.0275 -0.09913,0.0596 -0.157692,0.0998 l -0.01552,-0.24871 c 0.07267,-0.0321 0.139347,-0.0554 0.195439,-0.078 0.05997,-0.0205 0.116064,-0.0374 0.170744,-0.0508 0.05468,-0.0123 0.109009,-0.0212 0.162631,-0.025 0.05397,-0.006 0.112536,-0.009 0.174272,-0.009 0.201436,0 0.347486,0.0395 0.442736,0.11783 0.09313,0.079 0.127706,0.18803 0.101953,0.33055 l -0.207786,1.1564 c -0.02117,0.10866 0.0099,0.16263 0.08502,0.16263 0.02081,0 0.03986,-0.003 0.05433,-0.01 0.01588,-0.008 0.0441,-0.0233 0.08326,-0.0473 z m -2.756605,-1.55328 c -0.08361,-0.0684 -0.157339,-0.11712 -0.225778,-0.1464 -0.06809,-0.03 -0.140053,-0.0444 -0.217311,-0.0444 -0.106539,0 -0.197908,0.0272 -0.275167,0.084 -0.07761,0.0565 -0.123825,0.12841 -0.140405,0.21555 -0.006,0.0356 -0.006,0.0691 0,0.0956 0.0067,0.0282 0.02081,0.054 0.04692,0.0801 0.02469,0.0236 0.06279,0.0494 0.110772,0.0741 0.05009,0.0258 0.112889,0.0529 0.192617,0.0854 0.09349,0.0402 0.17145,0.0804 0.232481,0.11818 0.06209,0.0385 0.109714,0.0822 0.14358,0.12735 0.03316,0.0452 0.05574,0.0974 0.0635,0.15346 0.0088,0.0564 0.0071,0.11783 -0.0056,0.18697 -0.03457,0.1898 -0.12947,0.34079 -0.282575,0.45262 -0.154164,0.11289 -0.346075,0.16862 -0.575381,0.16862 -0.116769,0 -0.219075,-0.0138 -0.308328,-0.037 -0.09102,-0.0247 -0.185913,-0.0684 -0.288572,-0.12735 l 0.116064,-0.26529 c 0.09384,0.0882 0.179564,0.14923 0.254,0.18591 0.07514,0.036 0.161925,0.0547 0.261761,0.0547 0.111125,0 0.208139,-0.0314 0.287867,-0.0931 0.08079,-0.0593 0.130175,-0.13899 0.146403,-0.23177 0.0081,-0.0406 0.0081,-0.0755 0.0011,-0.10725 -0.0063,-0.0307 -0.02434,-0.0593 -0.05503,-0.0871 -0.02963,-0.0265 -0.07267,-0.0565 -0.128059,-0.0864 -0.05574,-0.0289 -0.129469,-0.0653 -0.221897,-0.10266 -0.157339,-0.0649 -0.26423,-0.14111 -0.323497,-0.2286 -0.05927,-0.0878 -0.07655,-0.19332 -0.05362,-0.32174 0.01552,-0.0825 0.04763,-0.16122 0.09208,-0.23212 0.04727,-0.0702 0.104422,-0.13018 0.173919,-0.17886 0.0702,-0.0522 0.149931,-0.09 0.240595,-0.11818 0.08996,-0.03 0.184502,-0.0445 0.286102,-0.0445 0.09454,0 0.187325,0.0116 0.277284,0.0325 0.08925,0.0219 0.18415,0.054 0.280811,0.0952 z m -1.647825,1.55328 c -0.0635,0.037 -0.117122,0.0635 -0.162278,0.0762 -0.04551,0.0138 -0.09172,0.0215 -0.141816,0.0215 -0.09525,0 -0.164042,-0.0215 -0.20567,-0.0653 -0.04057,-0.0434 -0.0635,-0.1203 -0.0695,-0.22895 -0.107597,0.10654 -0.21202,0.18379 -0.312208,0.22648 -0.09913,0.0452 -0.211314,0.0677 -0.336198,0.0677 -0.162277,0 -0.280458,-0.0515 -0.358775,-0.15169 -0.07726,-0.10054 -0.100541,-0.23319 -0.06985,-0.40428 0.0381,-0.20885 0.145698,-0.36725 0.32385,-0.47202 0.03845,-0.0233 0.07338,-0.043 0.104775,-0.0568 0.02963,-0.0152 0.06879,-0.0303 0.113948,-0.0469 0.04516,-0.0166 0.1016,-0.0353 0.171097,-0.0561 0.06773,-0.0212 0.161219,-0.0476 0.276225,-0.079 0.09596,-0.0272 0.166511,-0.0624 0.212372,-0.10442 0.04657,-0.0402 0.07408,-0.0942 0.08749,-0.16722 0.01446,-0.0818 -0.0039,-0.14922 -0.06033,-0.20073 -0.05609,-0.0515 -0.136878,-0.0755 -0.240595,-0.0755 -0.0441,0 -0.08784,0.003 -0.128058,0.01 -0.04022,0.004 -0.08149,0.0162 -0.122061,0.0328 -0.04127,0.0162 -0.08537,0.0378 -0.13335,0.0624 -0.04621,0.0275 -0.09913,0.0596 -0.157692,0.0998 l -0.01446,-0.24871 c 0.07197,-0.0321 0.136525,-0.0554 0.195439,-0.078 0.05821,-0.0205 0.115359,-0.0374 0.169686,-0.0508 0.05327,-0.0123 0.107598,-0.0212 0.162631,-0.025 0.05503,-0.006 0.111831,-0.009 0.176036,-0.009 0.200025,0 0.347133,0.0395 0.442383,0.11783 0.09207,0.079 0.127353,0.18803 0.102306,0.33055 l -0.20955,1.1564 c -0.02011,0.10866 0.0085,0.16263 0.08678,0.16263 0.02046,0 0.03669,-0.003 0.05256,-0.01 0.01623,-0.008 0.0448,-0.0233 0.08326,-0.0473 z m -1.952272,0.0222 c -0.06385,0.0289 -0.121356,0.048 -0.176036,0.0582 -0.05115,0.0106 -0.106892,0.0173 -0.164042,0.0173 -0.129469,0 -0.218722,-0.031 -0.2667,-0.0924 -0.04833,-0.0603 -0.06068,-0.15628 -0.03739,-0.28822 l 0.255763,-1.41676 h -0.287161 l 0.03281,-0.17745 h 0.287161 l 0.06773,-0.37323 0.397933,-0.0462 c -0.01482,0.0522 -0.02364,0.0871 -0.02575,0.10266 -0.0021,0.0148 -0.0046,0.0275 -0.0078,0.0402 l -0.05009,0.27657 h 0.310797 l -0.03245,0.17745 h -0.309739 l -0.254,1.409 c -0.02152,0.11535 0.01623,0.1725 0.112889,0.1725 0.02681,0 0.05045,-0.005 0.07161,-0.0102 0.02081,-0.007 0.0575,-0.0236 0.11183,-0.0504 z m -0.878064,-1.64641 -0.0635,-0.005 c -0.13582,0 -0.24765,0.0423 -0.338667,0.12347 -0.0441,0.0402 -0.07726,0.0857 -0.100894,0.13653 -0.02469,0.0508 -0.04445,0.11712 -0.05962,0.19967 l -0.200377,1.11407 c -0.0063,0.024 -0.0081,0.0455 -0.0081,0.0603 0,0.0169 0,0.0367 0.0018,0.0582 h -0.414514 c 0.01023,-0.0229 0.01587,-0.0448 0.02293,-0.0617 0.0049,-0.0145 0.01023,-0.0349 0.01411,-0.0568 l 0.307623,-1.70427 c 0.0035,-0.024 0.0074,-0.0445 0.0074,-0.061 0,-0.0152 0,-0.0356 -0.0014,-0.0568 h 0.391583 l -0.0448,0.24589 c 0.05327,-0.10019 0.120298,-0.1718 0.2032,-0.21696 0.08361,-0.0445 0.194734,-0.0695 0.336903,-0.0755 z m -1.353256,0.64911 h -1.345494 c -0.0095,0.061 -0.01905,0.11641 -0.02469,0.16263 -0.0056,0.0476 -0.0095,0.0896 -0.01129,0.12911 0,0.0374 0,0.0755 0.0035,0.1076 0.0028,0.0349 0.0074,0.0692 0.01341,0.10725 0.04551,0.25294 0.210608,0.37853 0.496711,0.37853 0.104775,0 0.201789,-0.0159 0.296333,-0.0501 0.09278,-0.0353 0.194381,-0.0928 0.303389,-0.17286 l 0.01376,0.24624 c -0.06632,0.031 -0.12947,0.0557 -0.186267,0.0762 -0.0568,0.0219 -0.112889,0.0384 -0.167922,0.0519 -0.05609,0.0148 -0.110067,0.0226 -0.164748,0.0286 -0.05574,0.004 -0.115358,0.008 -0.176036,0.008 -0.318205,0 -0.546805,-0.0857 -0.68333,-0.25682 -0.137936,-0.17286 -0.179211,-0.41804 -0.121003,-0.73907 0.02893,-0.15839 0.07444,-0.30303 0.140406,-0.42721 0.06315,-0.127 0.141816,-0.2353 0.235302,-0.32315 0.09455,-0.0885 0.202495,-0.15628 0.321381,-0.2032 0.121708,-0.048 0.25153,-0.072 0.391936,-0.072 0.259292,0 0.445206,0.0825 0.558447,0.24447 0.113947,0.16263 0.149578,0.39794 0.106186,0.70415 m -1.976613,-0.85267 c -0.0053,0.0155 -0.01094,0.0374 -0.01588,0.0667 l -0.306564,1.70356 c -0.0071,0.0381 -0.0099,0.0773 -0.0071,0.121 h -0.39123 l 0.04798,-0.26916 c -0.100894,0.11183 -0.199319,0.19014 -0.294569,0.23565 -0.09525,0.0452 -0.207433,0.0677 -0.339372,0.0677 -0.198967,0 -0.343606,-0.0515 -0.429331,-0.15522 -0.08749,-0.10336 -0.112889,-0.25047 -0.07726,-0.4452 l 0.226836,-1.25836 c 0.0071,-0.042 0.0088,-0.0801 0.006,-0.11995 h 0.413456 c -0.0078,0.0215 -0.01552,0.0413 -0.02081,0.0568 -0.0056,0.0159 -0.01129,0.0367 -0.01588,0.0632 l -0.219428,1.21708 c -0.02187,0.11995 -0.0074,0.21026 0.04516,0.27305 0.0515,0.0624 0.135466,0.0921 0.253294,0.0921 0.132997,0 0.246592,-0.0367 0.341136,-0.11183 0.09243,-0.0744 0.150989,-0.17357 0.172156,-0.29845 l 0.213077,-1.17193 c 0.0035,-0.0265 0.0053,-0.0473 0.006,-0.0632 0,-0.0155 0,-0.0353 -7.06e-4,-0.0568 h 0.413456 c -0.0074,0.0183 -0.01376,0.036 -0.02046,0.0533 m -2.131131,0.89288 c -0.06032,0.33691 -0.179564,0.59796 -0.360892,0.78282 -0.0769,0.0794 -0.167216,0.14111 -0.268464,0.1845 -0.102658,0.0437 -0.206727,0.0653 -0.313619,0.0653 -0.107244,0 -0.19685,-0.0201 -0.270581,-0.0607 -0.07267,-0.0392 -0.136877,-0.10196 -0.193675,-0.18909 l -0.122413,0.67839 c -0.0042,0.0236 -0.0056,0.0448 -0.0071,0.0614 -0.0011,0.0152 0,0.0349 0.0014,0.0589 H 58.55392 c 0.01623,-0.0413 0.02928,-0.0818 0.0381,-0.1203 l 0.409575,-2.28565 c 0.0049,-0.0222 0.0067,-0.0416 0.0085,-0.0572 0,-0.0166 0,-0.037 -0.0018,-0.0607 h 0.395816 l -0.04939,0.27341 c 0.17145,-0.21273 0.378883,-0.31997 0.621241,-0.31997 0.09384,0 0.180975,0.0205 0.258234,0.06 0.07585,0.0409 0.1397,0.0956 0.18803,0.16863 0.06068,0.0889 0.09666,0.19649 0.11042,0.31609 0.01305,0.12276 0.0021,0.26952 -0.02928,0.44414 m -3.019072,-0.0402 h -1.344436 c -0.01094,0.061 -0.02046,0.11641 -0.02575,0.16263 -0.0056,0.0476 -0.0088,0.0896 -0.01023,0.12911 0,0.0374 0,0.0755 0.0039,0.1076 0.0014,0.0349 0.0063,0.0692 0.01164,0.10725 0.04586,0.25294 0.210961,0.37853 0.496358,0.37853 0.105128,0 0.203553,-0.0159 0.296333,-0.0501 0.09349,-0.0353 0.194381,-0.0928 0.304095,-0.17286 l 0.01552,0.24624 c -0.06914,0.031 -0.130881,0.0557 -0.188031,0.0762 -0.0575,0.0219 -0.113594,0.0384 -0.166863,0.0519 -0.05574,0.0148 -0.109714,0.0226 -0.166864,0.0286 -0.05574,0.004 -0.112889,0.008 -0.175331,0.008 -0.317853,0 -0.545747,-0.0857 -0.684389,-0.25682 -0.137583,-0.17286 -0.1778,-0.41804 -0.119944,-0.73907 0.02999,-0.15839 0.0762,-0.30303 0.1397,-0.42721 0.06279,-0.127 0.142169,-0.2353 0.237772,-0.32315 0.09313,-0.0885 0.201789,-0.15628 0.320675,-0.2032 0.120297,-0.048 0.251883,-0.072 0.392642,-0.072 0.257527,0 0.444147,0.0825 0.557036,0.24447 0.113594,0.16263 0.148872,0.39794 0.106186,0.70415 m -1.856317,-1.52224 -0.440266,2.44228 c -0.0046,0.0219 -0.006,0.0423 -0.0071,0.0568 0,0.0169 0,0.0388 0.0011,0.0617 h -0.395464 l 0.05221,-0.28257 c -0.106187,0.11642 -0.203553,0.19791 -0.293512,0.24483 -0.08996,0.0483 -0.198261,0.072 -0.324908,0.072 -0.109361,0 -0.2032,-0.0226 -0.28328,-0.0695 -0.07761,-0.0462 -0.141817,-0.11219 -0.185562,-0.20003 -0.04516,-0.0864 -0.07303,-0.19156 -0.0822,-0.31573 -0.0095,-0.12418 0,-0.26494 0.02716,-0.42157 0.05786,-0.31927 0.169686,-0.56621 0.333728,-0.74613 0.163689,-0.1778 0.365478,-0.26846 0.60325,-0.26846 0.116417,0 0.210608,0.0205 0.28328,0.06 0.07091,0.0409 0.131587,0.10442 0.180975,0.1905 l 0.148873,-0.82409 c 0.0035,-0.0243 0.006,-0.0452 0.006,-0.0621 0.0011,-0.0155 0,-0.0339 0,-0.0572 h 0.412397 c -0.01623,0.0413 -0.02858,0.0804 -0.03669,0.11924 m 29.149675,-1.72755 H 54.29183 c -1.079147,0 -2.116667,1.31233 -2.306814,2.39113 l -0.23495,1.766 c -0.189089,1.0788 0.536575,2.00413 1.614311,2.00413 h 30.487408 c 1.077383,0 2.115961,-0.92533 2.307167,-2.00413 l 0.235655,-1.766 c 0.188383,-1.0788 -0.537986,-2.39113 -1.61678,-2.39113"
       style="fill:#ffffff;fill-opacity:1;fill-rule:nonzero;stroke:none;stroke-width:0.352778"
       id="path5348" />
    <path
       d="m 81.892246,219.57964 c -0.05151,0.019 -0.106539,0.0367 -0.159456,0.0564 -0.05468,0.0191 -0.111831,0.0409 -0.17145,0.0635 -0.250119,0.0882 -0.394758,0.23072 -0.430036,0.43251 -0.02046,0.10372 -0.0063,0.18768 0.04092,0.25047 0.04586,0.0621 0.118533,0.0928 0.21202,0.0928 0.05856,0 0.117122,-0.0116 0.173213,-0.0335 0.05786,-0.0229 0.109362,-0.054 0.155223,-0.0914 0.04445,-0.0413 0.08467,-0.0878 0.115358,-0.14217 0.03175,-0.0529 0.05362,-0.10901 0.06385,-0.16969 l 0.0956,-0.50518 c -0.01517,0.009 -0.03034,0.018 -0.04621,0.0247 -0.01587,0.007 -0.03175,0.0148 -0.04904,0.0215"
       style="fill:#ffffff;fill-opacity:1;fill-rule:nonzero;stroke:none;stroke-width:0.352778"
       id="path5352" />
    <path
       d="m 56.999011,218.96916 c -0.05962,-0.0586 -0.137583,-0.0857 -0.231775,-0.0857 -0.131939,0 -0.248708,0.0519 -0.351014,0.15769 -0.101952,0.10231 -0.179916,0.24942 -0.233538,0.43921 h 0.926394 c 0.0071,-0.0639 0.01094,-0.11536 0.01094,-0.15028 0,-0.037 -0.0021,-0.0751 -0.0078,-0.11889 -0.0127,-0.10407 -0.05009,-0.18485 -0.113242,-0.242"
       style="fill:#ffffff;fill-opacity:1;fill-rule:nonzero;stroke:none;stroke-width:0.352778"
       id="path5356" />
    <path
       d="m 55.423894,198.58626 0.06456,-0.29845 0.107245,-0.27729 0.134761,-0.26176 0.172861,-0.22331 0.199319,-0.19508 0.214842,-0.15205 0.248003,-0.12312 0.259291,-0.0727 0.274814,-0.0212 0.273756,0.0212 0.262819,0.0727 0.240242,0.12312 0.228953,0.15205 0.192264,0.19508 0.167569,0.22331 0.140758,0.26176 0.106539,0.27729 0.06068,0.29845 0.02893,0.3115 -0.02893,0.31609 -0.06068,0.29774 -0.106539,0.27976 -0.140758,0.25082 -0.167569,0.22825 -0.192264,0.19156 -0.228953,0.16263 -0.240242,0.11465 -0.262819,0.0702 -0.273756,0.0265 -0.274814,-0.0265 -0.259291,-0.0702 -0.248003,-0.11465 -0.214842,-0.16263 -0.199319,-0.19156 -0.172861,-0.22825 -0.134761,-0.25082 -0.107245,-0.27976 -0.06456,-0.29774 -0.01411,-0.31609 z m -1.180042,4.0707 5.130095,0.27905 v -6.39657 l -5.130095,-0.34078 z m 3.693584,-4.71911 -1.651,-0.0818 v 2.06445 l 1.666875,0.049 z m 3.097741,5.85717 -6.791325,-0.34607 v 6.16832 h 6.791325 z m -12.091105,5.78803 0.09913,0.0191 0.302331,0.0152 -0.255058,-0.0152 z m 4.255558,-10.6359 -0.03281,0.43991 -0.08185,0.39582 -0.111125,0.35101 -0.160161,0.28046 -0.17533,0.21731 -0.208492,0.12982 -0.23495,0.0402 -0.229306,-0.0624 -0.201436,-0.15663 -0.171802,-0.23354 -0.126648,-0.29669 -0.09137,-0.36442 -0.03634,-0.4071 v -0.4378 l 0.04621,-0.43568 0.08361,-0.38806 0.131939,-0.34748 0.153105,-0.2854 0.177095,-0.21837 0.195792,-0.12912 0.198613,-0.0437 0.204612,0.054 0.192969,0.15135 0.166158,0.236 0.145698,0.30622 0.10795,0.35771 0.05785,0.4131 z m 0.288219,-2.7806 -2.502958,0.41064 v 6.31401 l 2.502958,-0.22119 z m -1.766358,3.07587 0.0071,0.48648 v 0.19862 l 1.025525,-0.0409 0.0078,-1.9745 -1.040342,0.0677 z m 3.712986,-6.18349 -1.02235,2.37208 6.062486,0.41981 z m -8.436327,15.09537 0.144286,0.24906 0.16898,0.2413 0.195439,0.20426 0.208845,0.19191 0.231422,0.17427 0.250472,0.1337 0.276225,0.11607 0.126294,0.036 v -6.40327 l 1.624542,-0.14182 v -6.25722 l -1.196269,0.20461 -0.298803,0.18698 -0.404636,-0.65017 6.925027,-4.36633 v 0.008 l 0.0071,-0.0169 7.695494,4.28942 -0.401108,0.64488 -0.509764,-0.28469 -1.842911,-0.11818 v 6.38634 l 1.596672,0.0899 v 6.54439 l 0.271992,-0.0152 0.29845,-0.0582 0.281164,-0.079 0.268111,-0.11607 0.246239,-0.1337 0.236008,-0.17427 0.217311,-0.19191 0.186267,-0.20426 0.164747,-0.2413 0.143581,-0.24906 0.114652,-0.27094 0.07902,-0.27975 0.06032,-0.28822 0.01764,-0.3115 v -15.62735 l -0.01764,-0.30657 -0.06032,-0.28716 -0.07902,-0.28822 -0.114652,-0.26458 -0.143581,-0.25188 -0.164747,-0.23425 -0.186267,-0.21166 -0.217311,-0.19333 -0.236008,-0.16933 -0.246239,-0.13406 -0.268111,-0.11571 -0.281164,-0.0882 -0.29845,-0.0515 -0.29845,-0.0145 H 49.345533 l -0.302331,0.0145 -0.28963,0.0515 -0.279753,0.0882 -0.276225,0.11571 -0.250472,0.13406 -0.231422,0.16933 -0.208845,0.19333 -0.195439,0.21166 -0.16898,0.23425 -0.144286,0.25188 -0.115006,0.26458 -0.08008,0.28822 -0.04657,0.28716 -0.02364,0.30657 v 15.62735 l 0.02364,0.3115 0.04657,0.28822 0.08008,0.27975 z m 7.462661,-14.65051 -3.751439,2.34703 2.929114,-0.49177 z m -5.115278,16.11348 h 4.142316 v -6.16832 l -4.142316,0.31926 z"
       style="fill:#ffffff;fill-opacity:1;fill-rule:nonzero;stroke:none;stroke-width:0.352778"
       id="path5360" />
    <path
       d="m 78.590457,209.27154 v -4.13067 l -0.04057,-0.43956 -0.103717,-0.37218 -0.190853,-0.29422 -0.402519,-0.35489 -0.509411,-0.20285 -0.629003,-0.0639 -0.493183,0.0339 -0.434622,0.11642 -0.372181,0.19932 -0.181328,0.16545 -0.177094,0.19897 -0.179564,0.25611 v -0.83185 h -1.200856 l 0.02046,0.11818 0.02152,0.11713 v 5.49098 l -0.02152,0.11536 -0.02046,0.11995 h 1.261181 l -0.0314,-0.11995 -0.01235,-0.12171 v -3.60821 l 0.03387,-0.39299 0.129117,-0.34996 0.200378,-0.29421 0.266347,-0.20814 0.344664,-0.13265 0.416983,-0.0441 0.339019,0.0385 0.273756,0.0931 0.239183,0.14711 0.153811,0.2159 0.104775,0.26317 0.03493,0.31115 v 3.82799 l -0.0134,0.15064 -0.0064,0.12065 -0.02046,0.10372 h 1.246364 l -0.02152,-0.11995 z m -6.387041,-5.49451 0.01023,-0.12947 0.02999,-0.096 h -1.256594 l 0.02081,0.10901 0.02081,0.1263 v 3.73909 l -0.04163,0.3496 -0.126294,0.30798 -0.21202,0.254 -0.282222,0.19508 -0.327025,0.11113 -0.37712,0.0473 -0.374297,-0.0473 -0.2921,-0.11113 -0.237066,-0.20955 -0.124178,-0.21237 -0.08961,-0.25294 -0.01799,-0.30727 v -3.8735 l 0.01799,-0.11642 0.02787,-0.10901 h -1.248834 l 0.01552,0.11818 0.01305,0.11713 0.01023,0.12806 v 3.8742 l 0.04445,0.51153 0.143933,0.43603 0.235656,0.34079 0.391936,0.29774 0.487539,0.18133 0.596194,0.0603 0.442384,-0.0279 0.390877,-0.0984 0.341136,-0.1651 0.198262,-0.14958 0.201083,-0.21308 0.207786,-0.26776 v 0.8181 h 1.199444 l -0.02999,-0.12453 -0.01023,-0.11713 -0.01235,-0.13335 v -5.22322 z m 17.421577,3.25614 -0.06456,0.51082 -0.106539,0.43603 -0.159808,0.35666 -0.267053,0.36619 -0.336903,0.21448 -0.415572,0.0727 -0.282575,-0.0272 -0.263525,-0.0956 -0.254,-0.15346 -0.227542,-0.20249 -0.153105,-0.23248 -0.09807,-0.26706 -0.04515,-0.32773 -0.02223,-0.57114 -0.0088,-0.82409 0.03105,-0.61666 0.09419,-0.47978 0.174977,-0.37535 0.32632,-0.3743 0.381705,-0.23142 0.43427,-0.0773 0.350661,0.0653 0.282575,0.1644 0.248003,0.26247 0.177094,0.34148 0.129117,0.41981 0.07549,0.48401 0.02011,0.57397 z m 1.205795,-1.16946 -0.08467,-0.51294 -0.115358,-0.45438 -0.179564,-0.40816 -0.23495,-0.35419 -0.422628,-0.40005 -0.510822,-0.24659 -0.592667,-0.0741 -0.401814,0.0339 -0.371122,0.10442 -0.339372,0.18239 -0.195086,0.15734 -0.2032,0.21625 -0.233186,0.26529 v -2.72768 l 0.0042,-0.13793 0.01658,-0.11183 0.01623,-0.11889 h -1.24848 l 0.01975,0.11889 0.01623,0.12241 0.0056,0.12735 v 7.493 l -0.0056,0.1397 -0.01623,0.13159 -0.01975,0.10372 h 0.615597 l 0.326672,-0.72214 0.26917,0.27446 0.259291,0.21237 0.268817,0.14923 0.283986,0.11042 0.3175,0.0628 0.348897,0.0166 0.526697,-0.0511 0.481542,-0.15628 0.412397,-0.27587 0.349956,-0.38136 0.232833,-0.36794 0.186267,-0.42651 0.131586,-0.45332 0.08467,-0.5207 0.0194,-0.56586 z m -7.773459,1.64959 -0.0314,0.26423 -0.08467,0.25365 -0.131234,0.25752 -0.297744,0.30904 -0.360539,0.19332 -0.424392,0.0621 -0.274108,-0.0356 -0.235303,-0.0917 -0.198967,-0.16087 -0.148872,-0.22825 -0.08326,-0.23953 -0.03175,-0.29775 0.01905,-0.2734 0.08678,-0.2473 0.137583,-0.24553 0.188384,-0.20885 0.286102,-0.19226 0.360539,-0.17533 0.443442,-0.16193 0.298097,-0.11218 0.151695,-0.0543 0.08326,-0.042 0.101953,-0.0497 0.145344,-0.0755 z m 1.624542,1.31868 -0.113594,0.0212 -0.185562,-0.0621 -0.123825,-0.17216 -0.03845,-0.28892 v -3.54295 l -0.05539,-0.40358 -0.166864,-0.33902 -0.288925,-0.28151 -0.367595,-0.1898 -0.481189,-0.12594 -0.572205,-0.0339 -0.367947,0.0127 -0.338667,0.0332 -0.31115,0.06 -0.313267,0.0871 -0.347839,0.12771 -0.384527,0.16651 0.190852,0.77435 0.295981,-0.23213 0.265994,-0.15734 0.240242,-0.11359 0.224014,-0.0769 0.244828,-0.042 0.274461,-0.018 0.304447,0.0282 0.258586,0.0709 0.224367,0.1457 0.163336,0.16298 0.113947,0.20567 0.0314,0.248 -0.02469,0.20532 -0.06526,0.16863 -0.0956,0.13405 -0.144991,0.11889 -0.202495,0.10548 -0.258586,0.0938 -0.587728,0.18238 -0.446969,0.14006 -0.264231,0.0882 -0.206375,0.0907 -0.196497,0.10689 -0.219075,0.12594 -0.405694,0.37535 -0.244123,0.48966 -0.07303,0.59231 0.04939,0.50906 0.169686,0.43004 0.287162,0.36195 0.318911,0.22507 0.360539,0.13265 0.434622,0.0441 0.43568,-0.0279 0.388056,-0.10618 0.377119,-0.1711 0.19932,-0.13582 0.218016,-0.20779 0.236714,-0.25435 0.08608,0.30198 0.100895,0.23213 0.140052,0.16721 0.172861,0.12242 0.221192,0.0628 0.261761,0.0166 0.288572,-0.0279 0.288925,-0.0984 0.305153,-0.1651 v -0.6604 l -0.159103,0.10513 z"
       style="fill:#ffffff;fill-opacity:1;fill-rule:nonzero;stroke:none;stroke-width:0.352778"
       id="path5364" />
    <path
       d="m 48.121324,212.57333 c -0.0081,0.0198 -0.01058,0.0497 -0.01058,0.0804 v 1.07421 c 0,0.13864 -0.03528,0.25259 -0.102658,0.35102 -0.06491,0.0963 -0.150283,0.1591 -0.26035,0.19297 -0.09948,0.0381 -0.211314,0.054 -0.334786,0.054 -0.174625,0 -0.31362,-0.0332 -0.414867,-0.0984 -0.08043,-0.0515 -0.142875,-0.11854 -0.186267,-0.20356 -0.04763,-0.0871 -0.0695,-0.18027 -0.0695,-0.28187 v -1.08832 c 0,-0.0307 -0.0032,-0.0564 -0.0095,-0.0804 h 0.310092 c -0.0085,0.024 -0.0085,0.0497 -0.0085,0.078 v 1.09291 c 0,0.10689 0.02258,0.19262 0.06809,0.26211 0.08185,0.11854 0.208845,0.17851 0.391936,0.17851 0.155928,0 0.275167,-0.0409 0.357012,-0.12629 0.08608,-0.0808 0.126294,-0.20038 0.126294,-0.35102 v -1.05375 c 0,-0.0314 -0.0035,-0.0607 -0.0081,-0.0804 z"
       style="fill:#ffffff;fill-opacity:1;fill-rule:nonzero;stroke:none;stroke-width:0.352778"
       id="path5368" />
    <path
       d="m 48.449301,212.94816 h 0.268111 v 0.19085 c 0.03845,-0.0642 0.08008,-0.11042 0.122767,-0.14217 0.07585,-0.0522 0.174272,-0.0808 0.293158,-0.0808 0.155928,0 0.271286,0.0483 0.351367,0.14147 0.04692,0.0596 0.0769,0.14393 0.0769,0.24977 v 0.90946 c 0,0.0282 0.0025,0.0554 0.006,0.0818 h -0.278342 c 0.0039,-0.0201 0.0053,-0.049 0.0053,-0.0818 v -0.86643 c 0,-0.0773 -0.02187,-0.13793 -0.06632,-0.17991 -0.04551,-0.0427 -0.110066,-0.0624 -0.191205,-0.0624 -0.101247,0 -0.183797,0.0293 -0.230364,0.0843 -0.05821,0.0628 -0.08326,0.14041 -0.08326,0.23566 v 0.78881 c 0,0.0282 0.0018,0.0554 0.01094,0.0818 h -0.285044 c 0.0053,-0.0247 0.0064,-0.0501 0.0064,-0.0818 v -1.1871 c 0,-0.0254 -0.0011,-0.055 -0.0064,-0.0815"
       style="fill:#ffffff;fill-opacity:1;fill-rule:nonzero;stroke:none;stroke-width:0.352778"
       id="path5372" />
    <path
       d="m 49.896925,212.94816 h 0.286102 c -0.0088,0.0265 -0.01023,0.0561 -0.01023,0.0889 v 1.17969 c 0,0.0282 0.0014,0.0554 0.01023,0.0818 h -0.286102 c 0.01058,-0.0265 0.01058,-0.0536 0.01058,-0.0818 v -1.17969 c 0,-0.037 0,-0.0624 -0.01058,-0.0889 m 0.149577,-0.36336 c 0.0508,0 0.09243,0.01 0.117123,0.0328 0.02928,0.0233 0.04515,0.0515 0.04515,0.0875 0,0.0385 -0.01587,0.0677 -0.04515,0.0924 -0.0247,0.0215 -0.06632,0.0318 -0.117123,0.0318 -0.111125,0 -0.169333,-0.0402 -0.169333,-0.12171 0,-0.0385 0.01552,-0.0667 0.04798,-0.09 0.02646,-0.0201 0.06844,-0.0328 0.121355,-0.0328"
       style="fill:#ffffff;fill-opacity:1;fill-rule:nonzero;stroke:none;stroke-width:0.352778"
       id="path5376" />
    <path
       d="m 51.005564,214.00099 0.367242,-0.97508 c 0.01129,-0.0293 0.01905,-0.055 0.01905,-0.0776 h 0.150283 c -0.01588,0.0226 -0.02646,0.0483 -0.03457,0.0776 l -0.450145,1.20015 c -0.01164,0.031 -0.01764,0.0522 -0.01764,0.0674 l 0.0014,0.005 h -0.214842 c 0,-0.025 -0.0049,-0.0452 -0.0187,-0.0727 l -0.440267,-1.20015 c -0.0032,-0.0198 -0.01376,-0.0469 -0.03069,-0.0776 h 0.308328 c 0,0.0226 0.0028,0.0483 0.01305,0.0776 z"
       style="fill:#ffffff;fill-opacity:1;fill-rule:nonzero;stroke:none;stroke-width:0.352778"
       id="path5380" />
    <path
       d="m 51.872021,213.45767 h 0.646289 c -0.0025,-0.0741 -0.0194,-0.13793 -0.03069,-0.18803 -0.02364,-0.0737 -0.06244,-0.12911 -0.119945,-0.1718 -0.04198,-0.037 -0.09701,-0.0543 -0.162983,-0.0543 -0.09031,0 -0.164395,0.0339 -0.220839,0.10654 -0.05962,0.0751 -0.09737,0.17674 -0.111831,0.30762 m 0.86607,0.75283 c -0.09031,0.043 -0.164747,0.072 -0.230364,0.0882 -0.06738,0.0173 -0.144639,0.024 -0.233539,0.024 -0.231775,0 -0.406047,-0.0656 -0.524228,-0.20179 -0.106891,-0.11995 -0.161219,-0.27905 -0.161219,-0.49107 0,-0.22825 0.06103,-0.40464 0.183444,-0.53199 0.110067,-0.11889 0.262467,-0.18168 0.445206,-0.18168 0.178858,0 0.324203,0.0586 0.421217,0.17216 0.09948,0.11288 0.155575,0.27622 0.163688,0.48648 h -0.934508 c 0,0.15169 0.01446,0.26881 0.04692,0.3563 0.06914,0.1778 0.196144,0.26423 0.394405,0.26423 0.136878,0 0.264231,-0.0515 0.388761,-0.15734 z"
       style="fill:#ffffff;fill-opacity:1;fill-rule:nonzero;stroke:none;stroke-width:0.352778"
       id="path5384" />
    <path
       d="m 53.047477,212.94816 h 0.273403 v 0.17251 c 0.02152,-0.0684 0.05821,-0.12065 0.108303,-0.14993 0.0515,-0.0261 0.12453,-0.0473 0.22613,-0.0547 v 0.20991 c -0.02364,0 -0.03245,-10e-4 -0.04339,-10e-4 -0.192263,0 -0.287866,0.1023 -0.287866,0.31961 v 0.77259 c 0,0.0282 0.0018,0.0554 0.0099,0.0818 h -0.286456 c 0.0081,-0.0265 0.01094,-0.0536 0.01094,-0.0818 v -1.17969 c 0,-0.037 -0.0028,-0.0624 -0.01094,-0.0889"
       style="fill:#ffffff;fill-opacity:1;fill-rule:nonzero;stroke:none;stroke-width:0.352778"
       id="path5388" />
    <path
       d="m 53.78129,214.21043 0.04763,-0.18627 c 0.07549,0.0639 0.144992,0.10654 0.201083,0.12983 0.05715,0.0258 0.119945,0.0367 0.190148,0.0367 0.08361,0 0.149225,-0.0222 0.194027,-0.0698 0.0441,-0.042 0.06526,-0.096 0.06526,-0.15064 0,-0.0582 -0.0187,-0.10372 -0.06068,-0.13758 -0.04445,-0.0353 -0.13088,-0.078 -0.267405,-0.13159 -0.136172,-0.0543 -0.222956,-0.11254 -0.267406,-0.17745 -0.04445,-0.0642 -0.06632,-0.13158 -0.06632,-0.20602 0,-0.14287 0.05821,-0.24694 0.181681,-0.32067 0.08467,-0.0533 0.18415,-0.0808 0.299508,-0.0808 0.128058,0 0.260703,0.0321 0.400756,0.0935 l -0.04163,0.1651 c -0.12065,-0.0864 -0.233186,-0.12771 -0.333375,-0.12771 -0.0702,0 -0.128059,0.0194 -0.174625,0.0536 -0.04974,0.0427 -0.0762,0.0917 -0.0762,0.15452 0,0.0497 0.01799,0.0903 0.05468,0.11924 0.03634,0.0279 0.114653,0.0716 0.232128,0.11148 0.141111,0.0557 0.23742,0.11147 0.291747,0.17145 0.0575,0.0575 0.08431,0.13828 0.08431,0.23706 0,0.14006 -0.05539,0.24977 -0.162983,0.33161 -0.08714,0.0667 -0.206375,0.0967 -0.35807,0.0967 -0.14605,0 -0.288925,-0.0374 -0.434269,-0.11218"
       style="fill:#ffffff;fill-opacity:1;fill-rule:nonzero;stroke:none;stroke-width:0.352778"
       id="path5392" />
    <path
       d="m 54.964683,212.94816 h 0.285397 c -0.0074,0.0265 -0.0127,0.0561 -0.0127,0.0889 v 1.17969 c 0,0.0282 0.0053,0.0554 0.0127,0.0818 h -0.285397 c 0.0074,-0.0265 0.0092,-0.0536 0.0092,-0.0818 v -1.17969 c 0,-0.037 -0.0018,-0.0624 -0.0092,-0.0889 m 0.146756,-0.36336 c 0.05256,0 0.09243,0.01 0.12065,0.0328 0.02893,0.0233 0.04127,0.0515 0.04127,0.0875 0,0.0385 -0.01235,0.0677 -0.04127,0.0924 -0.02822,0.0215 -0.06668,0.0318 -0.11677,0.0318 -0.1143,0 -0.170039,-0.0402 -0.170039,-0.12171 0,-0.0385 0.0127,-0.0667 0.04551,-0.09 0.03069,-0.0201 0.0695,-0.0328 0.12065,-0.0328"
       style="fill:#ffffff;fill-opacity:1;fill-rule:nonzero;stroke:none;stroke-width:0.352778"
       id="path5396" />
    <path
       d="m 56.129132,213.0608 c -0.07338,0 -0.13582,0.0275 -0.184503,0.0783 -0.08784,0.0878 -0.130528,0.24976 -0.130528,0.48118 0,0.35772 0.1016,0.53376 0.29845,0.53376 0.106186,0 0.184503,-0.0462 0.237773,-0.14111 0.05221,-0.0917 0.08008,-0.23001 0.08008,-0.4124 0,-0.35595 -0.09984,-0.53411 -0.301272,-0.53975 m 0.290336,1.04175 c -0.0448,0.0635 -0.08608,0.10901 -0.122414,0.14005 -0.0702,0.0536 -0.160867,0.0801 -0.270228,0.0801 -0.154869,0 -0.275872,-0.0635 -0.362655,-0.19086 -0.08431,-0.13088 -0.128058,-0.29774 -0.128058,-0.50835 0,-0.21731 0.04904,-0.39088 0.149577,-0.52493 0.08326,-0.1196 0.210256,-0.18239 0.37712,-0.18239 0.07832,0 0.147461,0.0138 0.20073,0.0455 0.05645,0.0229 0.109009,0.0681 0.151695,0.13194 v -0.57468 c 0,-0.0296 -0.0025,-0.0561 -0.0088,-0.0811 h 0.285397 c -0.0067,0.025 -0.01023,0.055 -0.01023,0.0811 v 1.6951 c 0,0.0307 0.0035,0.0593 0.01023,0.0847 h -0.272344 z"
       style="fill:#ffffff;fill-opacity:1;fill-rule:nonzero;stroke:none;stroke-width:0.352778"
       id="path5400" />
    <path
       d="m 57.686999,213.49387 c -0.0321,0.0187 -0.05715,0.0318 -0.07126,0.0409 -0.0194,0.006 -0.0822,0.03 -0.201436,0.0759 -0.09278,0.0339 -0.157691,0.0755 -0.190852,0.1277 -0.03704,0.0533 -0.05574,0.11219 -0.05574,0.17392 0,0.0684 0.02081,0.13088 0.05997,0.17181 0.03775,0.0445 0.09384,0.0639 0.15875,0.0639 0.107244,0 0.18415,-0.0409 0.246592,-0.12912 0.03528,-0.0501 0.05398,-0.11112 0.05398,-0.17251 z m 0.0099,0.62689 c -0.05539,0.0624 -0.102305,0.10689 -0.150283,0.13335 -0.07655,0.0445 -0.169333,0.0688 -0.270228,0.0688 -0.103364,0 -0.187325,-0.03 -0.249061,-0.09 -0.07761,-0.0702 -0.118886,-0.17427 -0.118886,-0.29598 0,-0.14535 0.05609,-0.25682 0.168628,-0.32809 0.04868,-0.0342 0.09595,-0.055 0.139347,-0.0734 0.04198,-0.0162 0.141464,-0.0494 0.295981,-0.0938 0.06174,-0.0205 0.107597,-0.0434 0.135819,-0.072 0.02752,-0.0282 0.03881,-0.0677 0.03881,-0.11465 0,-0.0593 -0.02434,-0.10513 -0.06703,-0.14252 -0.04586,-0.0374 -0.104422,-0.0529 -0.178859,-0.0529 -0.06385,0 -0.119591,0.012 -0.172508,0.0289 -0.04516,0.0222 -0.108655,0.06 -0.179564,0.11289 l -0.04127,-0.17145 c 0.0889,-0.042 0.171097,-0.0684 0.237067,-0.0864 0.06879,-0.0184 0.142875,-0.0275 0.230717,-0.0275 0.139347,0 0.248002,0.0286 0.324555,0.0836 0.0755,0.0536 0.111478,0.13158 0.111478,0.23318 v 0.80151 c 0,0.0734 0.02399,0.1136 0.08149,0.1136 0.01729,0 0.04904,-0.0138 0.08749,-0.0409 v 0.14993 c -0.0702,0.0441 -0.138641,0.066 -0.196497,0.066 -0.06844,0 -0.119591,-0.0131 -0.151694,-0.0445 -0.03387,-0.03 -0.05786,-0.0833 -0.07549,-0.15769"
       style="fill:#ffffff;fill-opacity:1;fill-rule:nonzero;stroke:none;stroke-width:0.352778"
       id="path5404" />
    <path
       d="m 58.827988,213.0608 c -0.07126,0 -0.132292,0.0275 -0.184503,0.0783 -0.08326,0.0878 -0.125942,0.24976 -0.125942,0.48118 0,0.35772 0.09737,0.53376 0.294922,0.53376 0.105481,0 0.185562,-0.0462 0.242359,-0.14111 0.04974,-0.0917 0.07726,-0.23001 0.07726,-0.4124 0,-0.35595 -0.102305,-0.53411 -0.304094,-0.53975 m 0.28963,1.04175 c -0.04163,0.0635 -0.08361,0.10901 -0.116064,0.14005 -0.0762,0.0536 -0.16263,0.0801 -0.27058,0.0801 -0.159456,0 -0.282575,-0.0635 -0.365831,-0.19086 -0.08467,-0.13088 -0.128411,-0.29774 -0.128411,-0.50835 0,-0.21731 0.05045,-0.39088 0.143934,-0.52493 0.09137,-0.1196 0.218369,-0.18239 0.381352,-0.18239 0.07902,0 0.147461,0.0138 0.206022,0.0455 0.05433,0.0229 0.103717,0.0681 0.149225,0.13194 v -0.57468 c 0,-0.0296 -0.0028,-0.0561 -0.01058,-0.0811 h 0.286808 c -0.0081,0.025 -0.01094,0.055 -0.01094,0.0811 v 1.6951 c 0,0.0307 0.0028,0.0593 0.01094,0.0847 h -0.275872 z"
       style="fill:#ffffff;fill-opacity:1;fill-rule:nonzero;stroke:none;stroke-width:0.352778"
       id="path5408" />
    <path
       d="m 60.640454,213.62994 h 0.554214 l -0.282928,-0.77788 z m -0.04621,0.12805 -0.163336,0.46955 c -0.0085,0.0198 -0.01482,0.0455 -0.01482,0.0713 H 60.25381 c 0.01658,-0.0257 0.02999,-0.049 0.0388,-0.0713 l 0.56515,-1.59244 c 0.0071,-0.0226 0.01058,-0.0444 0.01058,-0.0617 h 0.247297 c 0.0035,0.0155 0.0088,0.0335 0.01588,0.0536 l 0.585258,1.60055 c 0.0074,0.0198 0.02152,0.0455 0.0381,0.0713 h -0.335844 c 0,-0.0205 -0.0046,-0.0452 -0.01129,-0.0713 L 61.240877,213.758 Z"
       style="fill:#ffffff;fill-opacity:1;fill-rule:nonzero;stroke:none;stroke-width:0.352778"
       id="path5412" />
    <path
       d="m 62.728546,214.29863 v -0.18486 c -0.04727,0.066 -0.09349,0.11395 -0.141111,0.14323 -0.06879,0.0441 -0.155575,0.0656 -0.263173,0.0656 -0.144639,0 -0.256822,-0.0402 -0.335491,-0.12311 -0.06174,-0.0677 -0.09349,-0.16334 -0.09349,-0.29069 v -0.87913 c 0,-0.0254 -0.0025,-0.055 -0.01058,-0.0815 h 0.283281 c -0.0056,0.0226 -0.0092,0.0519 -0.0092,0.0815 v 0.85055 c 0,0.073 0.01693,0.13018 0.05221,0.17216 0.04798,0.0564 0.115005,0.0818 0.206727,0.0818 0.08784,0 0.163337,-0.0254 0.220487,-0.0783 0.05962,-0.055 0.08643,-0.12065 0.08643,-0.20496 v -0.82127 c 0,-0.0296 -0.0042,-0.055 -0.01199,-0.0815 h 0.285397 c -0.0049,0.0226 -0.01094,0.0487 -0.01094,0.0815 v 1.18428 c 0,0.031 0.006,0.0568 0.01094,0.0847 z"
       style="fill:#ffffff;fill-opacity:1;fill-rule:nonzero;stroke:none;stroke-width:0.352778"
       id="path5416" />
    <path
       d="m 63.373459,213.07495 h -0.198261 v -0.12665 h 0.198261 v -0.25894 l 0.271639,-0.0314 c -0.0039,0.0515 -0.0039,0.0829 -0.0039,0.1009 v 0.18944 h 0.217664 v 0.12665 h -0.217664 v 0.97578 c 0,0.0811 0.02999,0.11924 0.09913,0.11924 0.03069,0 0.06738,-0.0127 0.118533,-0.0392 v 0.13723 c -0.07126,0.0367 -0.146403,0.0547 -0.223308,0.0547 -0.08925,0 -0.155223,-0.0215 -0.19685,-0.0635 -0.04163,-0.0452 -0.06526,-0.11112 -0.06526,-0.20073 z"
       style="fill:#ffffff;fill-opacity:1;fill-rule:nonzero;stroke:none;stroke-width:0.352778"
       id="path5420" />
    <path
       d="m 64.470033,212.79346 0.175683,-0.39969 h 0.227542 l -0.271992,0.39969 z m 0.138642,0.23637 c -0.04586,0 -0.09208,0.0137 -0.135114,0.0388 -0.04375,0.0265 -0.07973,0.0607 -0.104775,0.10266 -0.06809,0.11007 -0.103011,0.26105 -0.103011,0.4445 0,0.1912 0.03528,0.34325 0.103011,0.45261 0.02858,0.0434 0.06103,0.0797 0.104775,0.10372 0.04304,0.0272 0.08925,0.0384 0.135114,0.0384 0.04798,0 0.09419,-0.0113 0.137583,-0.0384 0.04445,-0.024 0.07761,-0.0603 0.104775,-0.10372 0.06879,-0.10936 0.10407,-0.25894 0.10407,-0.44802 0,-0.18804 -0.03528,-0.34044 -0.10407,-0.45085 -0.0575,-0.0921 -0.140405,-0.1397 -0.242358,-0.1397 m -7.06e-4,-0.1136 c 0.202142,0 0.355247,0.0684 0.4699,0.20461 0.103011,0.12735 0.15487,0.29457 0.15487,0.50271 0,0.22013 -0.05997,0.39194 -0.176742,0.52211 -0.116064,0.11995 -0.262467,0.1771 -0.445911,0.1771 -0.195086,0 -0.346428,-0.0635 -0.456142,-0.19438 -0.110772,-0.13265 -0.171803,-0.31045 -0.171803,-0.526 0,-0.20002 0.05962,-0.36512 0.168981,-0.49177 0.109008,-0.12665 0.262467,-0.18909 0.456847,-0.19438"
       style="fill:#ffffff;fill-opacity:1;fill-rule:nonzero;stroke:none;stroke-width:0.352778"
       id="path5424" />
    <path
       d="m 65.49323,212.94816 h 0.27305 v 0.19085 c 0.03775,-0.0642 0.08184,-0.11042 0.122766,-0.14217 0.0762,-0.0522 0.174625,-0.0808 0.292806,-0.0808 0.156986,0 0.270228,0.0483 0.352072,0.14147 0.04621,0.0596 0.07408,0.14393 0.07408,0.24977 v 0.90946 c 0,0.0282 0.0025,0.0554 0.0078,0.0818 h -0.282575 c 0.0081,-0.0201 0.01164,-0.049 0.01164,-0.0818 v -0.86643 c 0,-0.0773 -0.02328,-0.13793 -0.06844,-0.17991 -0.04445,-0.0427 -0.109713,-0.0624 -0.1905,-0.0624 -0.103363,0 -0.182386,0.0293 -0.231069,0.0843 -0.0575,0.0628 -0.08361,0.14041 -0.08361,0.23566 v 0.78881 c 0,0.0282 0.0011,0.0554 0.01094,0.0818 h -0.28896 c 0.0099,-0.0247 0.01341,-0.0501 0.01341,-0.0818 v -1.1871 c 0,-0.0254 -0.0035,-0.055 -0.01341,-0.0815"
       style="fill:#ffffff;fill-opacity:1;fill-rule:nonzero;stroke:none;stroke-width:0.352778"
       id="path5428" />
    <path
       d="m 67.504839,213.02983 c -0.04621,0 -0.09243,0.0137 -0.135114,0.0406 -0.04269,0.025 -0.07832,0.0596 -0.104069,0.1009 -0.07126,0.11007 -0.103011,0.26105 -0.103011,0.44203 0,0.19367 0.03175,0.34572 0.103011,0.45508 0.02681,0.0434 0.06279,0.0797 0.104069,0.10372 0.04269,0.0272 0.0889,0.0384 0.135114,0.0384 0.0508,0 0.09419,-0.0113 0.136525,-0.0384 0.04375,-0.024 0.07867,-0.0603 0.106186,-0.10372 0.06844,-0.10936 0.102306,-0.26141 0.102306,-0.44802 0,-0.18804 -0.03387,-0.34114 -0.102306,-0.45015 -0.05891,-0.0928 -0.135466,-0.1404 -0.242711,-0.1404 m 0,-0.1136 c 0.201084,0 0.354189,0.0684 0.465667,0.20461 0.105833,0.12735 0.158044,0.29457 0.158044,0.50271 0,0.22013 -0.06068,0.39194 -0.17533,0.52211 -0.117475,0.11995 -0.264584,0.1771 -0.442736,0.1771 -0.19932,0 -0.354189,-0.0635 -0.459317,-0.19438 -0.111478,-0.13265 -0.164747,-0.31045 -0.164747,-0.526 0,-0.20002 0.05327,-0.36512 0.163336,-0.49177 0.106539,-0.12665 0.261408,-0.18909 0.455083,-0.19438"
       style="fill:#ffffff;fill-opacity:1;fill-rule:nonzero;stroke:none;stroke-width:0.352778"
       id="path5432" />
    <path
       d="m 68.661351,213.10352 c 0.09737,-0.12488 0.226483,-0.18732 0.386644,-0.18732 0.08749,0 0.162631,0.0137 0.220839,0.0455 0.0568,0.0321 0.102305,0.0769 0.142169,0.14182 0.06773,-0.0663 0.128764,-0.11536 0.192264,-0.14182 0.06244,-0.0318 0.13582,-0.0455 0.21837,-0.0455 0.262819,0 0.390877,0.12735 0.390877,0.38347 v 0.91686 c 0,0.0282 0.0025,0.0564 0.0095,0.0822 H 69.94017 c 0.0042,-0.0258 0.0088,-0.054 0.0088,-0.0822 v -0.87418 c 0,-0.0727 -0.01058,-0.12488 -0.03669,-0.15804 -0.03775,-0.0533 -0.09596,-0.0762 -0.191912,-0.0762 -0.09137,0 -0.157338,0.0219 -0.208844,0.0667 -0.04939,0.0452 -0.07444,0.1143 -0.07444,0.19685 v 0.8449 c 0,0.0307 0.0011,0.0572 0.01058,0.0822 h -0.282575 c 0.006,-0.025 0.006,-0.0515 0.006,-0.0822 v -0.87418 c 0,-0.0727 -0.0099,-0.12488 -0.03563,-0.15663 -0.03881,-0.0547 -0.101247,-0.0776 -0.18415,-0.0776 -0.08819,0 -0.158045,0.0219 -0.207081,0.0667 -0.05045,0.0452 -0.07373,0.10442 -0.07373,0.17886 v 0.86289 c 0,0.0282 0,0.0564 0.0074,0.0822 h -0.286103 c 0.0071,-0.0258 0.01164,-0.054 0.01164,-0.0822 v -1.18674 c 0,-0.0296 -0.0046,-0.055 -0.01164,-0.0815 h 0.269523 z"
       style="fill:#ffffff;fill-opacity:1;fill-rule:nonzero;stroke:none;stroke-width:0.352778"
       id="path5436" />
    <path
       d="m 71.222411,213.49387 c -0.03457,0.0187 -0.05574,0.0318 -0.0762,0.0409 -0.01446,0.006 -0.08149,0.03 -0.198614,0.0759 -0.09208,0.0339 -0.155927,0.0755 -0.190147,0.1277 -0.04057,0.0533 -0.05609,0.11219 -0.05609,0.17392 0,0.0684 0.01834,0.13088 0.06138,0.17181 0.04057,0.0445 0.09278,0.0639 0.159103,0.0639 0.106891,0 0.185914,-0.0409 0.244827,-0.12912 0.03598,-0.0501 0.05574,-0.11112 0.05574,-0.17251 z m 0.0085,0.62689 c -0.05433,0.0624 -0.104069,0.10689 -0.146403,0.13335 -0.07937,0.0445 -0.17145,0.0688 -0.276578,0.0688 -0.09984,0 -0.183444,-0.03 -0.249413,-0.09 -0.07585,-0.0702 -0.112889,-0.17427 -0.112889,-0.29598 0,-0.14535 0.05362,-0.25682 0.1651,-0.32809 0.04868,-0.0342 0.09313,-0.055 0.139347,-0.0734 0.04163,-0.0162 0.138994,-0.0494 0.29598,-0.0938 0.06597,-0.0205 0.10795,-0.0434 0.135467,-0.072 0.02575,-0.0282 0.04092,-0.0677 0.04092,-0.11465 0,-0.0593 -0.02187,-0.10513 -0.06844,-0.14252 -0.04621,-0.0374 -0.102658,-0.0529 -0.180622,-0.0529 -0.06032,0 -0.117828,0.012 -0.16898,0.0289 -0.04692,0.0222 -0.111478,0.06 -0.179917,0.11289 l -0.04233,-0.17145 c 0.09031,-0.042 0.171097,-0.0684 0.239889,-0.0864 0.06703,-0.0184 0.13723,-0.0275 0.229305,-0.0275 0.137936,0 0.246239,0.0286 0.321733,0.0836 0.07444,0.0536 0.113948,0.13158 0.113948,0.23318 v 0.80151 c 0,0.0734 0.02434,0.1136 0.08008,0.1136 0.02046,0 0.04798,-0.0138 0.08467,-0.0409 v 0.14993 c -0.06773,0.0441 -0.134056,0.066 -0.196497,0.066 -0.06421,0 -0.1143,-0.0131 -0.14605,-0.0445 -0.03493,-0.03 -0.06103,-0.0833 -0.07832,-0.15769"
       style="fill:#ffffff;fill-opacity:1;fill-rule:nonzero;stroke:none;stroke-width:0.352778"
       id="path5440" />
    <path
       d="m 73.071743,213.0608 c -0.07056,0 -0.135467,0.0275 -0.187325,0.0783 -0.08326,0.0878 -0.124883,0.24976 -0.124883,0.48118 0,0.35772 0.09913,0.53376 0.29598,0.53376 0.103364,0 0.18415,-0.0462 0.233186,-0.14111 0.05644,-0.0917 0.08537,-0.23001 0.08537,-0.4124 0,-0.35595 -0.100189,-0.53411 -0.302331,-0.53975 m 0.288925,1.04175 c -0.04374,0.0635 -0.0829,0.10901 -0.118886,0.14005 -0.07267,0.0536 -0.163336,0.0801 -0.271992,0.0801 -0.159103,0 -0.279753,-0.0635 -0.360891,-0.19086 -0.08749,-0.13088 -0.132292,-0.29774 -0.132292,-0.50835 0,-0.21731 0.05045,-0.39088 0.147814,-0.52493 0.08996,-0.1196 0.216253,-0.18239 0.379236,-0.18239 0.08079,0 0.147461,0.0138 0.202494,0.0455 0.0575,0.0229 0.107598,0.0681 0.1524,0.13194 v -0.57468 c 0,-0.0296 -0.0028,-0.0561 -0.0088,-0.0811 h 0.28328 c -0.0088,0.025 -0.0088,0.055 -0.0088,0.0811 v 1.6951 c 0,0.0307 0,0.0593 0.0088,0.0847 h -0.272344 z"
       style="fill:#ffffff;fill-opacity:1;fill-rule:nonzero;stroke:none;stroke-width:0.352778"
       id="path5444" />
    <path
       d="m 74.180382,213.45767 h 0.6477 c -0.0095,-0.0741 -0.02152,-0.13793 -0.03669,-0.18803 -0.02223,-0.0737 -0.06068,-0.12911 -0.115005,-0.1718 -0.04586,-0.037 -0.1016,-0.0543 -0.166158,-0.0543 -0.08855,0 -0.164748,0.0339 -0.226484,0.10654 -0.05468,0.0751 -0.09137,0.17674 -0.103364,0.30762 m 0.862895,0.75283 c -0.08749,0.043 -0.164747,0.072 -0.229659,0.0882 -0.07055,0.0173 -0.146755,0.024 -0.231422,0.024 -0.233186,0 -0.409575,-0.0656 -0.526344,-0.20179 -0.106186,-0.11995 -0.161572,-0.27905 -0.161572,-0.49107 0,-0.22825 0.06138,-0.40464 0.18168,-0.53199 0.115358,-0.11889 0.263172,-0.18168 0.449086,-0.18168 0.179211,0 0.320322,0.0586 0.421217,0.17216 0.09948,0.11288 0.153811,0.27622 0.161925,0.48648 H 74.16733 c 0,0.15169 0.02046,0.26881 0.05292,0.3563 0.0635,0.1778 0.198614,0.26423 0.392642,0.26423 0.1397,0 0.266347,-0.0515 0.390172,-0.15734 z"
       style="fill:#ffffff;fill-opacity:1;fill-rule:nonzero;stroke:none;stroke-width:0.352778"
       id="path5448" />
    <path
       d="m 76.380763,214.16602 h 0.203906 c 0.213077,0 0.318911,-0.11007 0.318911,-0.33091 0,-0.13088 -0.03669,-0.22613 -0.114653,-0.28751 -0.03422,-0.0282 -0.07479,-0.0504 -0.114653,-0.06 -0.04304,-0.0127 -0.09631,-0.0198 -0.164747,-0.0198 h -0.128764 z m 0,-0.81845 h 0.122767 c 0.111125,0 0.191558,-0.019 0.254,-0.0582 0.07867,-0.055 0.12065,-0.15204 0.12065,-0.28927 0,-0.20003 -0.105834,-0.29916 -0.313267,-0.29916 h -0.18415 z m -0.303036,-0.77434 h 0.585611 c 0.14217,0 0.256822,0.0275 0.346428,0.09 0.102305,0.0734 0.151694,0.18345 0.151694,0.33373 0,0.15734 -0.05891,0.2667 -0.182739,0.33867 -0.03634,0.018 -0.09278,0.0388 -0.1651,0.0596 0.07796,0.0166 0.138642,0.0388 0.19297,0.0677 0.126294,0.0744 0.191205,0.19685 0.191205,0.36618 0,0.16687 -0.06315,0.29175 -0.191205,0.38136 -0.08643,0.0557 -0.187678,0.0882 -0.30092,0.0882 h -0.627944 c 0.01094,-0.0205 0.01623,-0.0505 0.01623,-0.0818 v -1.56316 c 0,-0.0342 -0.0053,-0.0607 -0.01623,-0.0804"
       style="fill:#ffffff;fill-opacity:1;fill-rule:nonzero;stroke:none;stroke-width:0.352778"
       id="path5452" />
    <path
       d="m 78.323793,214.29863 v -0.18486 c -0.05009,0.066 -0.0956,0.11395 -0.140759,0.14323 -0.07056,0.0441 -0.160161,0.0656 -0.266347,0.0656 -0.145344,0 -0.254706,-0.0402 -0.333375,-0.12311 -0.06632,-0.0677 -0.09807,-0.16334 -0.09807,-0.29069 v -0.87913 c 0,-0.0254 -0.0028,-0.055 -0.0056,-0.0815 h 0.281164 c -0.0085,0.0226 -0.0085,0.0519 -0.0085,0.0815 v 0.85055 c 0,0.073 0.01623,0.13018 0.05327,0.17216 0.04269,0.0564 0.111125,0.0818 0.203906,0.0818 0.08784,0 0.1651,-0.0254 0.224366,-0.0783 0.05644,-0.055 0.08467,-0.12065 0.08467,-0.20496 v -0.82127 c 0,-0.0296 -0.0042,-0.055 -0.01094,-0.0815 h 0.282928 c -0.0046,0.0226 -0.0095,0.0487 -0.0095,0.0815 v 1.18428 c 0,0.031 0.0049,0.0568 0.0095,0.0847 z"
       style="fill:#ffffff;fill-opacity:1;fill-rule:nonzero;stroke:none;stroke-width:0.352778"
       id="path5456" />
    <path
       d="m 79.848604,214.22768 c -0.09772,0.0385 -0.168628,0.0684 -0.214489,0.0808 -0.04022,0.01 -0.09384,0.0145 -0.161572,0.0145 -0.194381,0 -0.343959,-0.0575 -0.448381,-0.17709 -0.112889,-0.127 -0.164394,-0.29457 -0.164394,-0.50483 0,-0.24553 0.0695,-0.43144 0.210608,-0.56621 0.114653,-0.10406 0.265995,-0.15875 0.45332,-0.15875 0.102658,0 0.211313,0.0226 0.324908,0.0586 v 0.20037 c -0.06244,-0.0504 -0.11677,-0.0864 -0.158397,-0.10336 -0.0448,-0.0194 -0.09631,-0.0279 -0.14852,-0.0279 -0.124178,0 -0.219075,0.0515 -0.287514,0.15205 -0.07479,0.10618 -0.111477,0.25012 -0.111477,0.42756 0,0.15205 0.02787,0.27905 0.08325,0.38277 0.0635,0.11888 0.162983,0.17886 0.298803,0.17886 0.0575,0 0.11183,-0.01 0.159808,-0.031 0.05045,-0.0219 0.106892,-0.0579 0.164042,-0.11077 z"
       style="fill:#ffffff;fill-opacity:1;fill-rule:nonzero;stroke:none;stroke-width:0.352778"
       id="path5460" />
    <path
       d="m 80.754996,213.49387 c -0.02928,0.0187 -0.05609,0.0318 -0.07373,0.0409 -0.01482,0.006 -0.08184,0.03 -0.197555,0.0759 -0.0956,0.0339 -0.154164,0.0755 -0.192617,0.1277 -0.03704,0.0533 -0.05362,0.11219 -0.05362,0.17392 0,0.0684 0.02046,0.13088 0.06138,0.17181 0.03739,0.0445 0.08925,0.0639 0.159103,0.0639 0.102658,0 0.185208,-0.0409 0.243769,-0.12912 0.03563,-0.0501 0.05327,-0.11112 0.05327,-0.17251 z m 0.0095,0.62689 c -0.05292,0.0624 -0.103364,0.10689 -0.149225,0.13335 -0.0762,0.0445 -0.165806,0.0688 -0.265642,0.0688 -0.106539,0 -0.189441,-0.03 -0.252941,-0.09 -0.07902,-0.0702 -0.116417,-0.17427 -0.116417,-0.29598 0,-0.14535 0.05362,-0.25682 0.166864,-0.32809 0.04798,-0.0342 0.09278,-0.055 0.140405,-0.0734 0.04198,-0.0162 0.138642,-0.0494 0.29457,-0.0938 0.06209,-0.0205 0.104069,-0.0434 0.132291,-0.072 0.03069,-0.0282 0.04057,-0.0677 0.04057,-0.11465 0,-0.0593 -0.02011,-0.10513 -0.06879,-0.14252 -0.04198,-0.0374 -0.100894,-0.0529 -0.177447,-0.0529 -0.06174,0 -0.118886,0.012 -0.164042,0.0289 -0.05362,0.0222 -0.113947,0.06 -0.184502,0.11289 l -0.04445,-0.17145 c 0.09031,-0.042 0.171802,-0.0684 0.238477,-0.0864 0.06632,-0.0184 0.143581,-0.0275 0.23107,-0.0275 0.140405,0 0.246239,0.0286 0.321733,0.0836 0.07585,0.0536 0.11677,0.13158 0.11677,0.23318 v 0.80151 c 0,0.0734 0.02364,0.1136 0.07937,0.1136 0.02117,0 0.04798,-0.0138 0.08396,-0.0409 v 0.14993 c -0.06526,0.0441 -0.135114,0.066 -0.197203,0.066 -0.06668,0 -0.116064,-0.0131 -0.147108,-0.0445 -0.03351,-0.03 -0.05997,-0.0833 -0.07832,-0.15769"
       style="fill:#ffffff;fill-opacity:1;fill-rule:nonzero;stroke:none;stroke-width:0.352778"
       id="path5464" />
    <path
       d="m 81.363749,212.94816 h 0.271639 v 0.17251 c 0.02434,-0.0684 0.06385,-0.12065 0.111125,-0.14993 0.0508,-0.0261 0.122767,-0.0473 0.225778,-0.0547 v 0.20991 c -0.01834,0 -0.03387,-10e-4 -0.0381,-10e-4 -0.199672,0 -0.293511,0.1023 -0.293511,0.31961 v 0.77259 c 0,0.0282 0.0053,0.0554 0.01023,0.0818 h -0.287161 c 0.01199,-0.0265 0.01341,-0.0536 0.01341,-0.0818 v -1.17969 c 0,-0.037 -0.0014,-0.0624 -0.01341,-0.0889"
       style="fill:#ffffff;fill-opacity:1;fill-rule:nonzero;stroke:none;stroke-width:0.352778"
       id="path5468" />
    <path
       d="m 82.842029,213.49387 c -0.03528,0.0187 -0.05856,0.0318 -0.07338,0.0409 -0.01658,0.006 -0.08467,0.03 -0.2032,0.0759 -0.09313,0.0339 -0.155927,0.0755 -0.189794,0.1277 -0.03528,0.0533 -0.05362,0.11219 -0.05362,0.17392 0,0.0684 0.01834,0.13088 0.0575,0.17181 0.04163,0.0445 0.09278,0.0639 0.16122,0.0639 0.102658,0 0.187678,-0.0409 0.242711,-0.12912 0.03986,-0.0501 0.05856,-0.11112 0.05856,-0.17251 z m 0.0088,0.62689 c -0.05468,0.0624 -0.10407,0.10689 -0.150284,0.13335 -0.07761,0.0445 -0.167569,0.0688 -0.270228,0.0688 -0.101952,0 -0.189088,-0.03 -0.25153,-0.09 -0.07796,-0.0702 -0.1143,-0.17427 -0.1143,-0.29598 0,-0.14535 0.05327,-0.25682 0.165805,-0.32809 0.04657,-0.0342 0.09384,-0.055 0.1397,-0.0734 0.03951,-0.0162 0.140406,-0.0494 0.294217,-0.0938 0.06491,-0.0205 0.107597,-0.0434 0.136172,-0.072 0.02646,-0.0282 0.04163,-0.0677 0.04163,-0.11465 0,-0.0593 -0.02505,-0.10513 -0.0702,-0.14252 -0.04269,-0.0374 -0.104422,-0.0529 -0.174625,-0.0529 -0.06703,0 -0.124883,0.012 -0.17533,0.0289 -0.04621,0.0222 -0.104775,0.06 -0.180622,0.11289 l -0.04269,-0.17145 c 0.09313,-0.042 0.17392,-0.0684 0.240595,-0.0864 0.06385,-0.0184 0.142522,-0.0275 0.230717,-0.0275 0.140405,0 0.246591,0.0286 0.320675,0.0836 0.07902,0.0536 0.1143,0.13158 0.1143,0.23318 v 0.80151 c 0,0.0734 0.02611,0.1136 0.08079,0.1136 0.01623,0 0.04692,-0.0138 0.08467,-0.0409 v 0.14993 c -0.06844,0.0441 -0.133702,0.066 -0.195791,0.066 -0.06491,0 -0.118534,-0.0131 -0.149225,-0.0445 -0.0314,-0.03 -0.06068,-0.0833 -0.07444,-0.15769"
       style="fill:#ffffff;fill-opacity:1;fill-rule:nonzero;stroke:none;stroke-width:0.352778"
       id="path5472" />
    <path
       d="m 83.718117,213.10352 c 0.100189,-0.12488 0.225778,-0.18732 0.388762,-0.18732 0.08396,0 0.160513,0.0137 0.216605,0.0455 0.05927,0.0321 0.109008,0.0769 0.147814,0.14182 0.06385,-0.0663 0.127353,-0.11536 0.190853,-0.14182 0.06068,-0.0318 0.132291,-0.0455 0.218016,-0.0455 0.260703,0 0.387703,0.12735 0.387703,0.38347 v 0.91686 c 0,0.0282 0.0071,0.0564 0.0127,0.0822 h -0.287866 c 0.0099,-0.0258 0.0099,-0.054 0.0099,-0.0822 v -0.87418 c 0,-0.0727 -0.0099,-0.12488 -0.03351,-0.15804 -0.03387,-0.0533 -0.09807,-0.0762 -0.192616,-0.0762 -0.08925,0 -0.154517,0.0219 -0.211314,0.0667 -0.04657,0.0452 -0.0702,0.1143 -0.0702,0.19685 v 0.8449 c 0,0.0307 0.006,0.0572 0.01023,0.0822 h -0.284692 c 0.0063,-0.025 0.01129,-0.0515 0.01129,-0.0822 v -0.87418 c 0,-0.0727 -0.01552,-0.12488 -0.04092,-0.15663 -0.03704,-0.0547 -0.100542,-0.0776 -0.186267,-0.0776 -0.08361,0 -0.149931,0.0219 -0.204964,0.0667 -0.04763,0.0452 -0.07303,0.10442 -0.07303,0.17886 v 0.86289 c 0,0.0282 0.0028,0.0564 0.0085,0.0822 h -0.284339 c 0.0056,-0.0258 0.01094,-0.054 0.01094,-0.0822 v -1.18674 c 0,-0.0296 -0.0053,-0.055 -0.01094,-0.0815 h 0.267405 z"
       style="fill:#ffffff;fill-opacity:1;fill-rule:nonzero;stroke:none;stroke-width:0.352778"
       id="path5476" />
    <path
       d="m 86.277167,213.49387 c -0.03175,0.0187 -0.05644,0.0318 -0.07126,0.0409 -0.01764,0.006 -0.08431,0.03 -0.20073,0.0759 -0.09525,0.0339 -0.155928,0.0755 -0.191206,0.1277 -0.03739,0.0533 -0.05644,0.11219 -0.05644,0.17392 0,0.0684 0.02117,0.13088 0.06456,0.17181 0.03246,0.0445 0.08784,0.0639 0.156986,0.0639 0.103717,0 0.185914,-0.0409 0.244475,-0.12912 0.0374,-0.0501 0.05362,-0.11112 0.05362,-0.17251 z m 0.01164,0.62689 c -0.05574,0.0624 -0.103011,0.10689 -0.150636,0.13335 -0.07655,0.0445 -0.166511,0.0688 -0.268111,0.0688 -0.103717,0 -0.189089,-0.03 -0.249767,-0.09 -0.08079,-0.0702 -0.116416,-0.17427 -0.116416,-0.29598 0,-0.14535 0.05468,-0.25682 0.163688,-0.32809 0.04798,-0.0342 0.09631,-0.055 0.137231,-0.0734 0.04445,-0.0162 0.145344,-0.0494 0.297744,-0.0938 0.0635,-0.0205 0.110067,-0.0434 0.135114,-0.072 0.03104,-0.0282 0.03951,-0.0677 0.03951,-0.11465 0,-0.0593 -0.02117,-0.10513 -0.06456,-0.14252 -0.04762,-0.0374 -0.105833,-0.0529 -0.180622,-0.0529 -0.06033,0 -0.122061,0.012 -0.166511,0.0289 -0.05151,0.0222 -0.112889,0.06 -0.184503,0.11289 l -0.0441,-0.17145 c 0.0956,-0.042 0.173919,-0.0684 0.23883,-0.0864 0.06632,-0.0184 0.145345,-0.0275 0.23107,-0.0275 0.138641,0 0.249061,0.0286 0.32773,0.0836 0.0702,0.0536 0.109714,0.13158 0.109714,0.23318 v 0.80151 c 0,0.0734 0.02716,0.1136 0.07937,0.1136 0.02258,0 0.05362,-0.0138 0.08714,-0.0409 v 0.14993 c -0.06879,0.0441 -0.132644,0.066 -0.200378,0.066 -0.06244,0 -0.112183,-0.0131 -0.147108,-0.0445 -0.0314,-0.03 -0.05644,-0.0833 -0.07444,-0.15769"
       style="fill:#ffffff;fill-opacity:1;fill-rule:nonzero;stroke:none;stroke-width:0.352778"
       id="path5480" />
    <path
       d="m 86.887614,212.94816 h 0.268817 v 0.19085 c 0.04163,-0.0642 0.08079,-0.11042 0.125236,-0.14217 0.07514,-0.0522 0.173919,-0.0808 0.294922,-0.0808 0.152047,0 0.270933,0.0483 0.34925,0.14147 0.05045,0.0596 0.07726,0.14393 0.07726,0.24977 v 0.90946 c 0,0.0282 0,0.0554 0.0071,0.0818 h -0.281517 c 0.0021,-0.0201 0.0074,-0.049 0.0074,-0.0818 v -0.86643 c 0,-0.0773 -0.0247,-0.13793 -0.06456,-0.17991 -0.04551,-0.0427 -0.110772,-0.0624 -0.195439,-0.0624 -0.103364,0 -0.180975,0.0293 -0.232833,0.0843 -0.05433,0.0628 -0.08114,0.14041 -0.08114,0.23566 v 0.78881 c 0,0.0282 0.0035,0.0554 0.0088,0.0818 h -0.283281 c 0.0095,-0.0247 0.01094,-0.0501 0.01094,-0.0818 v -1.1871 c 0,-0.0254 -0.0014,-0.055 -0.01094,-0.0815"
       style="fill:#ffffff;fill-opacity:1;fill-rule:nonzero;stroke:none;stroke-width:0.352778"
       id="path5484" />
    <path
       d="m 88.88924,213.05738 c -0.110067,0 -0.192617,0.0413 -0.242358,0.12488 -0.05362,0.0797 -0.07796,0.18591 -0.07796,0.3115 0,0.14711 0.02963,0.25753 0.07937,0.3355 0.0568,0.0794 0.137936,0.11923 0.239183,0.11923 0.111478,0 0.191205,-0.0409 0.242358,-0.12382 0.05362,-0.0861 0.07796,-0.19579 0.07796,-0.33091 0,-0.13582 -0.02434,-0.24094 -0.08325,-0.32173 -0.05644,-0.0741 -0.134409,-0.11254 -0.235303,-0.11465 m -0.540103,1.36948 -0.06597,-0.19403 0.289983,-0.21378 c -0.07796,-0.0413 -0.137936,-0.0896 -0.180622,-0.13794 -0.07056,-0.0878 -0.110067,-0.20778 -0.110067,-0.35771 0,-0.1965 0.05503,-0.34855 0.168981,-0.45297 0.10548,-0.10195 0.24518,-0.15064 0.422275,-0.15064 0.02858,0 0.07232,0.002 0.136877,0.005 0.03845,-0.0155 0.06809,-0.0438 0.09243,-0.0822 0.02152,-0.0413 0.03598,-0.0882 0.03951,-0.14711 h 0.251531 c -0.0067,0.0631 -0.02364,0.11218 -0.05186,0.14711 -0.02611,0.0349 -0.08079,0.0769 -0.15875,0.12135 0.07973,0.036 0.139348,0.0847 0.187678,0.13935 0.08502,0.10795 0.125589,0.23813 0.125589,0.40287 0,0.1644 -0.04269,0.30057 -0.141464,0.40217 -0.07585,0.0815 -0.179564,0.13441 -0.314325,0.15628 -0.02716,0.004 -0.08255,0.0141 -0.167216,0.019 -0.05186,0.006 -0.09737,0.0187 -0.134409,0.0445 l -0.248002,0.14993 c 0.236361,-0.0564 0.410986,-0.0829 0.533047,-0.0829 0.134408,0 0.255058,0.0183 0.360186,0.0614 0.04868,0.0215 0.08925,0.0533 0.117828,0.0921 0.02928,0.037 0.04304,0.078 0.04304,0.12417 0,0.09 -0.04551,0.15911 -0.143933,0.20709 -0.09349,0.0501 -0.231775,0.0748 -0.408517,0.0748 -0.182386,0 -0.399697,-0.0399 -0.658636,-0.11606 v -0.0501 c 0.200378,0.0526 0.376767,0.0801 0.524581,0.0801 0.103011,0 0.187678,-0.0169 0.254705,-0.0452 0.06456,-0.0307 0.09419,-0.072 0.09419,-0.12135 0,-0.0508 -0.0314,-0.085 -0.101247,-0.11466 -0.06809,-0.0282 -0.164042,-0.0437 -0.282222,-0.0437 -0.138995,0 -0.295275,0.0307 -0.475192,0.0829"
       style="fill:#ffffff;fill-opacity:1;fill-rule:nonzero;stroke:none;stroke-width:0.352778"
       id="path5488" />
    <path
       d="m 90.418496,213.49387 c -0.03316,0.0187 -0.05891,0.0318 -0.07267,0.0409 -0.02011,0.006 -0.08502,0.03 -0.204258,0.0759 -0.08996,0.0339 -0.153459,0.0755 -0.185914,0.1277 -0.04269,0.0533 -0.05503,0.11219 -0.05503,0.17392 0,0.0684 0.01835,0.13088 0.05609,0.17181 0.04022,0.0445 0.0949,0.0639 0.1651,0.0639 0.103011,0 0.182386,-0.0409 0.242358,-0.12912 0.03563,-0.0501 0.05433,-0.11112 0.05433,-0.17251 z m 0.0095,0.62689 c -0.05221,0.0624 -0.105128,0.10689 -0.149578,0.13335 -0.07514,0.0445 -0.166158,0.0688 -0.268463,0.0688 -0.106539,0 -0.189442,-0.03 -0.252589,-0.09 -0.0762,-0.0702 -0.11677,-0.17427 -0.11677,-0.29598 0,-0.14535 0.0575,-0.25682 0.168981,-0.32809 0.04657,-0.0342 0.09384,-0.055 0.138994,-0.0734 0.03951,-0.0162 0.140759,-0.0494 0.2921,-0.0938 0.0635,-0.0205 0.108656,-0.0434 0.138289,-0.072 0.02893,-0.0282 0.03951,-0.0677 0.03951,-0.11465 0,-0.0593 -0.02187,-0.10513 -0.06914,-0.14252 -0.04516,-0.0374 -0.102659,-0.0529 -0.1778,-0.0529 -0.05927,0 -0.119945,0.012 -0.169686,0.0289 -0.04621,0.0222 -0.108656,0.06 -0.181328,0.11289 l -0.04233,-0.17145 c 0.09102,-0.042 0.172508,-0.0684 0.237419,-0.0864 0.06703,-0.0184 0.142169,-0.0275 0.231069,-0.0275 0.139348,0 0.246239,0.0286 0.321734,0.0836 0.0769,0.0536 0.116416,0.13158 0.116416,0.23318 v 0.80151 c 0,0.0734 0.0254,0.1136 0.07796,0.1136 0.0194,0 0.04939,-0.0138 0.08749,-0.0409 v 0.14993 c -0.06914,0.0441 -0.136525,0.066 -0.198966,0.066 -0.06703,0 -0.115359,-0.0131 -0.148873,-0.0445 -0.03316,-0.03 -0.05821,-0.0833 -0.07444,-0.15769"
       style="fill:#ffffff;fill-opacity:1;fill-rule:nonzero;stroke:none;stroke-width:0.352778"
       id="path5492" />
  </g>
</svg>
